<svg xmlns="http://www.w3.org/2000/svg" width="1000" height="694" viewBox="0 0 1000 694">
<title>base_post_outer_right nominal side-face profile and bolt coordinates</title>
<rect width="100%" height="100%" fill="white"/>
<style>text{font-family:sans-serif;fill:#17202a;font-size:14px}.small{font-size:12px}.title{font-size:21px;font-weight:bold}</style>
<defs><marker id="arrow" viewBox="0 0 10 10" refX="9" refY="5" markerWidth="7" markerHeight="7" orient="auto-start-reverse"><path d="M0 0L10 5L0 10z" fill="#245a81"/></marker></defs>
<text x="25" y="30" class="title">base_post_outer_right</text>
<text x="25" y="56" class="">NOT ACCEPTED — geometry reference only; do not use as a build release.</text>
<text x="25" y="80" class="">Stock allowance (not finished length) × depth × thickness: 238.900 × 139.700 × 38.100 mm; quantity 1.</text>
<text x="25" y="102" class="">Minimum-X side face; full outline. All dimensions in mm. Use dimensions, not image scale.</text>
<polygon points="70.000,270.000 309.413,270.000 309.413,130.000 70.000,130.000" fill="#eee1c7" stroke="#333" stroke-width="1.5"/>
<circle cx="70.0" cy="270.0" r="4" fill="#c33"/>
<text x="76.0" y="292.0" class="small">D: physical corner</text>
<circle cx="140.32283285625766" cy="199.67716714374234" r="5.568181818181818" fill="white" stroke="#245a81" stroke-width="1.2"/>
<line x1="140.32283285625766" y1="199.67716714374234" x2="140.32283285625766" y2="293" stroke="#637785" stroke-width=".6"/>
<text x="143.32283285625766" y="305" class="small">H1</text>
<circle cx="168.31353078010596" cy="171.68646921989404" r="5.568181818181818" fill="white" stroke="#245a81" stroke-width="1.2"/>
<line x1="168.31353078010596" y1="171.68646921989404" x2="168.31353078010596" y2="313" stroke="#637785" stroke-width=".6"/>
<text x="171.31353078010596" y="325" class="small">H2</text>
<path d="M75 395H195M75 395V345" fill="none" stroke="#245a81" stroke-width="1.5" marker-end="url(#arrow)"/>
<path d="M75 395H195" fill="none" stroke="#245a81" stroke-width="1.5" marker-end="url(#arrow)"/>
<text x="205" y="400" class="">+A along grain</text>
<text x="85" y="355" class="">+C across grain</text>
<text x="25" y="425" class="">D world XYZ: 1181.100, -175.700, 0.000 mm. Both ordinates start at D.</text>
<text x="25" y="448" class="">+A world YZ = (0.000000000, 1.000000000); +C = (1.000000000, 0.000000000).</text>
<text x="25" y="483" class="small">ID</text>
<text x="75" y="483" class="small">Connection ID (matches bolt-member-datums.csv)</text>
<text x="575" y="483" class="small">A from D</text>
<text x="705" y="483" class="small">Signed C from D</text>
<text x="875" y="483" class="small">Hole Ø</text>
<text x="25" y="510" class="small">H1</text>
<text x="75" y="510" class="small">rail_front_bolt_right_1</text>
<text x="575" y="510" class="small">70.172</text>
<text x="705" y="510" class="small">70.172</text>
<text x="875" y="510" class="small">11.1125</text>
<text x="25" y="537" class="small">H2</text>
<text x="75" y="537" class="small">rail_front_bolt_right_2</text>
<text x="575" y="537" class="small">98.103</text>
<text x="705" y="537" class="small">98.103</text>
<text x="875" y="537" class="small">11.1125</text>
<text x="25" y="564" class="">Bolt axes normal to this side face. Signed C may be negative; do not mirror the corner convention.</text>
<text x="25" y="588" class="">Actual trimmed raw outline shown. Cut corners: profile-corner-datums.csv. Taper and bores are separate.</text>
<text x="25" y="610" class="">LED passages: timber-passages.json. Panel/SDS screw axes: connection-axes.csv; no pilot size inferred.</text>
<text x="25" y="632" class="">Panel operations: panel-attachment-axes.csv + panel-hole-axes.csv. End details: stock-profiles.json.</text>
<text x="25" y="654" class="">Conditions and installation: ../floor-flush-build-package.md; hardware: bolt-hardware.csv + bolt-hardware.csv.</text>
</svg>
