<svg xmlns="http://www.w3.org/2000/svg" width="1200" height="540" viewBox="0 0 1200 540">
<rect width="1200" height="540" fill="white"/>
<g font-family="sans-serif" fill="#202830">
<text x="24" y="28" font-size="19">base_post_center_right_front</text>
<text x="24" y="51" font-size="13">LOCAL REFERENCE — all raw edges shown; not a cutting template or manufacturing approval</text>
<text x="50" y="80" font-size="15">X / Y</text>
<rect x="50" y="95.0000" width="197.2727" height="310.0000" fill="none" stroke="#8794a0" stroke-dasharray="5 4"/>
<polyline points="50.0000,405.0000 50.0000,405.0000" fill="none" stroke="#253f50" stroke-width="1"/>
<polyline points="50.0000,405.0000 50.0000,95.0000" fill="none" stroke="#253f50" stroke-width="1"/>
<polyline points="50.0000,95.0000 50.0000,95.0000" fill="none" stroke="#253f50" stroke-width="1"/>
<polyline points="50.0000,405.0000 50.0000,95.0000" fill="none" stroke="#253f50" stroke-width="1"/>
<polyline points="247.2727,405.0000 247.2727,405.0000" fill="none" stroke="#253f50" stroke-width="1"/>
<polyline points="247.2727,405.0000 247.2727,95.0000" fill="none" stroke="#253f50" stroke-width="1"/>
<polyline points="247.2727,95.0000 247.2727,95.0000" fill="none" stroke="#253f50" stroke-width="1"/>
<polyline points="247.2727,405.0000 247.2727,95.0000" fill="none" stroke="#253f50" stroke-width="1"/>
<polyline points="50.0000,405.0000 247.2727,405.0000" fill="none" stroke="#253f50" stroke-width="1"/>
<polyline points="50.0000,405.0000 247.2727,405.0000" fill="none" stroke="#253f50" stroke-width="1"/>
<polyline points="50.0000,95.0000 247.2727,95.0000" fill="none" stroke="#253f50" stroke-width="1"/>
<polyline points="50.0000,95.0000 247.2727,95.0000" fill="none" stroke="#253f50" stroke-width="1"/>
<text x="54.0" y="90.0" font-size="9" fill="#315f82">3/4</text>
<text x="251.273" y="400.0" font-size="9" fill="#315f82">5/6</text>
<text x="251.273" y="90.0" font-size="9" fill="#315f82">7/8</text>
<circle cx="50" cy="405" r="3" fill="#cc3030"/>
<text x="56" y="399" font-size="11" fill="#a02020">datum 0</text>
<path d="M50,417 v12 M50,423 h197.2727 M247.2727,417 v12" fill="none" stroke="#202830"/>
<text x="50" y="448" font-size="13">88.900 mm / 3.5000 in</text>
<path d="M34,405 h10 M39,405 v-310.0000 M34,95.0000 h10" fill="none" stroke="#202830"/>
<text x="50" y="470" font-size="13">Vertical: 139.700 mm / 5.5000 in</text>
<text x="450" y="80" font-size="15">X / Z</text>
<rect x="450" y="95.0000" width="147.4532" height="310.0000" fill="none" stroke="#8794a0" stroke-dasharray="5 4"/>
<polyline points="450.0000,405.0000 450.0000,95.0000" fill="none" stroke="#253f50" stroke-width="1"/>
<polyline points="450.0000,95.0000 450.0000,95.0000" fill="none" stroke="#253f50" stroke-width="1"/>
<polyline points="450.0000,405.0000 450.0000,95.0000" fill="none" stroke="#253f50" stroke-width="1"/>
<polyline points="450.0000,405.0000 450.0000,405.0000" fill="none" stroke="#253f50" stroke-width="1"/>
<polyline points="597.4532,405.0000 597.4532,95.0000" fill="none" stroke="#253f50" stroke-width="1"/>
<polyline points="597.4532,95.0000 597.4532,95.0000" fill="none" stroke="#253f50" stroke-width="1"/>
<polyline points="597.4532,405.0000 597.4532,95.0000" fill="none" stroke="#253f50" stroke-width="1"/>
<polyline points="597.4532,405.0000 597.4532,405.0000" fill="none" stroke="#253f50" stroke-width="1"/>
<polyline points="450.0000,405.0000 597.4532,405.0000" fill="none" stroke="#253f50" stroke-width="1"/>
<polyline points="450.0000,95.0000 597.4532,95.0000" fill="none" stroke="#253f50" stroke-width="1"/>
<polyline points="450.0000,405.0000 597.4532,405.0000" fill="none" stroke="#253f50" stroke-width="1"/>
<polyline points="450.0000,95.0000 597.4532,95.0000" fill="none" stroke="#253f50" stroke-width="1"/>
<text x="454.0" y="90.0" font-size="9" fill="#315f82">2/4</text>
<text x="601.453" y="400.0" font-size="9" fill="#315f82">5/7</text>
<text x="601.453" y="90.0" font-size="9" fill="#315f82">6/8</text>
<circle cx="450" cy="405" r="3" fill="#cc3030"/>
<text x="456" y="399" font-size="11" fill="#a02020">datum 0</text>
<path d="M450,417 v12 M450,423 h147.4532 M597.4532,417 v12" fill="none" stroke="#202830"/>
<text x="450" y="448" font-size="13">88.900 mm / 3.5000 in</text>
<path d="M434,405 h10 M439,405 v-310.0000 M434,95.0000 h10" fill="none" stroke="#202830"/>
<text x="450" y="470" font-size="13">Vertical: 186.900 mm / 7.3583 in</text>
<text x="850" y="80" font-size="15">Y / Z</text>
<rect x="850" y="95.0000" width="231.7121" height="310.0000" fill="none" stroke="#8794a0" stroke-dasharray="5 4"/>
<polyline points="850.0000,405.0000 850.0000,95.0000" fill="none" stroke="#253f50" stroke-width="1"/>
<polyline points="850.0000,95.0000 1081.7121,95.0000" fill="none" stroke="#253f50" stroke-width="1"/>
<polyline points="1081.7121,405.0000 1081.7121,95.0000" fill="none" stroke="#253f50" stroke-width="1"/>
<polyline points="850.0000,405.0000 1081.7121,405.0000" fill="none" stroke="#253f50" stroke-width="1"/>
<polyline points="850.0000,405.0000 850.0000,95.0000" fill="none" stroke="#253f50" stroke-width="1"/>
<polyline points="850.0000,95.0000 1081.7121,95.0000" fill="none" stroke="#253f50" stroke-width="1"/>
<polyline points="1081.7121,405.0000 1081.7121,95.0000" fill="none" stroke="#253f50" stroke-width="1"/>
<polyline points="850.0000,405.0000 1081.7121,405.0000" fill="none" stroke="#253f50" stroke-width="1"/>
<polyline points="850.0000,405.0000 850.0000,405.0000" fill="none" stroke="#253f50" stroke-width="1"/>
<polyline points="850.0000,95.0000 850.0000,95.0000" fill="none" stroke="#253f50" stroke-width="1"/>
<polyline points="1081.7121,405.0000 1081.7121,405.0000" fill="none" stroke="#253f50" stroke-width="1"/>
<polyline points="1081.7121,95.0000 1081.7121,95.0000" fill="none" stroke="#253f50" stroke-width="1"/>
<text x="854.0" y="90.0" font-size="9" fill="#315f82">2/6</text>
<text x="1085.712" y="400.0" font-size="9" fill="#315f82">3/7</text>
<text x="1085.712" y="90.0" font-size="9" fill="#315f82">4/8</text>
<circle cx="850" cy="405" r="3" fill="#cc3030"/>
<text x="856" y="399" font-size="11" fill="#a02020">datum 0</text>
<path d="M850,417 v12 M850,423 h231.7121 M1081.7121,417 v12" fill="none" stroke="#202830"/>
<text x="850" y="448" font-size="13">139.700 mm / 5.5000 in</text>
<path d="M834,405 h10 M839,405 v-310.0000 M834,95.0000 h10" fill="none" stroke="#202830"/>
<text x="850" y="470" font-size="13">Vertical: 186.900 mm / 7.3583 in</text>
<text x="24" y="510" font-size="12">Dashed box: raw-form envelope, not blank stock size. Red origin can be virtual. Crowded vertex labels omitted; see vertices.csv.</text>
</g></svg>
