<svg xmlns="http://www.w3.org/2000/svg" width="1000" height="748" viewBox="0 0 1000 748">
<title>base_side_right nominal side-face profile and bolt coordinates</title>
<rect width="100%" height="100%" fill="white"/>
<style>text{font-family:sans-serif;fill:#17202a;font-size:14px}.small{font-size:12px}.title{font-size:21px;font-weight:bold}</style>
<defs><marker id="arrow" viewBox="0 0 10 10" refX="9" refY="5" markerWidth="7" markerHeight="7" orient="auto-start-reverse"><path d="M0 0L10 5L0 10z" fill="#245a81"/></marker></defs>
<text x="25" y="30" class="title">base_side_right</text>
<text x="25" y="56" class="">NOT ACCEPTED — geometry reference only; do not use as a build release.</text>
<text x="25" y="80" class="">Blank length × depth × thickness: 2570.726 × 139.700 × 88.900 mm; quantity 1.</text>
<text x="25" y="102" class="">Minimum-X side face; full outline. All dimensions in mm. Use dimensions, not image scale.</text>
<polygon points="70.000,259.342 82.702,270.000 930.000,270.000 930.000,222.779 100.679,222.779" fill="#eee1c7" stroke="#333" stroke-width="1.5"/>
<circle cx="70.0" cy="259.34155435272913" r="4" fill="#c33"/>
<text x="76.0" y="281.34155435272913" class="small">D: physical corner</text>
<circle cx="731.7026735716331" cy="237.44889272842238" r="2.414693392105265" fill="white" stroke="#245a81" stroke-width="1.2"/>
<line x1="731.7026735716331" y1="237.44889272842238" x2="731.7026735716331" y2="293" stroke="#637785" stroke-width=".6"/>
<text x="734.7026735716331" y="305" class="small">H1</text>
<circle cx="749.3455277533769" cy="244.306757185441" r="2.414693392105265" fill="white" stroke="#245a81" stroke-width="1.2"/>
<line x1="749.3455277533769" y1="244.306757185441" x2="749.3455277533769" y2="313" stroke="#637785" stroke-width=".6"/>
<text x="752.3455277533769" y="325" class="small">H2</text>
<circle cx="570.5550372838902" cy="246.3896646843187" r="1.8780948605263175" fill="white" stroke="#245a81" stroke-width="1.2"/>
<line x1="570.5550372838902" y1="246.3896646843187" x2="570.5550372838902" y2="293" stroke="#637785" stroke-width=".6"/>
<text x="573.5550372838902" y="305" class="small">H3</text>
<circle cx="587.455778435983" cy="246.38966468431863" r="1.8780948605263175" fill="white" stroke="#245a81" stroke-width="1.2"/>
<line x1="587.455778435983" y1="246.38966468431863" x2="587.455778435983" y2="313" stroke="#637785" stroke-width=".6"/>
<text x="590.455778435983" y="325" class="small">H4</text>
<path d="M75 395H195M75 395V345" fill="none" stroke="#245a81" stroke-width="1.5" marker-end="url(#arrow)"/>
<path d="M75 395H195" fill="none" stroke="#245a81" stroke-width="1.5" marker-end="url(#arrow)"/>
<text x="205" y="400" class="">+A along grain</text>
<text x="85" y="355" class="">+C across grain</text>
<text x="25" y="425" class="">D world XYZ: 1130.300, -182.700, 277.000 mm. Both ordinates start at D.</text>
<text x="25" y="448" class="">+A world YZ = (0.642787610, 0.766044443); +C = (0.766044443, -0.642787610).</text>
<text x="25" y="483" class="small">ID</text>
<text x="75" y="483" class="small">Connection ID (matches bolt-member-datums.csv)</text>
<text x="575" y="483" class="small">A from D</text>
<text x="705" y="483" class="small">Signed C from D</text>
<text x="875" y="483" class="small">Hole Ø</text>
<text x="25" y="510" class="small">H1</text>
<text x="75" y="510" class="small">lumber_leg_bolt_right_1</text>
<text x="575" y="510" class="small">1957.614</text>
<text x="705" y="510" class="small">64.768</text>
<text x="875" y="510" class="small">14.2875</text>
<text x="25" y="537" class="small">H2</text>
<text x="75" y="537" class="small">lumber_leg_bolt_right_2</text>
<text x="575" y="537" class="small">2009.810</text>
<text x="705" y="537" class="small">44.480</text>
<text x="875" y="537" class="small">14.2875</text>
<text x="25" y="564" class="small">H3</text>
<text x="75" y="564" class="small">knee_bolt_right_rim_1</text>
<text x="575" y="564" class="small">1480.867</text>
<text x="705" y="564" class="small">38.318</text>
<text x="875" y="564" class="small">11.1125</text>
<text x="25" y="591" class="small">H4</text>
<text x="75" y="591" class="small">knee_bolt_right_rim_2</text>
<text x="575" y="591" class="small">1530.867</text>
<text x="705" y="591" class="small">38.318</text>
<text x="875" y="591" class="small">11.1125</text>
<text x="25" y="618" class="">Bolt axes normal to this side face. Signed C may be negative; do not mirror the corner convention.</text>
<text x="25" y="642" class="">Exact fresh-stock raw outline shown; see profile-corner-datums.csv.</text>
<text x="25" y="664" class="">LED passages: timber-passages.json. Panel/SDS screw axes: connection-axes.csv; no pilot size inferred.</text>
<text x="25" y="686" class="">Panel operations: panel-attachment-axes.csv + panel-hole-axes.csv. End details: stock-profiles.json.</text>
<text x="25" y="708" class="">Conditions and installation: ../compact-spliced-flush-top-build-package.md; hardware: ../bolt-hardware.csv + bolt-hardware.csv.</text>
</svg>
