<svg xmlns="http://www.w3.org/2000/svg" width="1300" height="1500" viewBox="0 0 1300 1500">
<rect width="100%" height="100%" fill="white"/>
<text x="25.0000" y="35.0000" font-family="Arial,sans-serif" font-size="24" font-weight="bold" fill="#223044">Panel front-face machining datums 1/2 | extra grid OFF</text>
<text x="25.0000" y="64.0000" font-family="Arial,sans-serif" font-size="15" font-weight="normal" fill="#223044">Nominal L/U coordinates; V is through thickness. Model circles are occupancy, not selected bits.</text>
<text x="25.0000" y="125.0000" font-family="Arial,sans-serif" font-size="19" font-weight="bold" fill="#223044">kicker_left</text>
<polygon points="55.0000,238.0720 420.2837,238.0720 420.2837,155.0000 55.0000,155.0000" fill="#f5f7fa" stroke="#223044" stroke-width="1"/>
<circle cx="85.0000" cy="177.4720" r="1.6669" fill="white" stroke="#66788a" stroke-width=".8"/>
<circle cx="159.5680" cy="177.4720" r="1.6669" fill="white" stroke="#66788a" stroke-width=".8"/>
<circle cx="234.1360" cy="177.4720" r="1.6669" fill="white" stroke="#66788a" stroke-width=".8"/>
<circle cx="308.7040" cy="177.4720" r="1.6669" fill="white" stroke="#66788a" stroke-width=".8"/>
<circle cx="383.2720" cy="177.4720" r="1.6669" fill="white" stroke="#66788a" stroke-width=".8"/>
<circle cx="60.7150" cy="220.0720" r="0.8000" fill="white" stroke="#9a3140" stroke-width=".8"/>
<circle cx="60.7150" cy="174.4720" r="0.8000" fill="white" stroke="#146dc1" stroke-width=".8"/>
<circle cx="399.7600" cy="220.0720" r="0.8000" fill="white" stroke="#9a3140" stroke-width=".8"/>
<circle cx="399.7600" cy="180.4720" r="0.8000" fill="white" stroke="#9a3140" stroke-width=".8"/>
<circle cx="360.7600" cy="160.6870" r="0.8000" fill="white" stroke="#9a3140" stroke-width=".8"/>
<circle cx="300.7600" cy="160.6870" r="0.8000" fill="white" stroke="#9a3140" stroke-width=".8"/>
<circle cx="240.7600" cy="160.6870" r="0.8000" fill="white" stroke="#9a3140" stroke-width=".8"/>
<circle cx="180.7600" cy="160.6870" r="0.8000" fill="white" stroke="#9a3140" stroke-width=".8"/>
<circle cx="120.7600" cy="160.6870" r="0.8000" fill="white" stroke="#9a3140" stroke-width=".8"/>
<text x="500.0000" y="160.0000" font-family="Arial,sans-serif" font-size="15" font-weight="normal" fill="#223044">Front rectangle: L0 to 1217.612; U0.000 to 276.907 mm</text>
<text x="500.0000" y="190.0000" font-family="Arial,sans-serif" font-size="14" font-weight="normal" fill="#223044">Datum XYZ: -1219.200, -36.000, 0.000 mm</text>
<text x="500.0000" y="220.0000" font-family="Arial,sans-serif" font-size="14" font-weight="normal" fill="#223044">Gray = hold/T-nut; gold = light; red = Hillman; blue = revised Hillman</text>
<text x="500.0000" y="250.0000" font-family="Arial,sans-serif" font-size="14" font-weight="normal" fill="#223044">Coordinates and exact identities: panel-machining.csv. No print-to-size scale.</text>
<text x="500.0000" y="285.0000" font-family="Arial,sans-serif" font-size="13" font-weight="normal" fill="#146dc1">Moved: round_kicker_left_rim_2</text>
<text x="500.0000" y="490.0000" font-family="Arial,sans-serif" font-size="13" font-weight="normal" fill="#223044">Conditional 5-mm screw voids are model envelopes. Use owner lead-pilot policy.</text>
<text x="25.0000" y="580.0000" font-family="Arial,sans-serif" font-size="19" font-weight="bold" fill="#223044">kicker_right</text>
<polygon points="55.0000,693.0720 420.2837,693.0720 420.2837,610.0000 55.0000,610.0000" fill="#f5f7fa" stroke="#223044" stroke-width="1"/>
<circle cx="92.5563" cy="632.4720" r="1.6669" fill="white" stroke="#66788a" stroke-width=".8"/>
<circle cx="167.1243" cy="632.4720" r="1.6669" fill="white" stroke="#66788a" stroke-width=".8"/>
<circle cx="241.6923" cy="632.4720" r="1.6669" fill="white" stroke="#66788a" stroke-width=".8"/>
<circle cx="316.2602" cy="632.4720" r="1.6669" fill="white" stroke="#66788a" stroke-width=".8"/>
<circle cx="390.8282" cy="632.4720" r="1.6669" fill="white" stroke="#66788a" stroke-width=".8"/>
<circle cx="414.5687" cy="675.0720" r="0.8000" fill="white" stroke="#9a3140" stroke-width=".8"/>
<circle cx="414.5687" cy="629.4720" r="0.8000" fill="white" stroke="#146dc1" stroke-width=".8"/>
<circle cx="64.7163" cy="675.0720" r="0.8000" fill="white" stroke="#146dc1" stroke-width=".8"/>
<circle cx="64.7163" cy="635.4720" r="0.8000" fill="white" stroke="#146dc1" stroke-width=".8"/>
<circle cx="115.4762" cy="615.6870" r="0.8000" fill="white" stroke="#9a3140" stroke-width=".8"/>
<circle cx="175.4762" cy="615.6870" r="0.8000" fill="white" stroke="#9a3140" stroke-width=".8"/>
<circle cx="235.4762" cy="615.6870" r="0.8000" fill="white" stroke="#9a3140" stroke-width=".8"/>
<circle cx="295.4762" cy="615.6870" r="0.8000" fill="white" stroke="#9a3140" stroke-width=".8"/>
<circle cx="355.4762" cy="615.6870" r="0.8000" fill="white" stroke="#9a3140" stroke-width=".8"/>
<text x="500.0000" y="615.0000" font-family="Arial,sans-serif" font-size="15" font-weight="normal" fill="#223044">Front rectangle: L0 to 1217.612; U0.000 to 276.907 mm</text>
<text x="500.0000" y="645.0000" font-family="Arial,sans-serif" font-size="14" font-weight="normal" fill="#223044">Datum XYZ: -1.587, -36.000, 0.000 mm</text>
<text x="500.0000" y="675.0000" font-family="Arial,sans-serif" font-size="14" font-weight="normal" fill="#223044">Gray = hold/T-nut; gold = light; red = Hillman; blue = revised Hillman</text>
<text x="500.0000" y="705.0000" font-family="Arial,sans-serif" font-size="14" font-weight="normal" fill="#223044">Coordinates and exact identities: panel-machining.csv. No print-to-size scale.</text>
<text x="500.0000" y="740.0000" font-family="Arial,sans-serif" font-size="13" font-weight="normal" fill="#146dc1">Moved: round_kicker_right_rim_2</text>
<text x="500.0000" y="764.0000" font-family="Arial,sans-serif" font-size="13" font-weight="normal" fill="#146dc1">Moved: round_kicker_right_center_1</text>
<text x="500.0000" y="788.0000" font-family="Arial,sans-serif" font-size="13" font-weight="normal" fill="#146dc1">Moved: round_kicker_right_center_2</text>
<text x="500.0000" y="945.0000" font-family="Arial,sans-serif" font-size="13" font-weight="normal" fill="#223044">Conditional 5-mm screw voids are model envelopes. Use owner lead-pilot policy.</text>
<text x="25.0000" y="1035.0000" font-family="Arial,sans-serif" font-size="19" font-weight="bold" fill="#223044">main_lower_left</text>
<polygon points="55.0000,1430.7600 420.2837,1430.7600 420.2837,1065.0000 55.0000,1065.0000" fill="#f5f7fa" stroke="#223044" stroke-width="1"/>
<circle cx="115.0000" cy="1401.0000" r="1.6669" fill="white" stroke="#66788a" stroke-width=".8"/>
<circle cx="115.0000" cy="1341.0000" r="1.6669" fill="white" stroke="#66788a" stroke-width=".8"/>
<circle cx="115.0000" cy="1281.0000" r="1.6669" fill="white" stroke="#66788a" stroke-width=".8"/>
<circle cx="115.0000" cy="1221.0000" r="1.6669" fill="white" stroke="#66788a" stroke-width=".8"/>
<circle cx="115.0000" cy="1161.0000" r="1.6669" fill="white" stroke="#66788a" stroke-width=".8"/>
<circle cx="115.0000" cy="1101.0000" r="1.6669" fill="white" stroke="#66788a" stroke-width=".8"/>
<circle cx="175.0000" cy="1401.0000" r="1.6669" fill="white" stroke="#66788a" stroke-width=".8"/>
<circle cx="175.0000" cy="1341.0000" r="1.6669" fill="white" stroke="#66788a" stroke-width=".8"/>
<circle cx="175.0000" cy="1281.0000" r="1.6669" fill="white" stroke="#66788a" stroke-width=".8"/>
<circle cx="175.0000" cy="1221.0000" r="1.6669" fill="white" stroke="#66788a" stroke-width=".8"/>
<circle cx="175.0000" cy="1161.0000" r="1.6669" fill="white" stroke="#66788a" stroke-width=".8"/>
<circle cx="175.0000" cy="1101.0000" r="1.6669" fill="white" stroke="#66788a" stroke-width=".8"/>
<circle cx="235.0000" cy="1401.0000" r="1.6669" fill="white" stroke="#66788a" stroke-width=".8"/>
<circle cx="235.0000" cy="1341.0000" r="1.6669" fill="white" stroke="#66788a" stroke-width=".8"/>
<circle cx="235.0000" cy="1281.0000" r="1.6669" fill="white" stroke="#66788a" stroke-width=".8"/>
<circle cx="235.0000" cy="1221.0000" r="1.6669" fill="white" stroke="#66788a" stroke-width=".8"/>
<circle cx="235.0000" cy="1161.0000" r="1.6669" fill="white" stroke="#66788a" stroke-width=".8"/>
<circle cx="235.0000" cy="1101.0000" r="1.6669" fill="white" stroke="#66788a" stroke-width=".8"/>
<circle cx="295.0000" cy="1401.0000" r="1.6669" fill="white" stroke="#66788a" stroke-width=".8"/>
<circle cx="295.0000" cy="1341.0000" r="1.6669" fill="white" stroke="#66788a" stroke-width=".8"/>
<circle cx="295.0000" cy="1281.0000" r="1.6669" fill="white" stroke="#66788a" stroke-width=".8"/>
<circle cx="295.0000" cy="1221.0000" r="1.6669" fill="white" stroke="#66788a" stroke-width=".8"/>
<circle cx="295.0000" cy="1161.0000" r="1.6669" fill="white" stroke="#66788a" stroke-width=".8"/>
<circle cx="295.0000" cy="1101.0000" r="1.6669" fill="white" stroke="#66788a" stroke-width=".8"/>
<circle cx="355.0000" cy="1401.0000" r="1.6669" fill="white" stroke="#66788a" stroke-width=".8"/>
<circle cx="355.0000" cy="1341.0000" r="1.6669" fill="white" stroke="#66788a" stroke-width=".8"/>
<circle cx="355.0000" cy="1281.0000" r="1.6669" fill="white" stroke="#66788a" stroke-width=".8"/>
<circle cx="355.0000" cy="1221.0000" r="1.6669" fill="white" stroke="#66788a" stroke-width=".8"/>
<circle cx="355.0000" cy="1161.0000" r="1.6669" fill="white" stroke="#66788a" stroke-width=".8"/>
<circle cx="355.0000" cy="1101.0000" r="1.6669" fill="white" stroke="#66788a" stroke-width=".8"/>
<circle cx="415.0000" cy="1401.0000" r="1.6669" fill="white" stroke="#66788a" stroke-width=".8"/>
<circle cx="415.0000" cy="1341.0000" r="1.6669" fill="white" stroke="#66788a" stroke-width=".8"/>
<circle cx="415.0000" cy="1281.0000" r="1.6669" fill="white" stroke="#66788a" stroke-width=".8"/>
<circle cx="415.0000" cy="1221.0000" r="1.6669" fill="white" stroke="#66788a" stroke-width=".8"/>
<circle cx="415.0000" cy="1161.0000" r="1.6669" fill="white" stroke="#66788a" stroke-width=".8"/>
<circle cx="415.0000" cy="1101.0000" r="1.6669" fill="white" stroke="#66788a" stroke-width=".8"/>
<circle cx="115.0000" cy="1425.0000" r="1.9500" fill="white" stroke="#bd8b0c" stroke-width=".8"/>
<circle cx="115.0000" cy="1371.0000" r="1.9500" fill="white" stroke="#bd8b0c" stroke-width=".8"/>
<circle cx="115.0000" cy="1311.0000" r="1.9500" fill="white" stroke="#bd8b0c" stroke-width=".8"/>
<circle cx="115.0000" cy="1251.0000" r="1.9500" fill="white" stroke="#bd8b0c" stroke-width=".8"/>
<circle cx="115.0000" cy="1191.0000" r="1.9500" fill="white" stroke="#bd8b0c" stroke-width=".8"/>
<circle cx="115.0000" cy="1131.0000" r="1.9500" fill="white" stroke="#bd8b0c" stroke-width=".8"/>
<circle cx="115.0000" cy="1071.0000" r="1.9500" fill="white" stroke="#bd8b0c" stroke-width=".8"/>
<circle cx="175.0000" cy="1425.0000" r="1.9500" fill="white" stroke="#bd8b0c" stroke-width=".8"/>
<circle cx="175.0000" cy="1371.0000" r="1.9500" fill="white" stroke="#bd8b0c" stroke-width=".8"/>
<circle cx="175.0000" cy="1311.0000" r="1.9500" fill="white" stroke="#bd8b0c" stroke-width=".8"/>
<circle cx="175.0000" cy="1251.0000" r="1.9500" fill="white" stroke="#bd8b0c" stroke-width=".8"/>
<circle cx="175.0000" cy="1191.0000" r="1.9500" fill="white" stroke="#bd8b0c" stroke-width=".8"/>
<circle cx="175.0000" cy="1131.0000" r="1.9500" fill="white" stroke="#bd8b0c" stroke-width=".8"/>
<circle cx="175.0000" cy="1071.0000" r="1.9500" fill="white" stroke="#bd8b0c" stroke-width=".8"/>
<circle cx="235.0000" cy="1425.0000" r="1.9500" fill="white" stroke="#bd8b0c" stroke-width=".8"/>
<circle cx="235.0000" cy="1371.0000" r="1.9500" fill="white" stroke="#bd8b0c" stroke-width=".8"/>
<circle cx="235.0000" cy="1311.0000" r="1.9500" fill="white" stroke="#bd8b0c" stroke-width=".8"/>
<circle cx="235.0000" cy="1251.0000" r="1.9500" fill="white" stroke="#bd8b0c" stroke-width=".8"/>
<circle cx="235.0000" cy="1191.0000" r="1.9500" fill="white" stroke="#bd8b0c" stroke-width=".8"/>
<circle cx="235.0000" cy="1131.0000" r="1.9500" fill="white" stroke="#bd8b0c" stroke-width=".8"/>
<circle cx="235.0000" cy="1071.0000" r="1.9500" fill="white" stroke="#bd8b0c" stroke-width=".8"/>
<circle cx="295.0000" cy="1425.0000" r="1.9500" fill="white" stroke="#bd8b0c" stroke-width=".8"/>
<circle cx="295.0000" cy="1371.0000" r="1.9500" fill="white" stroke="#bd8b0c" stroke-width=".8"/>
<circle cx="295.0000" cy="1311.0000" r="1.9500" fill="white" stroke="#bd8b0c" stroke-width=".8"/>
<circle cx="295.0000" cy="1251.0000" r="1.9500" fill="white" stroke="#bd8b0c" stroke-width=".8"/>
<circle cx="295.0000" cy="1191.0000" r="1.9500" fill="white" stroke="#bd8b0c" stroke-width=".8"/>
<circle cx="295.0000" cy="1131.0000" r="1.9500" fill="white" stroke="#bd8b0c" stroke-width=".8"/>
<circle cx="295.0000" cy="1071.0000" r="1.9500" fill="white" stroke="#bd8b0c" stroke-width=".8"/>
<circle cx="355.0000" cy="1425.0000" r="1.9500" fill="white" stroke="#bd8b0c" stroke-width=".8"/>
<circle cx="355.0000" cy="1371.0000" r="1.9500" fill="white" stroke="#bd8b0c" stroke-width=".8"/>
<circle cx="355.0000" cy="1311.0000" r="1.9500" fill="white" stroke="#bd8b0c" stroke-width=".8"/>
<circle cx="355.0000" cy="1251.0000" r="1.9500" fill="white" stroke="#bd8b0c" stroke-width=".8"/>
<circle cx="355.0000" cy="1191.0000" r="1.9500" fill="white" stroke="#bd8b0c" stroke-width=".8"/>
<circle cx="355.0000" cy="1131.0000" r="1.9500" fill="white" stroke="#bd8b0c" stroke-width=".8"/>
<circle cx="355.0000" cy="1071.0000" r="1.9500" fill="white" stroke="#bd8b0c" stroke-width=".8"/>
<circle cx="415.0000" cy="1425.0000" r="1.9500" fill="white" stroke="#bd8b0c" stroke-width=".8"/>
<circle cx="415.0000" cy="1371.0000" r="1.9500" fill="white" stroke="#bd8b0c" stroke-width=".8"/>
<circle cx="415.0000" cy="1311.0000" r="1.9500" fill="white" stroke="#bd8b0c" stroke-width=".8"/>
<circle cx="415.0000" cy="1251.0000" r="1.9500" fill="white" stroke="#bd8b0c" stroke-width=".8"/>
<circle cx="415.0000" cy="1191.0000" r="1.9500" fill="white" stroke="#bd8b0c" stroke-width=".8"/>
<circle cx="415.0000" cy="1131.0000" r="1.9500" fill="white" stroke="#bd8b0c" stroke-width=".8"/>
<circle cx="415.0000" cy="1071.0000" r="1.9500" fill="white" stroke="#bd8b0c" stroke-width=".8"/>
<circle cx="60.7150" cy="1413.0450" r="0.8000" fill="white" stroke="#9a3140" stroke-width=".8"/>
<circle cx="60.7150" cy="1305.5300" r="0.8000" fill="white" stroke="#9a3140" stroke-width=".8"/>
<circle cx="60.7150" cy="1198.0150" r="0.8000" fill="white" stroke="#9a3140" stroke-width=".8"/>
<circle cx="60.7150" cy="1090.5000" r="0.8000" fill="white" stroke="#9a3140" stroke-width=".8"/>
<circle cx="399.7600" cy="1413.0450" r="0.8000" fill="white" stroke="#9a3140" stroke-width=".8"/>
<circle cx="399.7600" cy="1305.5300" r="0.8000" fill="white" stroke="#9a3140" stroke-width=".8"/>
<circle cx="399.7600" cy="1198.0150" r="0.8000" fill="white" stroke="#9a3140" stroke-width=".8"/>
<circle cx="399.7600" cy="1090.5000" r="0.8000" fill="white" stroke="#9a3140" stroke-width=".8"/>
<circle cx="290.2375" cy="1388.6175" r="0.8000" fill="white" stroke="#9a3140" stroke-width=".8"/>
<circle cx="170.2375" cy="1388.6175" r="0.8000" fill="white" stroke="#9a3140" stroke-width=".8"/>
<circle cx="290.2375" cy="1090.5000" r="0.8000" fill="white" stroke="#9a3140" stroke-width=".8"/>
<circle cx="170.2375" cy="1090.5000" r="0.8000" fill="white" stroke="#9a3140" stroke-width=".8"/>
<text x="500.0000" y="1070.0000" font-family="Arial,sans-serif" font-size="15" font-weight="normal" fill="#223044">Front rectangle: L0 to 1217.612; U0.000 to 1219.200 mm</text>
<text x="500.0000" y="1100.0000" font-family="Arial,sans-serif" font-size="14" font-weight="normal" fill="#223044">Datum XYZ: -1219.200, -31.789, 288.570 mm</text>
<text x="500.0000" y="1130.0000" font-family="Arial,sans-serif" font-size="14" font-weight="normal" fill="#223044">Gray = hold/T-nut; gold = light; red = Hillman; blue = revised Hillman</text>
<text x="500.0000" y="1160.0000" font-family="Arial,sans-serif" font-size="14" font-weight="normal" fill="#223044">Coordinates and exact identities: panel-machining.csv. No print-to-size scale.</text>
<text x="500.0000" y="1400.0000" font-family="Arial,sans-serif" font-size="13" font-weight="normal" fill="#223044">Conditional 5-mm screw voids are model envelopes. Use owner lead-pilot policy.</text>
<text x="25.0000" y="1480.0000" font-family="Arial,sans-serif" font-size="14" font-weight="normal" fill="#223044">142 T-nuts, 132 original lights and 66 Hillman axes overall. Actual panel dimensions remain unobserved.</text>
</svg>
