DBRep_DrawableShape

CASCADE Topology V3, (c) Open Cascade
Locations 0
Curve2ds 11
1 0 3.6055512754639891 1 0 
2 0 0 1 0 -0 1 2.5000000000000004
8 0 6.2831853071795862
1 0 0 1 0 
1 6.2831853071795862 -0 0 1 
1 0 -0 0 1 
1 0 0 1 0 
2 0 0 1 0 -0 1 4.5
1 0 60.5 1 0 
2 0 0 1 0 -0 1 2.5
1 6.2831853071795862 -0 0 1 
1 0 -0 0 1 
Curves 5
2 -1200.1500000000001 -20.743749999999999 212 0 -1 0 0 -0 -1 1 0 0 2.5000000000000004
1 -1200.1500000000001 -17.743750000000006 207.5 1.3586236395872709e-16 -0.83205029433784372 0.55470019622522904 
2 -1200.1500000000001 -17.743749999999999 212 0 -1 0 0 -0 -1 1 0 0 4.5
2 -1200.1500000000001 -81.243750000000006 212 0 -1 0 0 -0 -1 1 0 0 2.5
1 -1200.1500000000001 -20.743749999999999 209.5 0 -1 0 
Polygon3D 0
PolygonOnTriangulations 0
Surfaces 5
3 -1200.1500000000001 -17.743749999999999 212 0 -1 0 0 -0 -1 1 0 0 4.5
-0.5880026035475675
1 -1200.1500000000001 -20.743749999999999 212 0 -1 0 0 -0 -1 1 0 0 
2 -1200.1500000000001 -20.743749999999999 212 0 -1 0 0 -0 -1 1 0 0 2.5
1 -1200.1500000000001 -17.743749999999999 212 0 -1 0 0 -0 -1 1 0 0 
1 -1200.1500000000001 -81.243750000000006 212 0 -1 0 0 -0 -1 1 0 0 
Triangulations 0

TShapes 19
Ve
1e-07
-1200.15 -20.74375 209.5
0 0

0101101
*
Ed
 1e-07 1 1 0
1  1 0 0 6.28318530717959
2  1 1 0 0 6.28318530717959
2  2 2 0 0 6.28318530717959
2  3 3 0 0 6.28318530717959
0

0101000
+19 0 -19 0 *
Ve
1e-07
-1200.15 -17.74375 207.5
0 0

0101101
*
Ed
 1e-07 1 1 0
1  2 0 0 3.60555127546399
3  4 5CN 1 0 0 3.60555127546399
0

0101000
+17 0 -19 0 *
Ed
 1e-07 1 1 0
1  3 0 0 6.28318530717959
2  6 1 0 0 6.28318530717959
2  7 4 0 0 6.28318530717959
0

0101000
+17 0 -17 0 *
Wi

0101100
-18 0 +16 0 +15 0 -16 0 *
Fa
0  1e-07 1 0

0101000
+14 0 *
Ve
1e-07
-1200.15 -81.24375 209.5
0 0

0101101
*
Ed
 1e-07 1 1 0
1  4 0 0 6.28318530717959
2  8 3 0 0 6.28318530717959
2  9 5 0 0 6.28318530717959
0

0101000
+12 0 -12 0 *
Ed
 1e-07 1 1 0
1  5 0 0 60.5
3  10 11CN 3 0 0 60.5
0

0101000
+19 0 -12 0 *
Wi

0101100
-11 0 +10 0 +18 0 -10 0 *
Fa
0  1e-07 3 0

0101000
+9 0 *
Wi

0101100
-15 0 *
Fa
0  1e-07 4 0

0111000
-7 0 *
Wi

0101100
+11 0 *
Fa
0  1e-07 5 0

0111000
+5 0 *
Sh

0101100
+13 0 +8 0 -6 0 +4 0 *
So

0100000
+3 0 *
Co

1100000
+2 0 *

+1 0 