DBRep_DrawableShape

CASCADE Topology V3, (c) Open Cascade
Locations 5
1
              1               0               0         -1119.2 
              0               0               1             -36 
              0              -1               0             202 
1
              1               0               0         -870.64 
              0               0               1             -36 
              0              -1               0             202 
1
              1               0               0         -622.08 
              0               0               1             -36 
              0              -1               0             202 
1
              1               0               0         -373.52 
              0               0               1             -36 
              0              -1               0             202 
1
              1               0               0         -124.96 
              0               0               1             -36 
              0              -1               0             202 
Curve2ds 217
1 277 0 0 -1 
1 0 0 0 1 
1 0 0 0 -1 
1 0 0 0 -1 
1 276.83528567501793 -18.196298888549222 0.64278760968653936 0.76604444311897812 
1 0 0 1 0 
1 0 0 1 0 
1 276.83528567501793 -18.196298888549222 0.76604444311897812 -0.64278760968653936 
1 0 -18.256250000000037 1 0 
1 0 0 1 0 
1 0 0 1 0 
1 0 0 0 -1 
1 0 0 0 1 
1 0 0 1 0 
1 0 0 1 0 
1 0 0 1 0 
8 -1217.6125 0
1 0 18.000000000000099 -1 0 
8 -1217.6125 0
1 0 -0.25624999999984471 -1 -0 
1 277 0 0 -1 
1 1217.6125 0 0 1 
1 277 0 0 1 
1 0 0 1 0 
1 277 0 0 1 
1 0 0 0 1 
1 0 0 1 0 
1 1219.2000000000003 0 0 -1 
1 1217.6125 0 0 -1 
1 276.83528567501793 -18.196298888549222 0.64278760968653936 0.76604444311897812 
8 -1224.3991401616352 -5.1991401616350226
1 -5.1991401616350226 1217.6125 -1 0 
1 1224.3991401616354 1.1368683772161603e-13 1 0 
1 272.85251324520073 -14.854356011626546 -0.76604444311897812 0.64278760968653936 
8 -1217.6125 0
1 276.90673262746952 0 0 -1 
8 -1217.6125 0
1 0.093267372530850545 0 0 -1 
1 276.90673262746952 0 0 -1 
1 0 -18.256250000000037 1 0 
1 0 1217.6125 1 0 
1 0 1217.6125 1 0 
1 0 0 0 1 
1 0 18.256250000000037 1 0 
1 0 0 0 1 
1 0 0 1 0 
2 0 0 1 0 -0 1 4.5
2 60 19.049999999999955 -1 0 0 1 4.5
2 60 19.049999999999955 -1 0 0 1 4.5
2 202 100 -1 0 0 1 5.5562500000000004
1 0 0.99999999999996092 1 0 
2 202 100 -1 0 0 1 5.5562500000000057
1 0 0 1 0 
2 0 0 1 0 -0 1 4.5
2 212 19.049999999999955 -1 0 0 1 4.5
1 0 0 1 0 
2 0 0 1 0 -0 1 4.5
2 257.94999999999999 219.20000000000005 -1 0 0 1 4.5
2 257.94999999999999 219.20000000000005 -1 0 0 1 4.5
2 202 348.55999999999995 -1 0 0 1 5.5562500000000004
1 0 0.99999999999996092 1 0 
2 202 348.55999999999995 -1 0 0 1 5.5562500000000057
1 0 0 1 0 
2 0 0 1 0 -0 1 4.5
2 257.94999999999999 419.20000000000005 -1 0 0 1 4.5
2 257.94999999999999 419.20000000000005 -1 0 0 1 4.5
1 0 0 1 0 
2 0 0 1 0 -0 1 4.5
2 60 1149.2 -1 0 0 1 4.5
2 60 1149.2 -1 0 0 1 4.5
2 202 597.12 -1 0 0 1 5.5562500000000004
1 0 0.99999999999996092 1 0 
2 202 597.12 -1 0 0 1 5.5562500000000057
2 202 845.68000000000006 -1 0 0 1 5.5562500000000004
1 0 0.99999999999996092 1 0 
2 202 845.68000000000006 -1 0 0 1 5.5562500000000057
1 0 0 1 0 
2 0 0 1 0 -0 1 4.5
2 257.94999999999999 619.20000000000005 -1 0 0 1 4.5
2 257.94999999999999 619.20000000000005 -1 0 0 1 4.5
1 0 0 1 0 
2 0 0 1 0 -0 1 4.5
2 257.94999999999999 819.20000000000005 -1 0 0 1 4.5
2 257.94999999999999 819.20000000000005 -1 0 0 1 4.5
1 0 0 1 0 
2 0 0 1 0 -0 1 4.5
2 192 1149.2 -1 0 0 1 4.5
2 192 1149.2 -1 0 0 1 4.5
2 202 1094.24 -1 0 0 1 5.5562500000000004
1 0 0.99999999999996092 1 0 
2 202 1094.24 -1 0 0 1 5.5562500000000057
1 0 0 1 0 
2 0 0 1 0 -0 1 4.5
2 257.94999999999999 1019.2 -1 0 0 1 4.5
2 257.94999999999999 1019.2 -1 0 0 1 4.5
1 0 0 0 -1 
1 1217.6125 0 0 1 
1 0 0 0 1 
1 0 0 1 0 
1 0 0 0 1 
1 0 0 1 0 
1 0 1217.6125 1 0 
1 0 1217.6125 1 0 
2 60 19.049999999999955 -1 0 0 1 2.5
1 0 19.256250000000001 1 0 
2 60 19.049999999999955 -1 0 0 1 2.5
2 202 100 -1 0 0 1 5.5562500000000004
1 0 19.256249999999998 1 0 
2 0 0 0 1 1 -0 5.5562500000000004
2 202 100 -1 0 0 1 5.5562500000000057
2 212 19.049999999999955 -1 0 0 1 2.5
1 0 19.256250000000001 1 0 
1 0 19.256250000000001 1 0 
2 257.94999999999999 219.20000000000005 -1 0 0 1 2.5
1 0 19.256250000000001 1 0 
2 257.94999999999999 219.20000000000005 -1 0 0 1 2.5
2 202 348.55999999999995 -1 0 0 1 5.5562500000000004
1 0 19.256249999999998 1 0 
2 0 0 0 1 1 -0 5.5562500000000004
2 202 348.55999999999995 -1 0 0 1 5.5562500000000057
2 257.94999999999999 419.20000000000005 -1 0 0 1 2.5
1 0 19.256250000000001 1 0 
2 257.94999999999999 419.20000000000005 -1 0 0 1 2.5
2 60 1149.2 -1 0 0 1 2.5
1 0 19.256250000000001 1 0 
2 60 1149.2 -1 0 0 1 2.5
2 202 597.12 -1 0 0 1 5.5562500000000004
1 0 19.256249999999998 1 0 
2 0 0 0 1 1 -0 5.5562500000000004
2 202 597.12 -1 0 0 1 5.5562500000000057
2 202 845.68000000000006 -1 0 0 1 5.5562500000000004
1 0 19.256249999999998 1 0 
2 0 0 0 1 1 -0 5.5562500000000004
2 202 845.68000000000006 -1 0 0 1 5.5562500000000057
2 257.94999999999999 619.20000000000005 -1 0 0 1 2.5
1 0 19.256250000000001 1 0 
2 257.94999999999999 619.20000000000005 -1 0 0 1 2.5
2 257.94999999999999 819.20000000000005 -1 0 0 1 2.5
1 0 19.256250000000001 1 0 
2 257.94999999999999 819.20000000000005 -1 0 0 1 2.5
2 192 1149.2 -1 0 0 1 2.5
1 0 19.256250000000001 1 0 
2 192 1149.2 -1 0 0 1 2.5
2 202 1094.24 -1 0 0 1 5.5562500000000004
1 0 19.256249999999998 1 0 
2 0 0 0 1 1 -0 5.5562500000000004
2 202 1094.24 -1 0 0 1 5.5562500000000057
2 257.94999999999999 1019.2 -1 0 0 1 2.5
1 0 19.256250000000001 1 0 
2 257.94999999999999 1019.2 -1 0 0 1 2.5
1 0 3.6055512754639891 1 0 
2 0 0 1 0 -0 1 2.5000000000000004
1 0 4 1 0 
1 6.2831853071795862 -0 0 1 
1 0 -0 0 1 
1 6.2831853071795862 -0 0 1 
1 0 -0 0 1 
1 0 4 1 0 
1 0 3.6055512754639891 1 0 
1 6.2831853071795862 -0 0 1 
1 0 -0 0 1 
1 0 3.6055512754639891 1 0 
2 0 0 1 0 -0 1 2.5000000000000004
1 0 4 1 0 
1 6.2831853071795862 -0 0 1 
1 0 -0 0 1 
1 6.2831853071795862 -0 0 1 
1 0 -0 0 1 
1 0 3.6055512754639891 1 0 
2 0 0 1 0 -0 1 2.5000000000000004
1 0 4 1 0 
1 6.2831853071795862 -0 0 1 
1 0 -0 0 1 
1 0 3.6055512754639891 1 0 
2 0 0 1 0 -0 1 2.5000000000000004
1 0 4 1 0 
1 6.2831853071795862 -0 0 1 
1 0 -0 0 1 
1 6.2831853071795862 -0 0 1 
1 0 -0 0 1 
1 6.2831853071795862 -0 0 1 
1 0 -0 0 1 
1 0 3.6055512754639891 1 0 
2 0 0 1 0 -0 1 2.5000000000000004
1 0 4 1 0 
1 6.2831853071795862 -0 0 1 
1 0 -0 0 1 
1 0 3.6055512754639891 1 0 
2 0 0 1 0 -0 1 2.5000000000000004
1 0 4 1 0 
1 6.2831853071795862 -0 0 1 
1 0 -0 0 1 
1 0 3.6055512754639891 1 0 
2 0 0 1 0 -0 1 2.5000000000000004
1 0 4 1 0 
1 6.2831853071795862 -0 0 1 
1 0 -0 0 1 
1 6.2831853071795862 -0 0 1 
1 0 -0 0 1 
1 0 3.6055512754639891 1 0 
2 0 0 1 0 -0 1 2.5000000000000004
1 0 4 1 0 
1 6.2831853071795862 -0 0 1 
1 0 -0 0 1 
1 6.2831853071795862 -0 0 1 
1 0 -0 0 1 
1 6.2831853071795862 -0 0 1 
1 0 -0 0 1 
1 6.2831853071795862 -0 0 1 
1 0 -0 0 1 
1 6.2831853071795862 -0 0 1 
1 0 -0 0 1 
1 6.2831853071795862 -0 0 1 
1 0 -0 0 1 
1 6.2831853071795862 -0 0 1 
1 0 -0 0 1 
1 6.2831853071795862 -0 0 1 
1 0 -0 0 1 
1 6.2831853071795862 -0 0 1 
1 0 -0 0 1 
1 6.2831853071795862 -0 0 1 
1 0 -0 0 1 
Curves 78
1 -1219.2 -36 277 -0 1 0 
1 -1219.2 -17.803701111450778 276.83528567501793 0 -0.76604444311897812 0.64278760968653936 
1 -1219.2 -17.803701111450778 276.83528567501793 0 0.64278760968653936 0.76604444311897812 
1 -1219.2 -17.743749999999963 0 0 0 1 
1 -1219.2 -36 0 -0 1 0 
1 -1219.2 -36 0 0 0 1 
1 -1219.2 -17.999999999999901 277 -1 -0 0 
1 -1.5875000000000909 -36 277 -0 1 0 
1 -1219.2 -36 277 1 0 -0 
1 -1219.2 -17.803701111450778 276.83528567501793 1 0 0 
1 -1.5875000000000909 -17.803701111450778 276.83528567501793 0 -0.76604444311897812 0.64278760968653936 
1 -1.5875000000000454 -21.145643988373454 272.85251324520073 0 -0.64278760968653936 -0.76604444311897812 
1 -1219.2 -17.743749999999963 276.90673262746952 -1 0 -0 
1 -1.5875000000000909 -17.743749999999963 0 0 0 1 
1 -1219.2 -17.743749999999963 0 1 0 -0 
2 -1200.1500000000001 -17.743749999999999 60 0 -1 0 0 -0 -1 1 0 0 4.5
2 -1119.2 -17.743749999999963 202 0 -1 -0 0 0 -1 1 0 0 5.5562500000000004
2 -1200.1500000000001 -17.743749999999999 212 0 -1 0 0 -0 -1 1 0 0 4.5
2 -1000 -17.743749999999999 257.94999999999999 0 -1 0 0 -0 -1 1 0 0 4.5
2 -870.6400000000001 -17.743749999999963 202 0 -1 -0 0 0 -1 1 0 0 5.5562500000000004
2 -800 -17.743749999999999 257.94999999999999 0 -1 0 0 -0 -1 1 0 0 4.5
2 -70 -17.743749999999999 60 0 -1 0 0 -0 -1 1 0 0 4.5
2 -622.08000000000004 -17.743749999999963 202 0 -1 -0 0 0 -1 1 0 0 5.5562500000000004
2 -373.51999999999998 -17.743749999999963 202 0 -1 -0 0 0 -1 1 0 0 5.5562500000000004
2 -600 -17.743749999999999 257.94999999999999 0 -1 0 0 -0 -1 1 0 0 4.5
2 -400 -17.743749999999999 257.94999999999999 0 -1 0 0 -0 -1 1 0 0 4.5
2 -70 -17.743749999999999 192 0 -1 0 0 -0 -1 1 0 0 4.5
2 -124.96000000000004 -17.743749999999963 202 0 -1 -0 0 0 -1 1 0 0 5.5562500000000004
2 -200 -17.743749999999999 257.94999999999999 0 -1 0 0 -0 -1 1 0 0 4.5
1 -1.5875000000000909 -36 0 -0 1 0 
1 -1219.2 -36 0 1 0 -0 
1 -1.5875000000000909 -36 0 0 0 1 
2 -1200.1500000000001 -36 60 0 -1 0 0 -0 -1 1 0 0 2.5
2 -1119.2 -36 202 0 -1 -0 0 0 -1 1 0 0 5.5562500000000004
2 -1200.1500000000001 -36 212 0 -1 0 0 -0 -1 1 0 0 2.5
2 -1000 -36 257.94999999999999 0 -1 0 0 -0 -1 1 0 0 2.5
2 -870.6400000000001 -36 202 0 -1 -0 0 0 -1 1 0 0 5.5562500000000004
2 -800 -36 257.94999999999999 0 -1 0 0 -0 -1 1 0 0 2.5
2 -70 -36 60 0 -1 0 0 -0 -1 1 0 0 2.5
2 -622.08000000000004 -36 202 0 -1 -0 0 0 -1 1 0 0 5.5562500000000004
2 -373.51999999999998 -36 202 0 -1 -0 0 0 -1 1 0 0 5.5562500000000004
2 -600 -36 257.94999999999999 0 -1 0 0 -0 -1 1 0 0 2.5
2 -400 -36 257.94999999999999 0 -1 0 0 -0 -1 1 0 0 2.5
2 -70 -36 192 0 -1 0 0 -0 -1 1 0 0 2.5
2 -124.96000000000004 -36 202 0 -1 -0 0 0 -1 1 0 0 5.5562500000000004
2 -200 -36 257.94999999999999 0 -1 0 0 -0 -1 1 0 0 2.5
2 -1200.1500000000001 -20.743749999999999 60 0 -1 0 0 -0 -1 1 0 0 2.5000000000000004
1 -1200.1500000000001 -17.743749999999999 55.5 1.3586236395872709e-16 -0.83205029433784372 0.55470019622522904 
1 -1119.2 -16.743750000000002 196.44374999999999 -0 -1 0 
2 -1200.1500000000001 -20.743749999999999 212 0 -1 0 0 -0 -1 1 0 0 2.5000000000000004
1 -1200.1500000000001 -17.743750000000006 207.5 1.3586236395872709e-16 -0.83205029433784372 0.55470019622522904 
2 -1000 -20.743749999999999 257.94999999999999 0 -1 0 0 -0 -1 1 0 0 2.5000000000000004
1 -1000 -17.743750000000006 253.45000000000002 1.3586236395872709e-16 -0.83205029433784372 0.55470019622522904 
1 -870.6400000000001 -16.743750000000002 196.44374999999999 -0 -1 0 
2 -800 -20.743749999999999 257.94999999999999 0 -1 0 0 -0 -1 1 0 0 2.5000000000000004
1 -800 -17.743750000000006 253.45000000000002 1.3586236395872709e-16 -0.83205029433784372 0.55470019622522904 
2 -70 -20.743749999999999 60 0 -1 0 0 -0 -1 1 0 0 2.5000000000000004
1 -70 -17.743749999999999 55.5 1.3586236395872709e-16 -0.83205029433784372 0.55470019622522904 
1 -622.08000000000004 -16.743750000000002 196.44374999999999 -0 -1 0 
1 -373.51999999999998 -16.743750000000002 196.44374999999999 -0 -1 0 
2 -600 -20.743749999999999 257.94999999999999 0 -1 0 0 -0 -1 1 0 0 2.5000000000000004
1 -600 -17.743750000000006 253.44999999999996 1.3586236395872709e-16 -0.83205029433784372 0.55470019622522904 
2 -400 -20.743749999999999 257.94999999999999 0 -1 0 0 -0 -1 1 0 0 2.5000000000000004
1 -400 -17.743750000000006 253.44999999999996 1.3586236395872709e-16 -0.83205029433784372 0.55470019622522904 
2 -70 -20.743749999999999 192 0 -1 0 0 -0 -1 1 0 0 2.5000000000000004
1 -70 -17.743750000000006 187.5 1.3586236395872709e-16 -0.83205029433784372 0.55470019622522904 
1 -124.96000000000004 -16.743750000000002 196.44374999999999 -0 -1 0 
2 -200 -20.743749999999999 257.94999999999999 0 -1 0 0 -0 -1 1 0 0 2.5000000000000004
1 -200 -17.743750000000006 253.44999999999999 1.3586236395872709e-16 -0.83205029433784372 0.55470019622522904 
1 -1200.1500000000001 -16.743749999999999 57.5 0 -1 0 
1 -1200.1500000000001 -16.743749999999999 209.5 0 -1 0 
1 -1000 -16.743749999999999 255.45000000000002 0 -1 0 
1 -800 -16.743749999999999 255.45000000000002 0 -1 0 
1 -70 -16.743749999999999 57.5 0 -1 0 
1 -600 -16.743749999999999 255.44999999999996 0 -1 0 
1 -400 -16.743749999999999 255.44999999999996 0 -1 0 
1 -70 -16.743749999999999 189.5 0 -1 0 
1 -200 -16.743749999999999 255.44999999999999 0 -1 0 
Polygon3D 0
PolygonOnTriangulations 0
Surfaces 54
1 -1219.2 -36 0 1 0 -0 0 0 1 0 -1 0 
1 -1219.2 -36 277 0 0 1 1 0 -0 -0 1 0 
1 -1219.2 -17.803701111450778 276.83528567501793 -1 0 0 0 0.64278760968653936 0.76604444311897812 0 0.76604444311897812 -0.64278760968653936 
1 -1219.2 -17.803701111450778 276.83528567501793 -0 0.64278760968653936 0.76604444311897812 1 0 0 0 0.76604444311897812 -0.64278760968653936 
1 -1219.2 -17.803701111450778 276.83528567501793 0 0.76604444311897812 -0.64278760968653936 0 0.64278760968653936 0.76604444311897812 1 -0 0 
1 -1219.2 -17.743749999999963 0 -0 1 0 0 0 1 1 0 -0 
1 -1219.2 -17.743749999999963 0 -0 1 0 0 0 1 1 0 -0 
1 -1219.2 -36 0 0 0 1 1 0 -0 -0 1 0 
1 -1219.2 -36 0 -0 1 0 0 0 1 1 0 -0 
1 -1219.2 -36 0 -0 1 0 0 0 1 1 0 -0 
1 -1.5875000000000909 -36 0 1 0 -0 0 0 1 0 -1 0 
1 -1.5875000000000454 765.88295261837811 1210.7966707256762 1 0 0 0 -0.64278760968653936 -0.76604444311897812 0 0.76604444311897812 -0.64278760968653936 
3 -1200.1500000000001 -17.743749999999999 60 0 -1 0 0 -0 -1 1 0 0 4.5
-0.5880026035475675
1 -1200.1500000000001 -17.743749999999999 60 0 -1 0 0 -0 -1 1 0 0 
2 -1119.2 -16.743750000000002 202 -0 -1 -0 0 0 -1 1 -0 0 5.5562500000000004
3 -1200.1500000000001 -17.743749999999999 212 0 -1 0 0 -0 -1 1 0 0 4.5
-0.5880026035475675
1 -1200.1500000000001 -17.743749999999999 212 0 -1 0 0 -0 -1 1 0 0 
3 -1000 -17.743749999999999 257.94999999999999 0 -1 0 0 -0 -1 1 0 0 4.5
-0.5880026035475675
1 -1000 -17.743749999999999 257.94999999999999 0 -1 0 0 -0 -1 1 0 0 
2 -870.6400000000001 -16.743750000000002 202 -0 -1 -0 0 0 -1 1 -0 0 5.5562500000000004
3 -800 -17.743749999999999 257.94999999999999 0 -1 0 0 -0 -1 1 0 0 4.5
-0.5880026035475675
1 -800 -17.743749999999999 257.94999999999999 0 -1 0 0 -0 -1 1 0 0 
3 -70 -17.743749999999999 60 0 -1 0 0 -0 -1 1 0 0 4.5
-0.5880026035475675
1 -70 -17.743749999999999 60 0 -1 0 0 -0 -1 1 0 0 
2 -622.08000000000004 -16.743750000000002 202 -0 -1 -0 0 0 -1 1 -0 0 5.5562500000000004
2 -373.51999999999998 -16.743750000000002 202 -0 -1 -0 0 0 -1 1 -0 0 5.5562500000000004
3 -600 -17.743749999999999 257.94999999999999 0 -1 0 0 -0 -1 1 0 0 4.5
-0.5880026035475675
1 -600 -17.743749999999999 257.94999999999999 0 -1 0 0 -0 -1 1 0 0 
3 -400 -17.743749999999999 257.94999999999999 0 -1 0 0 -0 -1 1 0 0 4.5
-0.5880026035475675
1 -400 -17.743749999999999 257.94999999999999 0 -1 0 0 -0 -1 1 0 0 
3 -70 -17.743749999999999 192 0 -1 0 0 -0 -1 1 0 0 4.5
-0.5880026035475675
1 -70 -17.743749999999999 192 0 -1 0 0 -0 -1 1 0 0 
2 -124.96000000000004 -16.743750000000002 202 -0 -1 -0 0 0 -1 1 -0 0 5.5562500000000004
3 -200 -17.743749999999999 257.94999999999999 0 -1 0 0 -0 -1 1 0 0 4.5
-0.5880026035475675
1 -200 -17.743749999999999 257.94999999999999 0 -1 0 0 -0 -1 1 0 0 
2 -1200.1500000000001 -16.743749999999999 60 0 -1 0 0 -0 -1 1 0 0 2.5
1 0 0 0 0 0 1 1 0 -0 -0 1 0 
2 -1200.1500000000001 -16.743749999999999 212 0 -1 0 0 -0 -1 1 0 0 2.5
2 -1200.1500000000001 -16.743749999999999 212 0 -1 0 0 -0 -1 1 0 0 2.5
2 -1000 -16.743749999999999 257.94999999999999 0 -1 0 0 -0 -1 1 0 0 2.5
2 -800 -16.743749999999999 257.94999999999999 0 -1 0 0 -0 -1 1 0 0 2.5
2 -70 -16.743749999999999 60 0 -1 0 0 -0 -1 1 0 0 2.5
2 -600 -16.743749999999999 257.94999999999999 0 -1 0 0 -0 -1 1 0 0 2.5
2 -400 -16.743749999999999 257.94999999999999 0 -1 0 0 -0 -1 1 0 0 2.5
2 -70 -16.743749999999999 192 0 -1 0 0 -0 -1 1 0 0 2.5
2 -200 -16.743749999999999 257.94999999999999 0 -1 0 0 -0 -1 1 0 0 2.5
1 -1200.1500000000001 -20.743749999999999 60 0 -1 0 0 -0 -1 1 0 0 
1 -1000 -20.743749999999999 257.94999999999999 0 -1 0 0 -0 -1 1 0 0 
1 -800 -20.743749999999999 257.94999999999999 0 -1 0 0 -0 -1 1 0 0 
1 -70 -20.743749999999999 60 0 -1 0 0 -0 -1 1 0 0 
1 -600 -20.743749999999999 257.94999999999999 0 -1 0 0 -0 -1 1 0 0 
1 -400 -20.743749999999999 257.94999999999999 0 -1 0 0 -0 -1 1 0 0 
1 -70 -20.743749999999999 192 0 -1 0 0 -0 -1 1 0 0 
1 -200 -20.743749999999999 257.94999999999999 0 -1 0 0 -0 -1 1 0 0 
Triangulations 0

TShapes 220
Ve
1e-07
-1219.2 -36 277
0 0

0101101
*
Ve
2.00000007105427e-07
-1219.2 -17.9999999999999 277
0 0

0101101
*
Ed
 1e-07 1 1 0
1  1 0 0 18.0000000000001
2  1 1 0 0 18.0000000000001
2  2 2 0 0 18.0000000000001
0

0101000
+220 0 -219 0 *
Ve
1.5e-07
-1219.2 -17.8037011114508 276.835285675018
0 0

0101101
*
Ed
 1.5e-07 1 1 0
1  2 0 0 0.256249999999839
2  3 3 0 0 0.256249999999839
2  4 4 0 0 0.256249999999839
2  5 1 0 0 0.256249999999839
0

0101000
+217 0 -219 0 *
Ve
2.00000056843419e-07
-1219.2 -17.74375 276.906732627469
0 0

0101101
*
Ed
 1.5e-07 1 1 0
1  3 0 0 0.093267372530807
2  6 5 0 0 0.093267372530807
2  7 3 0 0 0.093267372530807
2  8 1 0 0 0.093267372530807
0

0101000
+217 0 -215 0 *
Ve
1e-07
-1219.2 -17.74375 0
0 0

0101101
*
Ed
 1e-07 1 1 0
1  4 0 0 276.906732627469
2  9 1 0 0 276.906732627469
2  10 6 0 0 276.906732627469
2  11 7 0 0 276.906732627469
0

0101000
+213 0 -215 0 *
Ve
1e-07
-1219.2 -36 0
0 0

0101101
*
Ed
 1e-07 1 1 0
1  5 0 0 18.25625
2  12 1 0 0 18.25625
2  13 8 0 0 18.25625
0

0101000
-213 0 +211 0 *
Ed
 1e-07 1 1 0
1  6 0 0 277
2  14 1 0 0 277
2  15 9 0 0 277
2  16 10 0 0 277
0

0101000
-220 0 +211 0 *
Wi

0101100
-218 0 +216 0 -214 0 +212 0 +210 0 -209 0 *
Fa
0  1e-07 1 0

0101000
+208 0 *
Ve
2.00000007105427e-07
-1.58750000000009 -17.9999999999999 277
0 0

0101101
*
Ed
 2e-07 1 1 0
1  7 0 -1217.6125 0
2  17 2 0 -1217.6125 0
2  18 4 0 -1217.6125 0
0

0101000
+206 0 -219 0 *
Ve
1e-07
-1.58750000000009 -36 277
0 0

0101101
*
Ed
 1e-07 1 1 0
1  8 0 0 18.0000000000001
2  19 11 0 0 18.0000000000001
2  20 2 0 0 18.0000000000001
0

0101000
+204 0 -206 0 *
Ed
 1e-07 1 1 0
1  9 0 0 1217.6125
2  21 9 0 0 1217.6125
2  22 2 0 0 1217.6125
2  23 10 0 0 1217.6125
0

0101000
-204 0 +220 0 *
Wi

0101100
-218 0 +205 0 +203 0 +202 0 *
Fa
0  1e-07 2 0

0101000
+201 0 *
Ve
1.50000057742272e-07
-1.58750000000009 -17.8037011114508 276.835285675018
0 0

0101101
*
Ed
 1.5e-07 1 1 0
1  10 0 0 1217.6125
2  24 5 0 0 1217.6125
2  25 4 0 0 1217.6125
0

0101000
+217 0 -199 0 *
Ed
 1.50000057742272e-07 1 1 0
1  11 0 0 0.256249999999839
2  26 12 0 0 0.256249999999839
2  27 4 0 0 0.256249999999839
2  28 11 0 0 0.256249999999839
0

0101000
+199 0 -206 0 *
Wi

0101100
-198 0 -197 0 -205 0 +216 0 *
Fa
0  1.5e-07 4 0

0101000
+196 0 *
Ve
2.00000061189305e-07
-1.58750000000007 -17.74375 276.906732627469
0 0

0101101
*
Ed
 1.5e-07 1 1 0
1  12 0 -5.29240753416583 -5.19914016163502
2  29 5 0 -5.29240753416583 -5.19914016163502
2  30 12 0 -5.29240753416583 -5.19914016163502
2  31 11 0 -5.29240753416583 -5.19914016163502
0

0101000
+194 0 -199 0 *
Ed
 2e-07 1 1 0
1  13 0 -1217.6125 0
2  32 6 0 -1217.6125 0
2  33 5 0 -1217.6125 0
2  34 7 0 -1217.6125 0
0

0101000
+194 0 -215 0 *
Wi

0101100
-198 0 +193 0 -192 0 +214 0 *
Fa
0  1.5e-07 5 0

0101000
+191 0 *
Ve
1e-07
-1.58750000000009 -17.74375 0
0 0

0101101
*
Ed
 1e-07 1 1 0
1  14 0 0 276.906732627469
2  35 11 0 0 276.906732627469
2  36 6 0 0 276.906732627469
2  37 7 0 0 276.906732627469
0

0101000
+189 0 -194 0 *
Ed
 1e-07 1 1 0
1  15 0 0 1217.6125
2  38 6 0 0 1217.6125
2  39 8 0 0 1217.6125
2  40 7 0 0 1217.6125
0

0101000
-189 0 +213 0 *
Wi

0101100
-188 0 -187 0 -192 0 +212 0 *
Ve
1.00000035527137e-07
-1200.15 -17.74375 55.5
0 0

0101101
*
Ed
 1.00000035527137e-07 1 1 0
1  16 0 0 6.28318530717959
2  41 13 0 0 6.28318530717959
2  42 14 0 0 6.28318530717959
2  43 6 0 0 6.28318530717959
2  44 7 0 0 6.28318530717959
0

0101000
+185 0 -185 0 *
Wi

0101100
+184 0 *
Ve
1e-07
-1119.2 -17.74375 196.44375
0 0

0101101
*
Ed
 1e-07 1 1 0
1  17 0 0 6.28318530717959
2  45 6 0 0 6.28318530717959
2  46 15 0 0 6.28318530717959
2  47 7 0 0 6.28318530717959
0

0101100
+182 0 -182 0 *
Wi

0101100
+181 0 *
Ve
1.00000035527137e-07
-1200.15 -17.74375 207.5
0 0

0101101
*
Ed
 1.00000035527137e-07 1 1 0
1  18 0 0 6.28318530717959
2  48 16 0 0 6.28318530717959
2  49 17 0 0 6.28318530717959
2  50 7 0 0 6.28318530717959
0

0101000
+179 0 -179 0 *
Wi

0101100
+178 0 *
Ve
1.00000035527137e-07
-1000 -17.74375 253.45
0 0

0101101
*
Ed
 1.00000035527137e-07 1 1 0
1  19 0 0 6.28318530717959
2  51 18 0 0 6.28318530717959
2  52 19 0 0 6.28318530717959
2  53 6 0 0 6.28318530717959
2  54 7 0 0 6.28318530717959
0

0101000
+176 0 -176 0 *
Wi

0101100
+175 0 *
Ve
1e-07
-870.64 -17.74375 196.44375
0 0

0101101
*
Ed
 1e-07 1 1 0
1  20 0 0 6.28318530717959
2  55 6 0 0 6.28318530717959
2  56 20 0 0 6.28318530717959
2  57 7 0 0 6.28318530717959
0

0101100
+173 0 -173 0 *
Wi

0101100
+172 0 *
Ve
1.00000035527137e-07
-800 -17.74375 253.45
0 0

0101101
*
Ed
 1.00000035527137e-07 1 1 0
1  21 0 0 6.28318530717959
2  58 21 0 0 6.28318530717959
2  59 22 0 0 6.28318530717959
2  60 6 0 0 6.28318530717959
2  61 7 0 0 6.28318530717959
0

0101000
+170 0 -170 0 *
Wi

0101100
+169 0 *
Ve
1.00000035527137e-07
-70 -17.74375 55.5
0 0

0101101
*
Ed
 1.00000035527137e-07 1 1 0
1  22 0 0 6.28318530717959
2  62 23 0 0 6.28318530717959
2  63 24 0 0 6.28318530717959
2  64 6 0 0 6.28318530717959
2  65 7 0 0 6.28318530717959
0

0101000
+167 0 -167 0 *
Wi

0101100
+166 0 *
Ve
1e-07
-622.08 -17.74375 196.44375
0 0

0101101
*
Ed
 1e-07 1 1 0
1  23 0 0 6.28318530717959
2  66 6 0 0 6.28318530717959
2  67 25 0 0 6.28318530717959
2  68 7 0 0 6.28318530717959
0

0101100
+164 0 -164 0 *
Wi

0101100
+163 0 *
Ve
1e-07
-373.52 -17.74375 196.44375
0 0

0101101
*
Ed
 1e-07 1 1 0
1  24 0 0 6.28318530717959
2  69 6 0 0 6.28318530717959
2  70 26 0 0 6.28318530717959
2  71 7 0 0 6.28318530717959
0

0101100
+161 0 -161 0 *
Wi

0101100
+160 0 *
Ve
1.00000035527137e-07
-600 -17.74375 253.45
0 0

0101101
*
Ed
 1.00000035527137e-07 1 1 0
1  25 0 0 6.28318530717959
2  72 27 0 0 6.28318530717959
2  73 28 0 0 6.28318530717959
2  74 6 0 0 6.28318530717959
2  75 7 0 0 6.28318530717959
0

0101000
+158 0 -158 0 *
Wi

0101100
+157 0 *
Ve
1.00000035527137e-07
-400 -17.74375 253.45
0 0

0101101
*
Ed
 1.00000035527137e-07 1 1 0
1  26 0 0 6.28318530717959
2  76 29 0 0 6.28318530717959
2  77 30 0 0 6.28318530717959
2  78 6 0 0 6.28318530717959
2  79 7 0 0 6.28318530717959
0

0101000
+155 0 -155 0 *
Wi

0101100
+154 0 *
Ve
1.00000035527137e-07
-70 -17.74375 187.5
0 0

0101101
*
Ed
 1.00000035527137e-07 1 1 0
1  27 0 0 6.28318530717959
2  80 31 0 0 6.28318530717959
2  81 32 0 0 6.28318530717959
2  82 6 0 0 6.28318530717959
2  83 7 0 0 6.28318530717959
0

0101000
+152 0 -152 0 *
Wi

0101100
+151 0 *
Ve
1e-07
-124.96 -17.74375 196.44375
0 0

0101101
*
Ed
 1e-07 1 1 0
1  28 0 0 6.28318530717959
2  84 6 0 0 6.28318530717959
2  85 33 0 0 6.28318530717959
2  86 7 0 0 6.28318530717959
0

0101100
+149 0 -149 0 *
Wi

0101100
+148 0 *
Ve
1.00000035527137e-07
-200 -17.74375 253.45
0 0

0101101
*
Ed
 1.00000035527137e-07 1 1 0
1  29 0 0 6.28318530717959
2  87 34 0 0 6.28318530717959
2  88 35 0 0 6.28318530717959
2  89 6 0 0 6.28318530717959
2  90 7 0 0 6.28318530717959
0

0101000
+146 0 -146 0 *
Wi

0101100
+145 0 *
Fa
0  1e-07 7 0

0101000
+186 0 +183 0 +180 0 +177 0 +174 0 +171 0 +168 0 +165 0 +162 0 +159 0 
+156 0 +153 0 +150 0 +147 0 +144 0 *
Ve
1e-07
-1.58750000000009 -36 0
0 0

0101101
*
Ed
 1e-07 1 1 0
1  30 0 0 18.25625
2  91 11 0 0 18.25625
2  92 8 0 0 18.25625
0

0101000
-189 0 +142 0 *
Ed
 1e-07 1 1 0
1  31 0 0 1217.6125
2  93 9 0 0 1217.6125
2  94 8 0 0 1217.6125
2  95 10 0 0 1217.6125
0

0101000
-142 0 +211 0 *
Wi

0101100
-210 0 -187 0 +141 0 +140 0 *
Fa
0  1e-07 8 0

0111000
+139 0 *
Ed
 1e-07 1 1 0
1  32 0 0 277
2  96 11 0 0 277
2  97 9 0 0 277
2  98 10 0 0 277
0

0101000
-204 0 +142 0 *
Wi

0101100
-140 0 -137 0 +209 0 +202 0 *
Ve
1e-07
-1200.15 -36 57.5
0 0

0101101
*
Ed
 1e-07 1 1 0
1  33 0 0 6.28318530717959
2  99 9 0 0 6.28318530717959
2  100 36 0 0 6.28318530717959
2  101 10 0 0 6.28318530717959
0

0101100
+135 0 -135 0 *
Wi

0101100
+134 0 *
Ve
1e-07
-1119.2 -36 196.44375
0 0

0101101
*
Ed
 1e-07 1 1 0
1  34 0 0 6.28318530717959
2  102 9 0 0 6.28318530717959
2  103 15 0 0 6.28318530717959
2  104 37 1 0 6.28318530717959
2  105 10 0 0 6.28318530717959
0

0101100
+132 0 -132 0 *
Wi

0101100
+131 0 *
Ve
1e-07
-1200.15 -36 209.5
0 0

0101101
*
Ed
 1e-07 1 1 0
1  35 0 0 6.28318530717959
2  106 10 0 0 6.28318530717959
2  107 38 0 0 6.28318530717959
2  108 39 0 0 6.28318530717959
0

0101100
+129 0 -129 0 *
Wi

0101100
+128 0 *
Ve
1.00000028421709e-07
-1000 -36 255.45
0 0

0101101
*
Ed
 1e-07 1 1 0
1  36 0 0 6.28318530717959
2  109 9 0 0 6.28318530717959
2  110 40 0 0 6.28318530717959
2  111 10 0 0 6.28318530717959
0

0101100
+126 0 -126 0 *
Wi

0101100
+125 0 *
Ve
1e-07
-870.64 -36 196.44375
0 0

0101101
*
Ed
 1e-07 1 1 0
1  37 0 0 6.28318530717959
2  112 9 0 0 6.28318530717959
2  113 20 0 0 6.28318530717959
2  114 37 2 0 6.28318530717959
2  115 10 0 0 6.28318530717959
0

0101100
+123 0 -123 0 *
Wi

0101100
+122 0 *
Ve
1.00000028421709e-07
-800 -36 255.45
0 0

0101101
*
Ed
 1e-07 1 1 0
1  38 0 0 6.28318530717959
2  116 9 0 0 6.28318530717959
2  117 41 0 0 6.28318530717959
2  118 10 0 0 6.28318530717959
0

0101100
+120 0 -120 0 *
Wi

0101100
+119 0 *
Ve
1e-07
-70 -36 57.5
0 0

0101101
*
Ed
 1e-07 1 1 0
1  39 0 0 6.28318530717959
2  119 9 0 0 6.28318530717959
2  120 42 0 0 6.28318530717959
2  121 10 0 0 6.28318530717959
0

0101100
+117 0 -117 0 *
Wi

0101100
+116 0 *
Ve
1e-07
-622.08 -36 196.44375
0 0

0101101
*
Ed
 1e-07 1 1 0
1  40 0 0 6.28318530717959
2  122 9 0 0 6.28318530717959
2  123 25 0 0 6.28318530717959
2  124 37 3 0 6.28318530717959
2  125 10 0 0 6.28318530717959
0

0101100
+114 0 -114 0 *
Wi

0101100
+113 0 *
Ve
1e-07
-373.52 -36 196.44375
0 0

0101101
*
Ed
 1e-07 1 1 0
1  41 0 0 6.28318530717959
2  126 9 0 0 6.28318530717959
2  127 26 0 0 6.28318530717959
2  128 37 4 0 6.28318530717959
2  129 10 0 0 6.28318530717959
0

0101100
+111 0 -111 0 *
Wi

0101100
+110 0 *
Ve
1.00000028421709e-07
-600 -36 255.45
0 0

0101101
*
Ed
 1e-07 1 1 0
1  42 0 0 6.28318530717959
2  130 9 0 0 6.28318530717959
2  131 43 0 0 6.28318530717959
2  132 10 0 0 6.28318530717959
0

0101100
+108 0 -108 0 *
Wi

0101100
+107 0 *
Ve
1.00000028421709e-07
-400 -36 255.45
0 0

0101101
*
Ed
 1e-07 1 1 0
1  43 0 0 6.28318530717959
2  133 9 0 0 6.28318530717959
2  134 44 0 0 6.28318530717959
2  135 10 0 0 6.28318530717959
0

0101100
+105 0 -105 0 *
Wi

0101100
+104 0 *
Ve
1e-07
-70 -36 189.5
0 0

0101101
*
Ed
 1e-07 1 1 0
1  44 0 0 6.28318530717959
2  136 9 0 0 6.28318530717959
2  137 45 0 0 6.28318530717959
2  138 10 0 0 6.28318530717959
0

0101100
+102 0 -102 0 *
Wi

0101100
+101 0 *
Ve
1e-07
-124.96 -36 196.44375
0 0

0101101
*
Ed
 1e-07 1 1 0
1  45 0 0 6.28318530717959
2  139 9 0 0 6.28318530717959
2  140 33 0 0 6.28318530717959
2  141 37 5 0 6.28318530717959
2  142 10 0 0 6.28318530717959
0

0101100
+99 0 -99 0 *
Wi

0101100
+98 0 *
Ve
1e-07
-200 -36 255.45
0 0

0101101
*
Ed
 1e-07 1 1 0
1  46 0 0 6.28318530717959
2  143 9 0 0 6.28318530717959
2  144 46 0 0 6.28318530717959
2  145 10 0 0 6.28318530717959
0

0101100
+96 0 -96 0 *
Wi

0101100
+95 0 *
Fa
0  1e-07 10 0

0101000
+136 0 +133 0 +130 0 +127 0 +124 0 +121 0 +118 0 +115 0 +112 0 +109 0 
+106 0 +103 0 +100 0 +97 0 +94 0 *
Wi

0101100
-203 0 +197 0 +193 0 +188 0 +141 0 -137 0 *
Fa
0  1e-07 11 0

0101000
+92 0 *
Ve
1.00000007105427e-07
-1200.15 -20.74375 57.5
0 0

0101101
*
Ed
 1.00000007105427e-07 1 1 0
1  47 0 0 6.28318530717959
2  146 13 0 0 6.28318530717959
2  147 47 0 0 6.28318530717959
2  148 36 0 0 6.28318530717959
0

0101000
+90 0 -90 0 *
Ed
 1e-07 1 1 0
1  48 0 0 3.60555127546399
3  149 150CN 13 0 0 3.60555127546399
0

0101000
-90 0 +185 0 *
Wi

0101100
-89 0 +88 0 +184 0 -88 0 *
Fa
0  1e-07 13 0

0111000
+87 0 *
Ed
 1e-07 1 1 0
1  49 0 0.999999999999961 19.25625
3  151 152CN 15 0 0.999999999999961 19.25625
0

0101000
+182 0 -132 0 *
Wi

0101100
-131 0 +85 0 +181 0 -85 0 *
Fa
0  1e-07 15 0

0101000
+84 0 *
Ve
1e-07
-1200.15 -20.74375 209.5
0 0

0101101
*
Ed
 1e-07 1 1 0
1  50 0 0 6.28318530717959
2  153 38 0 0 6.28318530717959
2  154 16 0 0 6.28318530717959
0

0101000
+82 0 -82 0 *
Ed
 1e-07 1 1 0
1  51 0 0 3.60555127546399
3  155 156CN 16 0 0 3.60555127546399
0

0101000
-82 0 +179 0 *
Wi

0101100
-81 0 +80 0 +178 0 -80 0 *
Fa
0  1e-07 16 0

0111000
+79 0 *
Ve
1e-07
-1000 -20.74375 255.45
0 0

0101101
*
Ed
 1e-07 1 1 0
1  52 0 0 6.28318530717959
2  157 18 0 0 6.28318530717959
2  158 48 0 0 6.28318530717959
2  159 40 0 0 6.28318530717959
0

0101000
+77 0 -77 0 *
Ed
 1e-07 1 1 0
1  53 0 0 3.60555127546399
3  160 161CN 18 0 0 3.60555127546399
0

0101000
-77 0 +176 0 *
Wi

0101100
-76 0 +75 0 +175 0 -75 0 *
Fa
0  1e-07 18 0

0111000
+74 0 *
Ed
 1e-07 1 1 0
1  54 0 0.999999999999961 19.25625
3  162 163CN 20 0 0.999999999999961 19.25625
0

0101000
+173 0 -123 0 *
Wi

0101100
-122 0 +72 0 +172 0 -72 0 *
Fa
0  1e-07 20 0

0101000
+71 0 *
Ve
1e-07
-800 -20.74375 255.45
0 0

0101101
*
Ed
 1e-07 1 1 0
1  55 0 0 6.28318530717959
2  164 21 0 0 6.28318530717959
2  165 49 0 0 6.28318530717959
2  166 41 0 0 6.28318530717959
0

0101000
+69 0 -69 0 *
Ed
 1e-07 1 1 0
1  56 0 0 3.60555127546399
3  167 168CN 21 0 0 3.60555127546399
0

0101000
-69 0 +170 0 *
Wi

0101100
-68 0 +67 0 +169 0 -67 0 *
Fa
0  1e-07 21 0

0111000
+66 0 *
Ve
1e-07
-70 -20.74375 57.5
0 0

0101101
*
Ed
 1e-07 1 1 0
1  57 0 0 6.28318530717959
2  169 23 0 0 6.28318530717959
2  170 50 0 0 6.28318530717959
2  171 42 0 0 6.28318530717959
0

0101000
+64 0 -64 0 *
Ed
 1e-07 1 1 0
1  58 0 0 3.60555127546399
3  172 173CN 23 0 0 3.60555127546399
0

0101000
-64 0 +167 0 *
Wi

0101100
-63 0 +62 0 +166 0 -62 0 *
Fa
0  1e-07 23 0

0111000
+61 0 *
Ed
 1e-07 1 1 0
1  59 0 0.999999999999961 19.25625
3  174 175CN 25 0 0.999999999999961 19.25625
0

0101000
+164 0 -114 0 *
Wi

0101100
-113 0 +59 0 +163 0 -59 0 *
Fa
0  1e-07 25 0

0101000
+58 0 *
Ed
 1e-07 1 1 0
1  60 0 0.999999999999961 19.25625
3  176 177CN 26 0 0.999999999999961 19.25625
0

0101000
+161 0 -111 0 *
Wi

0101100
-110 0 +56 0 +160 0 -56 0 *
Fa
0  1e-07 26 0

0101000
+55 0 *
Ve
1e-07
-600 -20.74375 255.45
0 0

0101101
*
Ed
 1e-07 1 1 0
1  61 0 0 6.28318530717959
2  178 27 0 0 6.28318530717959
2  179 51 0 0 6.28318530717959
2  180 43 0 0 6.28318530717959
0

0101000
+53 0 -53 0 *
Ed
 1e-07 1 1 0
1  62 0 0 3.60555127546399
3  181 182CN 27 0 0 3.60555127546399
0

0101000
-53 0 +158 0 *
Wi

0101100
-52 0 +51 0 +157 0 -51 0 *
Fa
0  1e-07 27 0

0111000
+50 0 *
Ve
1e-07
-400 -20.74375 255.45
0 0

0101101
*
Ed
 1e-07 1 1 0
1  63 0 0 6.28318530717959
2  183 29 0 0 6.28318530717959
2  184 52 0 0 6.28318530717959
2  185 44 0 0 6.28318530717959
0

0101000
+48 0 -48 0 *
Ed
 1e-07 1 1 0
1  64 0 0 3.60555127546399
3  186 187CN 29 0 0 3.60555127546399
0

0101000
-48 0 +155 0 *
Wi

0101100
-47 0 +46 0 +154 0 -46 0 *
Fa
0  1e-07 29 0

0111000
+45 0 *
Ve
1e-07
-70 -20.74375 189.5
0 0

0101101
*
Ed
 1e-07 1 1 0
1  65 0 0 6.28318530717959
2  188 31 0 0 6.28318530717959
2  189 53 0 0 6.28318530717959
2  190 45 0 0 6.28318530717959
0

0101000
+43 0 -43 0 *
Ed
 1e-07 1 1 0
1  66 0 0 3.60555127546399
3  191 192CN 31 0 0 3.60555127546399
0

0101000
-43 0 +152 0 *
Wi

0101100
-42 0 +41 0 +151 0 -41 0 *
Fa
0  1e-07 31 0

0111000
+40 0 *
Ed
 1e-07 1 1 0
1  67 0 0.999999999999961 19.25625
3  193 194CN 33 0 0.999999999999961 19.25625
0

0101000
+149 0 -99 0 *
Wi

0101100
-98 0 +38 0 +148 0 -38 0 *
Fa
0  1e-07 33 0

0101000
+37 0 *
Ve
1e-07
-200 -20.74375 255.45
0 0

0101101
*
Ed
 1e-07 1 1 0
1  68 0 0 6.28318530717959
2  195 34 0 0 6.28318530717959
2  196 54 0 0 6.28318530717959
2  197 46 0 0 6.28318530717959
0

0101000
+35 0 -35 0 *
Ed
 1e-07 1 1 0
1  69 0 0 3.60555127546399
3  198 199CN 34 0 0 3.60555127546399
0

0101000
-35 0 +146 0 *
Wi

0101100
-34 0 +33 0 +145 0 -33 0 *
Fa
0  1e-07 34 0

0111000
+32 0 *
Ed
 1e-07 1 1 0
1  70 0 4 19.25625
3  200 201CN 36 0 4 19.25625
0

0101000
+90 0 -135 0 *
Wi

0101100
+30 0 +89 0 -30 0 -134 0 *
Fa
0  1e-07 36 0

0101000
+29 0 *
Ed
 1e-07 1 1 0
1  71 0 4 19.25625
3  202 203CN 38 0 4 19.25625
0

0101000
+82 0 -129 0 *
Wi

0101100
+81 0 -27 0 -128 0 +27 0 *
Fa
0  1e-07 38 0

0101000
+26 0 *
Ed
 1e-07 1 1 0
1  72 0 4 19.25625
3  204 205CN 40 0 4 19.25625
0

0101000
+77 0 -126 0 *
Wi

0101100
+24 0 +76 0 -24 0 -125 0 *
Fa
0  1e-07 40 0

0101000
+23 0 *
Ed
 1e-07 1 1 0
1  73 0 4 19.25625
3  206 207CN 41 0 4 19.25625
0

0101000
+69 0 -120 0 *
Wi

0101100
+21 0 +68 0 -21 0 -119 0 *
Fa
0  1e-07 41 0

0101000
+20 0 *
Ed
 1e-07 1 1 0
1  74 0 4 19.25625
3  208 209CN 42 0 4 19.25625
0

0101000
+64 0 -117 0 *
Wi

0101100
+18 0 +63 0 -18 0 -116 0 *
Fa
0  1e-07 42 0

0101000
+17 0 *
Ed
 1e-07 1 1 0
1  75 0 4 19.25625
3  210 211CN 43 0 4 19.25625
0

0101000
+53 0 -108 0 *
Wi

0101100
+15 0 +52 0 -15 0 -107 0 *
Fa
0  1e-07 43 0

0101000
+14 0 *
Ed
 1e-07 1 1 0
1  76 0 4 19.25625
3  212 213CN 44 0 4 19.25625
0

0101000
+48 0 -105 0 *
Wi

0101100
+12 0 +47 0 -12 0 -104 0 *
Fa
0  1e-07 44 0

0101000
+11 0 *
Ed
 1e-07 1 1 0
1  77 0 4 19.25625
3  214 215CN 45 0 4 19.25625
0

0101000
+43 0 -102 0 *
Wi

0101100
+9 0 +42 0 -9 0 -101 0 *
Fa
0  1e-07 45 0

0101000
+8 0 *
Ed
 1e-07 1 1 0
1  78 0 4 19.25625
3  216 217CN 46 0 4 19.25625
0

0101000
+35 0 -96 0 *
Wi

0101100
+6 0 +34 0 -6 0 -95 0 *
Fa
0  1e-07 46 0

0101000
+5 0 *
Sh

0101100
-207 0 +200 0 +195 0 -190 0 +143 0 -138 0 -93 0 +91 0 -86 0 -83 0 
-78 0 -73 0 -70 0 -65 0 -60 0 -57 0 -54 0 -49 0 -44 0 -39 0 
-36 0 -31 0 -28 0 -25 0 -22 0 -19 0 -16 0 -13 0 -10 0 -7 0 
-4 0 *
So

0100000
+3 0 *
Co

1100000
+2 0 *

+1 0 