DBRep_DrawableShape

CASCADE Topology V3, (c) Open Cascade
Locations 5
1
              1               0               0           123.6 
              0               0               1             -36 
              0              -1               0             202 
1
              1               0               0          372.16 
              0               0               1             -36 
              0              -1               0             202 
1
              1               0               0          620.72 
              0               0               1             -36 
              0              -1               0             202 
1
              1               0               0          869.28 
              0               0               1             -36 
              0              -1               0             202 
1
              1               0               0         1117.84 
              0               0               1             -36 
              0              -1               0             202 
Curve2ds 277
1 277 0 0 -1 
1 0 0 0 1 
1 0 0 0 -1 
1 0 0 0 -1 
1 276.83528567501793 -18.196298888549222 0.64278760968653936 0.76604444311897812 
1 0 0 1 0 
1 0 0 1 0 
1 276.83528567501793 -18.196298888549222 0.76604444311897812 -0.64278760968653936 
1 0 -18.256250000000037 1 0 
1 0 0 1 0 
1 0 0 1 0 
1 0 0 1 0 
1 0 0 1 0 
1 0 0 0 -1 
1 0 0 0 1 
1 0 0 1 0 
1 0 0 1 0 
1 0 0 1 0 
1 0 0 1 0 
1 0 0 1 0 
8 -1217.6125 0
1 0 18.000000000000099 -1 0 
8 -1217.6125 0
1 0 -0.25624999999984471 -1 -0 
1 277 0 0 -1 
1 1217.6125 0 0 1 
1 277 0 0 1 
1 0 0 1 0 
1 277 0 0 1 
1 277 0 0 1 
1 277 0 0 1 
1 0 0 0 1 
1 0 0 1 0 
1 1219.2000000000003 0 0 -1 
1 1217.6125 0 0 -1 
1 276.83528567501793 -18.196298888549222 0.64278760968653936 0.76604444311897812 
8 -1224.3991401616352 -5.1991401616350226
1 -5.1991401616350226 1217.6125 -1 0 
1 1224.3991401616354 1.1368683772161603e-13 1 0 
1 272.85251324520073 -14.854356011626546 -0.76604444311897812 0.64278760968653936 
8 -1217.6125 0
1 276.90673262746952 0 0 -1 
8 -1217.6125 0
1 0.093267372530850545 0 0 -1 
1 276.90673262746952 0 0 -1 
1 276.90673262746952 0 0 -1 
1 276.90673262746952 0 0 -1 
1 0 -18.256250000000037 1 0 
1 0 1217.6125 1 0 
1 0 1217.6125 1 0 
1 0 1217.6125 1 0 
1 0 1217.6125 1 0 
1 0 0 0 1 
1 0 18.256250000000037 1 0 
1 0 0 0 1 
1 0 0 0 1 
1 0 0 0 1 
1 0 0 1 0 
2 0 0 1 0 -0 1 4.5
2 60 32.387499999999996 -1 0 0 1 4.5
2 60 32.387499999999996 -1 0 0 1 4.5
2 60 32.387499999999996 -1 0 0 1 4.5
1 0 0 1 0 
2 0 0 1 0 -0 1 4.5
2 192 32.387499999999996 -1 0 0 1 4.5
2 192 32.387499999999996 -1 0 0 1 4.5
2 202 125.18749999999991 -1 0 0 1 5.5562500000000004
1 0 0.99999999999996092 1 0 
2 202 125.18749999999991 -1 0 0 1 5.5562500000000057
2 202 125.18749999999991 -1 0 0 1 5.5562500000000057
2 202 125.18749999999991 -1 0 0 1 5.5562500000000057
1 0 0 1 0 
2 0 0 1 0 -0 1 4.5
2 257.94999999999999 201.58750000000001 -1 0 0 1 4.5
2 257.94999999999999 201.58750000000001 -1 0 0 1 4.5
2 257.94999999999999 201.58750000000001 -1 0 0 1 4.5
2 257.94999999999999 201.58750000000001 -1 0 0 1 4.5
2 202 373.74750000000006 -1 0 0 1 5.5562500000000004
1 0 0.99999999999996092 1 0 
2 202 373.74750000000006 -1 0 0 1 5.5562500000000057
2 202 373.74750000000006 -1 0 0 1 5.5562500000000057
2 202 373.74750000000006 -1 0 0 1 5.5562500000000057
1 0 0 1 0 
2 0 0 1 0 -0 1 4.5
2 257.94999999999999 401.58749999999998 -1 0 0 1 4.5
2 257.94999999999999 401.58749999999998 -1 0 0 1 4.5
2 257.94999999999999 401.58749999999998 -1 0 0 1 4.5
2 257.94999999999999 401.58749999999998 -1 0 0 1 4.5
1 0 0 1 0 
2 0 0 1 0 -0 1 4.5
2 257.94999999999999 601.58749999999998 -1 0 0 1 4.5
2 257.94999999999999 601.58749999999998 -1 0 0 1 4.5
2 257.94999999999999 601.58749999999998 -1 0 0 1 4.5
2 257.94999999999999 601.58749999999998 -1 0 0 1 4.5
1 0 0 1 0 
2 0 0 1 0 -0 1 4.5
2 60 1198.5625 -1 0 0 1 4.5
2 60 1198.5625 -1 0 0 1 4.5
2 60 1198.5625 -1 0 0 1 4.5
2 60 1198.5625 -1 0 0 1 4.5
2 202 622.3075 -1 0 0 1 5.5562500000000004
1 0 0.99999999999996092 1 0 
2 202 622.3075 -1 0 0 1 5.5562500000000057
2 202 622.3075 -1 0 0 1 5.5562500000000057
2 202 622.3075 -1 0 0 1 5.5562500000000057
2 202 870.86749999999995 -1 0 0 1 5.5562500000000004
1 0 0.99999999999996092 1 0 
2 202 870.86749999999995 -1 0 0 1 5.5562500000000057
2 202 870.86749999999995 -1 0 0 1 5.5562500000000057
2 202 870.86749999999995 -1 0 0 1 5.5562500000000057
1 0 0 1 0 
2 0 0 1 0 -0 1 4.5
2 257.94999999999999 801.58749999999998 -1 0 0 1 4.5
2 257.94999999999999 801.58749999999998 -1 0 0 1 4.5
2 257.94999999999999 801.58749999999998 -1 0 0 1 4.5
2 257.94999999999999 801.58749999999998 -1 0 0 1 4.5
2 202 1119.4275 -1 0 0 1 5.5562500000000004
1 0 0.99999999999996092 1 0 
2 202 1119.4275 -1 0 0 1 5.5562500000000057
2 202 1119.4275 -1 0 0 1 5.5562500000000057
2 202 1119.4275 -1 0 0 1 5.5562500000000057
1 0 0 1 0 
2 0 0 1 0 -0 1 4.5
2 257.94999999999999 1001.5875 -1 0 0 1 4.5
2 257.94999999999999 1001.5875 -1 0 0 1 4.5
2 257.94999999999999 1001.5875 -1 0 0 1 4.5
2 257.94999999999999 1001.5875 -1 0 0 1 4.5
1 0 0 1 0 
2 0 0 1 0 -0 1 4.5
2 212 1198.5625 -1 0 0 1 4.5
1 0 0 0 -1 
1 1217.6125 0 0 1 
1 0 0 0 1 
1 0 0 1 0 
1 0 0 0 1 
1 0 0 0 1 
1 0 0 0 1 
1 0 0 1 0 
1 0 1217.6125 1 0 
1 0 1217.6125 1 0 
1 0 1217.6125 1 0 
1 0 1217.6125 1 0 
2 60 32.387499999999996 -1 0 0 1 2.5
1 0 19.256250000000001 1 0 
2 60 32.387499999999996 -1 0 0 1 2.5
2 60 32.387499999999996 -1 0 0 1 2.5
2 192 32.387499999999996 -1 0 0 1 2.5
1 0 19.256250000000001 1 0 
2 192 32.387499999999996 -1 0 0 1 2.5
2 202 125.18749999999991 -1 0 0 1 5.5562500000000004
1 0 19.256249999999998 1 0 
2 0 0 0 1 1 -0 5.5562500000000004
2 202 125.18749999999991 -1 0 0 1 5.5562500000000057
2 202 125.18749999999991 -1 0 0 1 5.5562500000000057
2 202 125.18749999999991 -1 0 0 1 5.5562500000000057
2 257.94999999999999 201.58750000000001 -1 0 0 1 2.5
1 0 19.256250000000001 1 0 
2 257.94999999999999 201.58750000000001 -1 0 0 1 2.5
2 257.94999999999999 201.58750000000001 -1 0 0 1 2.5
2 257.94999999999999 201.58750000000001 -1 0 0 1 2.5
2 202 373.74750000000006 -1 0 0 1 5.5562500000000004
1 0 19.256249999999998 1 0 
2 0 0 0 1 1 -0 5.5562500000000004
2 202 373.74750000000006 -1 0 0 1 5.5562500000000057
2 202 373.74750000000006 -1 0 0 1 5.5562500000000057
2 202 373.74750000000006 -1 0 0 1 5.5562500000000057
2 257.94999999999999 401.58749999999998 -1 0 0 1 2.5
1 0 19.256250000000001 1 0 
2 257.94999999999999 401.58749999999998 -1 0 0 1 2.5
2 257.94999999999999 401.58749999999998 -1 0 0 1 2.5
2 257.94999999999999 401.58749999999998 -1 0 0 1 2.5
2 257.94999999999999 601.58749999999998 -1 0 0 1 2.5
1 0 19.256250000000001 1 0 
2 257.94999999999999 601.58749999999998 -1 0 0 1 2.5
2 257.94999999999999 601.58749999999998 -1 0 0 1 2.5
2 257.94999999999999 601.58749999999998 -1 0 0 1 2.5
2 60 1198.5625 -1 0 0 1 2.5
1 0 19.256250000000001 1 0 
2 60 1198.5625 -1 0 0 1 2.5
2 60 1198.5625 -1 0 0 1 2.5
2 60 1198.5625 -1 0 0 1 2.5
2 202 622.3075 -1 0 0 1 5.5562500000000004
1 0 19.256249999999998 1 0 
2 0 0 0 1 1 -0 5.5562500000000004
2 202 622.3075 -1 0 0 1 5.5562500000000057
2 202 622.3075 -1 0 0 1 5.5562500000000057
2 202 622.3075 -1 0 0 1 5.5562500000000057
2 202 870.86749999999995 -1 0 0 1 5.5562500000000004
1 0 19.256249999999998 1 0 
2 0 0 0 1 1 -0 5.5562500000000004
2 202 870.86749999999995 -1 0 0 1 5.5562500000000057
2 202 870.86749999999995 -1 0 0 1 5.5562500000000057
2 202 870.86749999999995 -1 0 0 1 5.5562500000000057
2 257.94999999999999 801.58749999999998 -1 0 0 1 2.5
1 0 19.256250000000001 1 0 
2 257.94999999999999 801.58749999999998 -1 0 0 1 2.5
2 257.94999999999999 801.58749999999998 -1 0 0 1 2.5
2 257.94999999999999 801.58749999999998 -1 0 0 1 2.5
2 202 1119.4275 -1 0 0 1 5.5562500000000004
1 0 19.256249999999998 1 0 
2 0 0 0 1 1 -0 5.5562500000000004
2 202 1119.4275 -1 0 0 1 5.5562500000000057
2 202 1119.4275 -1 0 0 1 5.5562500000000057
2 202 1119.4275 -1 0 0 1 5.5562500000000057
2 257.94999999999999 1001.5875 -1 0 0 1 2.5
1 0 19.256250000000001 1 0 
2 257.94999999999999 1001.5875 -1 0 0 1 2.5
2 257.94999999999999 1001.5875 -1 0 0 1 2.5
2 257.94999999999999 1001.5875 -1 0 0 1 2.5
2 212 1198.5625 -1 0 0 1 2.5
1 0 19.256250000000001 1 0 
1 0 19.256250000000001 1 0 
1 0 4 1 0 
1 0 3.6055512754639891 1 0 
1 6.2831853071795862 -0 0 1 
1 0 -0 0 1 
1 0 4 1 0 
1 0 3.6055512754639891 1 0 
1 6.2831853071795862 -0 0 1 
1 0 -0 0 1 
1 6.2831853071795862 -0 0 1 
1 0 -0 0 1 
1 0 3.6055512754639891 1 0 
2 0 0 1 0 -0 1 2.5000000000000004
1 0 4 1 0 
1 6.2831853071795862 -0 0 1 
1 0 -0 0 1 
1 6.2831853071795862 -0 0 1 
1 0 -0 0 1 
1 0 3.6055512754639891 1 0 
2 0 0 1 0 -0 1 2.5000000000000004
1 0 4 1 0 
1 6.2831853071795862 -0 0 1 
1 0 -0 0 1 
1 0 3.6055512754639891 1 0 
2 0 0 1 0 -0 1 2.5000000000000004
1 0 4 1 0 
1 6.2831853071795862 -0 0 1 
1 0 -0 0 1 
1 0 3.6055512754639891 1 0 
2 0 0 1 0 -0 1 2.5000000000000004
1 0 4 1 0 
1 6.2831853071795862 -0 0 1 
1 0 -0 0 1 
1 6.2831853071795862 -0 0 1 
1 0 -0 0 1 
1 6.2831853071795862 -0 0 1 
1 0 -0 0 1 
1 0 3.6055512754639891 1 0 
2 0 0 1 0 -0 1 2.5000000000000004
1 0 4 1 0 
1 6.2831853071795862 -0 0 1 
1 0 -0 0 1 
1 6.2831853071795862 -0 0 1 
1 0 -0 0 1 
1 0 3.6055512754639891 1 0 
2 0 0 1 0 -0 1 2.5000000000000004
1 0 4 1 0 
1 6.2831853071795862 -0 0 1 
1 0 -0 0 1 
1 0 4 1 0 
1 0 3.6055512754639891 1 0 
1 6.2831853071795862 -0 0 1 
1 0 -0 0 1 
1 6.2831853071795862 -0 0 1 
1 0 -0 0 1 
1 6.2831853071795862 -0 0 1 
1 0 -0 0 1 
1 6.2831853071795862 -0 0 1 
1 0 -0 0 1 
1 6.2831853071795862 -0 0 1 
1 0 -0 0 1 
1 6.2831853071795862 -0 0 1 
1 0 -0 0 1 
1 6.2831853071795862 -0 0 1 
1 0 -0 0 1 
1 6.2831853071795862 -0 0 1 
1 0 -0 0 1 
1 6.2831853071795862 -0 0 1 
1 0 -0 0 1 
1 6.2831853071795862 -0 0 1 
1 0 -0 0 1 
Curves 78
1 -1.5874999999999999 -36 277 -0 1 0 
1 -1.5874999999999999 -17.803701111450778 276.83528567501793 0 -0.76604444311897812 0.64278760968653936 
1 -1.5874999999999999 -17.803701111450778 276.83528567501793 0 0.64278760968653936 0.76604444311897812 
1 -1.5874999999999999 -17.743749999999963 0 0 0 1 
1 -1.5874999999999999 -36 0 -0 1 0 
1 -1.5874999999999999 -36 0 0 0 1 
1 -1.5874999999999999 -17.999999999999901 277 -1 -0 0 
1 1216.0249999999999 -36 277 -0 1 0 
1 -1.5874999999999999 -36 277 1 0 -0 
1 -1.5874999999999999 -17.803701111450778 276.83528567501793 1 0 0 
1 1216.0249999999999 -17.803701111450778 276.83528567501793 0 -0.76604444311897812 0.64278760968653936 
1 1216.0249999999999 -21.145643988373454 272.85251324520073 0 -0.64278760968653936 -0.76604444311897812 
1 -1.5874999999999999 -17.743749999999963 276.90673262746952 -1 0 -0 
1 1216.0249999999999 -17.743749999999963 0 0 0 1 
1 -1.5874999999999999 -17.743749999999963 0 1 0 -0 
2 30.799999999999997 -17.743749999999999 60 0 -1 0 0 -0 -1 1 0 0 4.5
2 30.799999999999997 -17.743749999999999 192 0 -1 0 0 -0 -1 1 0 0 4.5
2 123.59999999999991 -17.743749999999963 202 0 -1 -0 0 0 -1 1 0 0 5.5562500000000004
2 200 -17.743749999999999 257.94999999999999 0 -1 0 0 -0 -1 1 0 0 4.5
2 372.16000000000008 -17.743749999999963 202 0 -1 -0 0 0 -1 1 0 0 5.5562500000000004
2 400 -17.743749999999999 257.94999999999999 0 -1 0 0 -0 -1 1 0 0 4.5
2 600 -17.743749999999999 257.94999999999999 0 -1 0 0 -0 -1 1 0 0 4.5
2 1196.9749999999999 -17.743749999999999 60 0 -1 0 0 -0 -1 1 0 0 4.5
2 620.72000000000003 -17.743749999999963 202 0 -1 -0 0 0 -1 1 0 0 5.5562500000000004
2 869.27999999999997 -17.743749999999963 202 0 -1 -0 0 0 -1 1 0 0 5.5562500000000004
2 800 -17.743749999999999 257.94999999999999 0 -1 0 0 -0 -1 1 0 0 4.5
2 1117.8399999999999 -17.743749999999963 202 0 -1 -0 0 0 -1 1 0 0 5.5562500000000004
2 1000 -17.743749999999999 257.94999999999999 0 -1 0 0 -0 -1 1 0 0 4.5
2 1196.9749999999999 -17.743749999999999 212 0 -1 0 0 -0 -1 1 0 0 4.5
1 1216.0249999999999 -36 0 -0 1 0 
1 -1.5874999999999999 -36 0 1 0 -0 
1 1216.0249999999999 -36 0 0 0 1 
2 30.799999999999997 -36 60 0 -1 0 0 -0 -1 1 0 0 2.5
2 30.799999999999997 -36 192 0 -1 0 0 -0 -1 1 0 0 2.5
2 123.59999999999991 -36 202 0 -1 -0 0 0 -1 1 0 0 5.5562500000000004
2 200 -36 257.94999999999999 0 -1 0 0 -0 -1 1 0 0 2.5
2 372.16000000000008 -36 202 0 -1 -0 0 0 -1 1 0 0 5.5562500000000004
2 400 -36 257.94999999999999 0 -1 0 0 -0 -1 1 0 0 2.5
2 600 -36 257.94999999999999 0 -1 0 0 -0 -1 1 0 0 2.5
2 1196.9749999999999 -36 60 0 -1 0 0 -0 -1 1 0 0 2.5
2 620.72000000000003 -36 202 0 -1 -0 0 0 -1 1 0 0 5.5562500000000004
2 869.27999999999997 -36 202 0 -1 -0 0 0 -1 1 0 0 5.5562500000000004
2 800 -36 257.94999999999999 0 -1 0 0 -0 -1 1 0 0 2.5
2 1117.8399999999999 -36 202 0 -1 -0 0 0 -1 1 0 0 5.5562500000000004
2 1000 -36 257.94999999999999 0 -1 0 0 -0 -1 1 0 0 2.5
2 1196.9749999999999 -36 212 0 -1 0 0 -0 -1 1 0 0 2.5
2 30.799999999999997 -20.743749999999999 60 0 -1 0 0 -0 -1 1 0 0 2.5000000000000004
1 30.799999999999997 -17.743749999999999 55.5 1.3586236395872709e-16 -0.83205029433784372 0.55470019622522904 
2 30.799999999999997 -20.743749999999999 192 0 -1 0 0 -0 -1 1 0 0 2.5000000000000004
1 30.799999999999997 -17.743750000000006 187.5 1.3586236395872709e-16 -0.83205029433784372 0.55470019622522904 
1 123.59999999999991 -16.743750000000002 196.44374999999999 -0 -1 0 
2 200 -20.743749999999999 257.94999999999999 0 -1 0 0 -0 -1 1 0 0 2.5000000000000004
1 200 -17.743750000000006 253.44999999999999 1.3586236395872709e-16 -0.83205029433784372 0.55470019622522904 
1 372.16000000000008 -16.743750000000002 196.44374999999999 -0 -1 0 
2 400 -20.743749999999999 257.94999999999999 0 -1 0 0 -0 -1 1 0 0 2.5000000000000004
1 400 -17.743750000000006 253.45000000000002 1.3586236395872709e-16 -0.83205029433784372 0.55470019622522904 
2 600 -20.743749999999999 257.94999999999999 0 -1 0 0 -0 -1 1 0 0 2.5000000000000004
1 600 -17.743750000000006 253.45000000000002 1.3586236395872709e-16 -0.83205029433784372 0.55470019622522904 
2 1196.9749999999999 -20.743749999999999 60 0 -1 0 0 -0 -1 1 0 0 2.5000000000000004
1 1196.9749999999999 -17.743749999999999 55.5 1.3586236395872709e-16 -0.83205029433784372 0.55470019622522904 
1 620.72000000000003 -16.743750000000002 196.44374999999999 -0 -1 0 
1 869.27999999999997 -16.743750000000002 196.44374999999999 -0 -1 0 
2 800 -20.743749999999999 257.94999999999999 0 -1 0 0 -0 -1 1 0 0 2.5000000000000004
1 800 -17.743750000000006 253.44999999999996 1.3586236395872709e-16 -0.83205029433784372 0.55470019622522904 
1 1117.8399999999999 -16.743750000000002 196.44374999999999 -0 -1 0 
2 1000 -20.743749999999999 257.94999999999999 0 -1 0 0 -0 -1 1 0 0 2.5000000000000004
1 1000 -17.743750000000006 253.44999999999996 1.3586236395872709e-16 -0.83205029433784372 0.55470019622522904 
2 1196.9749999999999 -20.743749999999999 212 0 -1 0 0 -0 -1 1 0 0 2.5000000000000004
1 1196.9749999999999 -17.743750000000006 207.5 1.3586236395872709e-16 -0.83205029433784372 0.55470019622522904 
1 30.799999999999997 -16.743749999999999 57.5 0 -1 0 
1 30.799999999999997 -16.743749999999999 189.5 0 -1 0 
1 200 -16.743749999999999 255.44999999999999 0 -1 0 
1 400 -16.743749999999999 255.45000000000002 0 -1 0 
1 600 -16.743749999999999 255.45000000000002 0 -1 0 
1 1196.9749999999999 -16.743749999999999 57.5 0 -1 0 
1 800 -16.743749999999999 255.44999999999996 0 -1 0 
1 1000 -16.743749999999999 255.44999999999996 0 -1 0 
1 1196.9749999999999 -16.743749999999999 209.5 0 -1 0 
Polygon3D 0
PolygonOnTriangulations 0
Surfaces 56
1 -1.5874999999999999 -36 0 1 0 -0 0 0 1 0 -1 0 
1 -1.5874999999999999 -36 277 0 0 1 1 0 -0 -0 1 0 
1 -1.5874999999999999 -17.803701111450778 276.83528567501793 -1 0 0 0 0.64278760968653936 0.76604444311897812 0 0.76604444311897812 -0.64278760968653936 
1 -1.5874999999999999 -17.803701111450778 276.83528567501793 -0 0.64278760968653936 0.76604444311897812 1 0 0 0 0.76604444311897812 -0.64278760968653936 
1 -1.5874999999999999 -17.803701111450778 276.83528567501793 0 0.76604444311897812 -0.64278760968653936 0 0.64278760968653936 0.76604444311897812 1 -0 0 
1 -1.5874999999999999 -17.743749999999963 0 -0 1 0 0 0 1 1 0 -0 
1 -1.5874999999999999 -17.743749999999963 0 -0 1 0 0 0 1 1 0 -0 
1 -1.5874999999999999 -17.743749999999963 0 -0 1 0 0 0 1 1 0 -0 
1 -1.5874999999999999 -17.743749999999963 0 -0 1 0 0 0 1 1 0 -0 
1 -1.5874999999999999 -36 0 0 0 1 1 0 -0 -0 1 0 
1 -1.5874999999999999 -36 0 -0 1 0 0 0 1 1 0 -0 
1 -1.5874999999999999 -36 0 -0 1 0 0 0 1 1 0 -0 
1 -1.5874999999999999 -36 0 -0 1 0 0 0 1 1 0 -0 
1 -1.5874999999999999 -36 0 -0 1 0 0 0 1 1 0 -0 
1 1216.0249999999999 -36 0 1 0 -0 0 0 1 0 -1 0 
1 1216.0249999999999 765.88295261837811 1210.7966707256762 1 0 0 0 -0.64278760968653936 -0.76604444311897812 0 0.76604444311897812 -0.64278760968653936 
3 30.799999999999997 -17.743749999999999 60 0 -1 0 0 -0 -1 1 0 0 4.5
-0.5880026035475675
1 30.799999999999997 -17.743749999999999 60 0 -1 0 0 -0 -1 1 0 0 
3 30.799999999999997 -17.743749999999999 192 0 -1 0 0 -0 -1 1 0 0 4.5
-0.5880026035475675
1 30.799999999999997 -17.743749999999999 192 0 -1 0 0 -0 -1 1 0 0 
2 123.59999999999991 -16.743750000000002 202 -0 -1 -0 0 0 -1 1 -0 0 5.5562500000000004
3 200 -17.743749999999999 257.94999999999999 0 -1 0 0 -0 -1 1 0 0 4.5
-0.5880026035475675
1 200 -17.743749999999999 257.94999999999999 0 -1 0 0 -0 -1 1 0 0 
2 372.16000000000008 -16.743750000000002 202 -0 -1 -0 0 0 -1 1 -0 0 5.5562500000000004
3 400 -17.743749999999999 257.94999999999999 0 -1 0 0 -0 -1 1 0 0 4.5
-0.5880026035475675
1 400 -17.743749999999999 257.94999999999999 0 -1 0 0 -0 -1 1 0 0 
3 600 -17.743749999999999 257.94999999999999 0 -1 0 0 -0 -1 1 0 0 4.5
-0.5880026035475675
1 600 -17.743749999999999 257.94999999999999 0 -1 0 0 -0 -1 1 0 0 
3 1196.9749999999999 -17.743749999999999 60 0 -1 0 0 -0 -1 1 0 0 4.5
-0.5880026035475675
1 1196.9749999999999 -17.743749999999999 60 0 -1 0 0 -0 -1 1 0 0 
2 620.72000000000003 -16.743750000000002 202 -0 -1 -0 0 0 -1 1 -0 0 5.5562500000000004
2 869.27999999999997 -16.743750000000002 202 -0 -1 -0 0 0 -1 1 -0 0 5.5562500000000004
3 800 -17.743749999999999 257.94999999999999 0 -1 0 0 -0 -1 1 0 0 4.5
-0.5880026035475675
1 800 -17.743749999999999 257.94999999999999 0 -1 0 0 -0 -1 1 0 0 
2 1117.8399999999999 -16.743750000000002 202 -0 -1 -0 0 0 -1 1 -0 0 5.5562500000000004
3 1000 -17.743749999999999 257.94999999999999 0 -1 0 0 -0 -1 1 0 0 4.5
-0.5880026035475675
1 1000 -17.743749999999999 257.94999999999999 0 -1 0 0 -0 -1 1 0 0 
3 1196.9749999999999 -17.743749999999999 212 0 -1 0 0 -0 -1 1 0 0 4.5
-0.5880026035475675
1 1196.9749999999999 -17.743749999999999 212 0 -1 0 0 -0 -1 1 0 0 
2 30.799999999999997 -16.743749999999999 60 0 -1 0 0 -0 -1 1 0 0 2.5
2 30.799999999999997 -16.743749999999999 192 0 -1 0 0 -0 -1 1 0 0 2.5
1 0 0 0 0 0 1 1 0 -0 -0 1 0 
2 200 -16.743749999999999 257.94999999999999 0 -1 0 0 -0 -1 1 0 0 2.5
2 400 -16.743749999999999 257.94999999999999 0 -1 0 0 -0 -1 1 0 0 2.5
2 600 -16.743749999999999 257.94999999999999 0 -1 0 0 -0 -1 1 0 0 2.5
2 1196.9749999999999 -16.743749999999999 60 0 -1 0 0 -0 -1 1 0 0 2.5
2 800 -16.743749999999999 257.94999999999999 0 -1 0 0 -0 -1 1 0 0 2.5
2 1000 -16.743749999999999 257.94999999999999 0 -1 0 0 -0 -1 1 0 0 2.5
2 1196.9749999999999 -16.743749999999999 212 0 -1 0 0 -0 -1 1 0 0 2.5
2 1196.9749999999999 -16.743749999999999 212 0 -1 0 0 -0 -1 1 0 0 2.5
1 200 -20.743749999999999 257.94999999999999 0 -1 0 0 -0 -1 1 0 0 
1 400 -20.743749999999999 257.94999999999999 0 -1 0 0 -0 -1 1 0 0 
1 600 -20.743749999999999 257.94999999999999 0 -1 0 0 -0 -1 1 0 0 
1 1196.9749999999999 -20.743749999999999 60 0 -1 0 0 -0 -1 1 0 0 
1 800 -20.743749999999999 257.94999999999999 0 -1 0 0 -0 -1 1 0 0 
1 1000 -20.743749999999999 257.94999999999999 0 -1 0 0 -0 -1 1 0 0 
Triangulations 0

TShapes 220
Ve
1e-07
-1.5875 -36 277
0 0

0101101
*
Ve
2.00000007105427e-07
-1.5875 -17.9999999999999 277
0 0

0101101
*
Ed
 1e-07 1 1 0
1  1 0 0 18.0000000000001
2  1 1 0 0 18.0000000000001
2  2 2 0 0 18.0000000000001
0

0101000
+220 0 -219 0 *
Ve
1.5e-07
-1.5875 -17.8037011114508 276.835285675018
0 0

0101101
*
Ed
 1.5e-07 1 1 0
1  2 0 0 0.256249999999839
2  3 3 0 0 0.256249999999839
2  4 4 0 0 0.256249999999839
2  5 1 0 0 0.256249999999839
0

0101000
+217 0 -219 0 *
Ve
2.00000056843419e-07
-1.5875 -17.74375 276.906732627469
0 0

0101101
*
Ed
 1.5e-07 1 1 0
1  3 0 0 0.093267372530807
2  6 5 0 0 0.093267372530807
2  7 3 0 0 0.093267372530807
2  8 1 0 0 0.093267372530807
0

0101000
+217 0 -215 0 *
Ve
1e-07
-1.5875 -17.74375 0
0 0

0101101
*
Ed
 1e-07 1 1 0
1  4 0 0 276.906732627469
2  9 1 0 0 276.906732627469
2  10 6 0 0 276.906732627469
2  11 7 0 0 276.906732627469
2  12 8 0 0 276.906732627469
2  13 9 0 0 276.906732627469
0

0101000
+213 0 -215 0 *
Ve
1e-07
-1.5875 -36 0
0 0

0101101
*
Ed
 1e-07 1 1 0
1  5 0 0 18.25625
2  14 1 0 0 18.25625
2  15 10 0 0 18.25625
0

0101000
-213 0 +211 0 *
Ed
 1e-07 1 1 0
1  6 0 0 277
2  16 1 0 0 277
2  17 11 0 0 277
2  18 12 0 0 277
2  19 13 0 0 277
2  20 14 0 0 277
0

0101000
-220 0 +211 0 *
Wi

0101100
-218 0 +216 0 -214 0 +212 0 +210 0 -209 0 *
Fa
0  1e-07 1 0

0101000
+208 0 *
Ve
2.00000007105427e-07
1216.025 -17.9999999999999 277
0 0

0101101
*
Ed
 2e-07 1 1 0
1  7 0 -1217.6125 0
2  21 2 0 -1217.6125 0
2  22 4 0 -1217.6125 0
0

0101000
+206 0 -219 0 *
Ve
1e-07
1216.025 -36 277
0 0

0101101
*
Ed
 1e-07 1 1 0
1  8 0 0 18.0000000000001
2  23 15 0 0 18.0000000000001
2  24 2 0 0 18.0000000000001
0

0101000
+204 0 -206 0 *
Ed
 1e-07 1 1 0
1  9 0 0 1217.6125
2  25 11 0 0 1217.6125
2  26 2 0 0 1217.6125
2  27 12 0 0 1217.6125
2  28 13 0 0 1217.6125
2  29 14 0 0 1217.6125
0

0101000
-204 0 +220 0 *
Wi

0101100
-218 0 +205 0 +203 0 +202 0 *
Fa
0  1e-07 2 0

0101000
+201 0 *
Ve
1.50000035527137e-07
1216.025 -17.8037011114508 276.835285675018
0 0

0101101
*
Ed
 1.5e-07 1 1 0
1  10 0 0 1217.6125
2  30 5 0 0 1217.6125
2  31 4 0 0 1217.6125
0

0101000
+217 0 -199 0 *
Ed
 1.50000035527137e-07 1 1 0
1  11 0 0 0.256249999999839
2  32 16 0 0 0.256249999999839
2  33 4 0 0 0.256249999999839
2  34 15 0 0 0.256249999999839
0

0101000
+199 0 -206 0 *
Wi

0101100
-198 0 -197 0 -205 0 +216 0 *
Fa
0  1.5e-07 4 0

0101000
+196 0 *
Ve
2.00000056843419e-07
1216.025 -17.74375 276.906732627469
0 0

0101101
*
Ed
 1.5e-07 1 1 0
1  12 0 -5.29240753416583 -5.19914016163502
2  35 5 0 -5.29240753416583 -5.19914016163502
2  36 16 0 -5.29240753416583 -5.19914016163502
2  37 15 0 -5.29240753416583 -5.19914016163502
0

0101000
+194 0 -199 0 *
Ed
 2e-07 1 1 0
1  13 0 -1217.6125 0
2  38 6 0 -1217.6125 0
2  39 5 0 -1217.6125 0
2  40 7 0 -1217.6125 0
2  41 8 0 -1217.6125 0
2  42 9 0 -1217.6125 0
0

0101000
+194 0 -215 0 *
Wi

0101100
-198 0 +193 0 -192 0 +214 0 *
Fa
0  1.5e-07 5 0

0101000
+191 0 *
Ve
1e-07
1216.025 -17.74375 0
0 0

0101101
*
Ed
 1e-07 1 1 0
1  14 0 0 276.906732627469
2  43 15 0 0 276.906732627469
2  44 6 0 0 276.906732627469
2  45 7 0 0 276.906732627469
2  46 8 0 0 276.906732627469
2  47 9 0 0 276.906732627469
0

0101000
+189 0 -194 0 *
Ed
 1e-07 1 1 0
1  15 0 0 1217.6125
2  48 6 0 0 1217.6125
2  49 10 0 0 1217.6125
2  50 7 0 0 1217.6125
2  51 8 0 0 1217.6125
2  52 9 0 0 1217.6125
0

0101000
-189 0 +213 0 *
Wi

0101100
-188 0 -187 0 -192 0 +212 0 *
Ve
1.00000035527137e-07
30.8 -17.74375 55.5
0 0

0101101
*
Ed
 1.00000035527137e-07 1 1 0
1  16 0 0 6.28318530717959
2  53 17 0 0 6.28318530717959
2  54 18 0 0 6.28318530717959
2  55 7 0 0 6.28318530717959
2  56 8 0 0 6.28318530717959
2  57 9 0 0 6.28318530717959
0

0101000
+185 0 -185 0 *
Wi

0101100
+184 0 *
Ve
1.00000035527137e-07
30.8 -17.74375 187.5
0 0

0101101
*
Ed
 1.00000035527137e-07 1 1 0
1  17 0 0 6.28318530717959
2  58 19 0 0 6.28318530717959
2  59 20 0 0 6.28318530717959
2  60 8 0 0 6.28318530717959
2  61 9 0 0 6.28318530717959
0

0101000
+182 0 -182 0 *
Wi

0101100
+181 0 *
Ve
1e-07
123.6 -17.74375 196.44375
0 0

0101101
*
Ed
 1e-07 1 1 0
1  18 0 0 6.28318530717959
2  62 6 0 0 6.28318530717959
2  63 21 0 0 6.28318530717959
2  64 7 0 0 6.28318530717959
2  65 8 0 0 6.28318530717959
2  66 9 0 0 6.28318530717959
0

0101100
+179 0 -179 0 *
Wi

0101100
+178 0 *
Ve
1.00000035527137e-07
200 -17.74375 253.45
0 0

0101101
*
Ed
 1.00000035527137e-07 1 1 0
1  19 0 0 6.28318530717959
2  67 22 0 0 6.28318530717959
2  68 23 0 0 6.28318530717959
2  69 6 0 0 6.28318530717959
2  70 7 0 0 6.28318530717959
2  71 8 0 0 6.28318530717959
2  72 9 0 0 6.28318530717959
0

0101000
+176 0 -176 0 *
Wi

0101100
+175 0 *
Ve
1e-07
372.16 -17.74375 196.44375
0 0

0101101
*
Ed
 1e-07 1 1 0
1  20 0 0 6.28318530717959
2  73 6 0 0 6.28318530717959
2  74 24 0 0 6.28318530717959
2  75 7 0 0 6.28318530717959
2  76 8 0 0 6.28318530717959
2  77 9 0 0 6.28318530717959
0

0101100
+173 0 -173 0 *
Wi

0101100
+172 0 *
Ve
1.00000035527137e-07
400 -17.74375 253.45
0 0

0101101
*
Ed
 1.00000035527137e-07 1 1 0
1  21 0 0 6.28318530717959
2  78 25 0 0 6.28318530717959
2  79 26 0 0 6.28318530717959
2  80 6 0 0 6.28318530717959
2  81 7 0 0 6.28318530717959
2  82 8 0 0 6.28318530717959
2  83 9 0 0 6.28318530717959
0

0101000
+170 0 -170 0 *
Wi

0101100
+169 0 *
Ve
1.00000035527137e-07
600 -17.74375 253.45
0 0

0101101
*
Ed
 1.00000035527137e-07 1 1 0
1  22 0 0 6.28318530717959
2  84 27 0 0 6.28318530717959
2  85 28 0 0 6.28318530717959
2  86 6 0 0 6.28318530717959
2  87 7 0 0 6.28318530717959
2  88 8 0 0 6.28318530717959
2  89 9 0 0 6.28318530717959
0

0101000
+167 0 -167 0 *
Wi

0101100
+166 0 *
Ve
1.00000035527137e-07
1196.975 -17.74375 55.5
0 0

0101101
*
Ed
 1.00000035527137e-07 1 1 0
1  23 0 0 6.28318530717959
2  90 29 0 0 6.28318530717959
2  91 30 0 0 6.28318530717959
2  92 6 0 0 6.28318530717959
2  93 7 0 0 6.28318530717959
2  94 8 0 0 6.28318530717959
2  95 9 0 0 6.28318530717959
0

0101000
+164 0 -164 0 *
Wi

0101100
+163 0 *
Ve
1e-07
620.72 -17.74375 196.44375
0 0

0101101
*
Ed
 1e-07 1 1 0
1  24 0 0 6.28318530717959
2  96 6 0 0 6.28318530717959
2  97 31 0 0 6.28318530717959
2  98 7 0 0 6.28318530717959
2  99 8 0 0 6.28318530717959
2  100 9 0 0 6.28318530717959
0

0101100
+161 0 -161 0 *
Wi

0101100
+160 0 *
Ve
1e-07
869.28 -17.74375 196.44375
0 0

0101101
*
Ed
 1e-07 1 1 0
1  25 0 0 6.28318530717959
2  101 6 0 0 6.28318530717959
2  102 32 0 0 6.28318530717959
2  103 7 0 0 6.28318530717959
2  104 8 0 0 6.28318530717959
2  105 9 0 0 6.28318530717959
0

0101100
+158 0 -158 0 *
Wi

0101100
+157 0 *
Ve
1.00000035527137e-07
800 -17.74375 253.45
0 0

0101101
*
Ed
 1.00000035527137e-07 1 1 0
1  26 0 0 6.28318530717959
2  106 33 0 0 6.28318530717959
2  107 34 0 0 6.28318530717959
2  108 6 0 0 6.28318530717959
2  109 7 0 0 6.28318530717959
2  110 8 0 0 6.28318530717959
2  111 9 0 0 6.28318530717959
0

0101000
+155 0 -155 0 *
Wi

0101100
+154 0 *
Ve
1e-07
1117.84 -17.74375 196.44375
0 0

0101101
*
Ed
 1e-07 1 1 0
1  27 0 0 6.28318530717959
2  112 6 0 0 6.28318530717959
2  113 35 0 0 6.28318530717959
2  114 7 0 0 6.28318530717959
2  115 8 0 0 6.28318530717959
2  116 9 0 0 6.28318530717959
0

0101100
+152 0 -152 0 *
Wi

0101100
+151 0 *
Ve
1.00000035527137e-07
1000 -17.74375 253.45
0 0

0101101
*
Ed
 1.00000035527137e-07 1 1 0
1  28 0 0 6.28318530717959
2  117 36 0 0 6.28318530717959
2  118 37 0 0 6.28318530717959
2  119 6 0 0 6.28318530717959
2  120 7 0 0 6.28318530717959
2  121 8 0 0 6.28318530717959
2  122 9 0 0 6.28318530717959
0

0101000
+149 0 -149 0 *
Wi

0101100
+148 0 *
Ve
1.00000035527137e-07
1196.975 -17.74375 207.5
0 0

0101101
*
Ed
 1.00000035527137e-07 1 1 0
1  29 0 0 6.28318530717959
2  123 38 0 0 6.28318530717959
2  124 39 0 0 6.28318530717959
2  125 9 0 0 6.28318530717959
0

0101000
+146 0 -146 0 *
Wi

0101100
+145 0 *
Fa
0  1e-07 9 0

0101000
+186 0 +183 0 +180 0 +177 0 +174 0 +171 0 +168 0 +165 0 +162 0 +159 0 
+156 0 +153 0 +150 0 +147 0 +144 0 *
Ve
1e-07
1216.025 -36 0
0 0

0101101
*
Ed
 1e-07 1 1 0
1  30 0 0 18.25625
2  126 15 0 0 18.25625
2  127 10 0 0 18.25625
0

0101000
-189 0 +142 0 *
Ed
 1e-07 1 1 0
1  31 0 0 1217.6125
2  128 11 0 0 1217.6125
2  129 10 0 0 1217.6125
2  130 12 0 0 1217.6125
2  131 13 0 0 1217.6125
2  132 14 0 0 1217.6125
0

0101000
-142 0 +211 0 *
Wi

0101100
-210 0 -187 0 +141 0 +140 0 *
Fa
0  1e-07 10 0

0111000
+139 0 *
Ed
 1e-07 1 1 0
1  32 0 0 277
2  133 15 0 0 277
2  134 11 0 0 277
2  135 12 0 0 277
2  136 13 0 0 277
2  137 14 0 0 277
0

0101000
-204 0 +142 0 *
Wi

0101100
-140 0 -137 0 +209 0 +202 0 *
Ve
1e-07
30.8 -36 57.5
0 0

0101101
*
Ed
 1e-07 1 1 0
1  33 0 0 6.28318530717959
2  138 12 0 0 6.28318530717959
2  139 40 0 0 6.28318530717959
2  140 13 0 0 6.28318530717959
2  141 14 0 0 6.28318530717959
0

0101100
+135 0 -135 0 *
Wi

0101100
+134 0 *
Ve
1e-07
30.8 -36 189.5
0 0

0101101
*
Ed
 1e-07 1 1 0
1  34 0 0 6.28318530717959
2  142 13 0 0 6.28318530717959
2  143 41 0 0 6.28318530717959
2  144 14 0 0 6.28318530717959
0

0101100
+132 0 -132 0 *
Wi

0101100
+131 0 *
Ve
1e-07
123.6 -36 196.44375
0 0

0101101
*
Ed
 1e-07 1 1 0
1  35 0 0 6.28318530717959
2  145 11 0 0 6.28318530717959
2  146 21 0 0 6.28318530717959
2  147 42 1 0 6.28318530717959
2  148 12 0 0 6.28318530717959
2  149 13 0 0 6.28318530717959
2  150 14 0 0 6.28318530717959
0

0101100
+129 0 -129 0 *
Wi

0101100
+128 0 *
Ve
1e-07
200 -36 255.45
0 0

0101101
*
Ed
 1e-07 1 1 0
1  36 0 0 6.28318530717959
2  151 11 0 0 6.28318530717959
2  152 43 0 0 6.28318530717959
2  153 12 0 0 6.28318530717959
2  154 13 0 0 6.28318530717959
2  155 14 0 0 6.28318530717959
0

0101100
+126 0 -126 0 *
Wi

0101100
+125 0 *
Ve
1e-07
372.16 -36 196.44375
0 0

0101101
*
Ed
 1e-07 1 1 0
1  37 0 0 6.28318530717959
2  156 11 0 0 6.28318530717959
2  157 24 0 0 6.28318530717959
2  158 42 2 0 6.28318530717959
2  159 12 0 0 6.28318530717959
2  160 13 0 0 6.28318530717959
2  161 14 0 0 6.28318530717959
0

0101100
+123 0 -123 0 *
Wi

0101100
+122 0 *
Ve
1.00000028421709e-07
400 -36 255.45
0 0

0101101
*
Ed
 1e-07 1 1 0
1  38 0 0 6.28318530717959
2  162 11 0 0 6.28318530717959
2  163 44 0 0 6.28318530717959
2  164 12 0 0 6.28318530717959
2  165 13 0 0 6.28318530717959
2  166 14 0 0 6.28318530717959
0

0101100
+120 0 -120 0 *
Wi

0101100
+119 0 *
Ve
1.00000028421709e-07
600 -36 255.45
0 0

0101101
*
Ed
 1e-07 1 1 0
1  39 0 0 6.28318530717959
2  167 11 0 0 6.28318530717959
2  168 45 0 0 6.28318530717959
2  169 12 0 0 6.28318530717959
2  170 13 0 0 6.28318530717959
2  171 14 0 0 6.28318530717959
0

0101100
+117 0 -117 0 *
Wi

0101100
+116 0 *
Ve
1e-07
1196.975 -36 57.5
0 0

0101101
*
Ed
 1e-07 1 1 0
1  40 0 0 6.28318530717959
2  172 11 0 0 6.28318530717959
2  173 46 0 0 6.28318530717959
2  174 12 0 0 6.28318530717959
2  175 13 0 0 6.28318530717959
2  176 14 0 0 6.28318530717959
0

0101100
+114 0 -114 0 *
Wi

0101100
+113 0 *
Ve
1e-07
620.72 -36 196.44375
0 0

0101101
*
Ed
 1e-07 1 1 0
1  41 0 0 6.28318530717959
2  177 11 0 0 6.28318530717959
2  178 31 0 0 6.28318530717959
2  179 42 3 0 6.28318530717959
2  180 12 0 0 6.28318530717959
2  181 13 0 0 6.28318530717959
2  182 14 0 0 6.28318530717959
0

0101100
+111 0 -111 0 *
Wi

0101100
+110 0 *
Ve
1e-07
869.28 -36 196.44375
0 0

0101101
*
Ed
 1e-07 1 1 0
1  42 0 0 6.28318530717959
2  183 11 0 0 6.28318530717959
2  184 32 0 0 6.28318530717959
2  185 42 4 0 6.28318530717959
2  186 12 0 0 6.28318530717959
2  187 13 0 0 6.28318530717959
2  188 14 0 0 6.28318530717959
0

0101100
+108 0 -108 0 *
Wi

0101100
+107 0 *
Ve
1.00000028421709e-07
800 -36 255.45
0 0

0101101
*
Ed
 1e-07 1 1 0
1  43 0 0 6.28318530717959
2  189 11 0 0 6.28318530717959
2  190 47 0 0 6.28318530717959
2  191 12 0 0 6.28318530717959
2  192 13 0 0 6.28318530717959
2  193 14 0 0 6.28318530717959
0

0101100
+105 0 -105 0 *
Wi

0101100
+104 0 *
Ve
1e-07
1117.84 -36 196.44375
0 0

0101101
*
Ed
 1e-07 1 1 0
1  44 0 0 6.28318530717959
2  194 11 0 0 6.28318530717959
2  195 35 0 0 6.28318530717959
2  196 42 5 0 6.28318530717959
2  197 12 0 0 6.28318530717959
2  198 13 0 0 6.28318530717959
2  199 14 0 0 6.28318530717959
0

0101100
+102 0 -102 0 *
Wi

0101100
+101 0 *
Ve
1.00000028421709e-07
1000 -36 255.45
0 0

0101101
*
Ed
 1e-07 1 1 0
1  45 0 0 6.28318530717959
2  200 11 0 0 6.28318530717959
2  201 48 0 0 6.28318530717959
2  202 12 0 0 6.28318530717959
2  203 13 0 0 6.28318530717959
2  204 14 0 0 6.28318530717959
0

0101100
+99 0 -99 0 *
Wi

0101100
+98 0 *
Ve
1e-07
1196.975 -36 209.5
0 0

0101101
*
Ed
 1e-07 1 1 0
1  46 0 0 6.28318530717959
2  205 14 0 0 6.28318530717959
2  206 49 0 0 6.28318530717959
2  207 50 0 0 6.28318530717959
0

0101100
+96 0 -96 0 *
Wi

0101100
+95 0 *
Fa
0  1e-07 14 0

0101000
+136 0 +133 0 +130 0 +127 0 +124 0 +121 0 +118 0 +115 0 +112 0 +109 0 
+106 0 +103 0 +100 0 +97 0 +94 0 *
Wi

0101100
-203 0 +197 0 +193 0 +188 0 +141 0 -137 0 *
Fa
0  1e-07 15 0

0101000
+92 0 *
Ve
1e-07
30.8 -20.74375 57.5
0 0

0101101
*
Ed
 1e-07 1 1 0
1  47 0 0 6.28318530717959
2  208 40 0 0 6.28318530717959
2  209 17 0 0 6.28318530717959
0

0101000
+90 0 -90 0 *
Ed
 1e-07 1 1 0
1  48 0 0 3.60555127546399
3  210 211CN 17 0 0 3.60555127546399
0

0101000
-90 0 +185 0 *
Wi

0101100
-89 0 +88 0 +184 0 -88 0 *
Fa
0  1e-07 17 0

0111000
+87 0 *
Ve
1e-07
30.8 -20.74375 189.5
0 0

0101101
*
Ed
 1e-07 1 1 0
1  49 0 0 6.28318530717959
2  212 41 0 0 6.28318530717959
2  213 19 0 0 6.28318530717959
0

0101000
+85 0 -85 0 *
Ed
 1e-07 1 1 0
1  50 0 0 3.60555127546399
3  214 215CN 19 0 0 3.60555127546399
0

0101000
-85 0 +182 0 *
Wi

0101100
-84 0 +83 0 +181 0 -83 0 *
Fa
0  1e-07 19 0

0111000
+82 0 *
Ed
 1e-07 1 1 0
1  51 0 0.999999999999961 19.25625
3  216 217CN 21 0 0.999999999999961 19.25625
0

0101000
+179 0 -129 0 *
Wi

0101100
-128 0 +80 0 +178 0 -80 0 *
Fa
0  1e-07 21 0

0101000
+79 0 *
Ve
1e-07
200 -20.74375 255.45
0 0

0101101
*
Ed
 1e-07 1 1 0
1  52 0 0 6.28318530717959
2  218 22 0 0 6.28318530717959
2  219 51 0 0 6.28318530717959
2  220 43 0 0 6.28318530717959
0

0101000
+77 0 -77 0 *
Ed
 1e-07 1 1 0
1  53 0 0 3.60555127546399
3  221 222CN 22 0 0 3.60555127546399
0

0101000
-77 0 +176 0 *
Wi

0101100
-76 0 +75 0 +175 0 -75 0 *
Fa
0  1e-07 22 0

0111000
+74 0 *
Ed
 1e-07 1 1 0
1  54 0 0.999999999999961 19.25625
3  223 224CN 24 0 0.999999999999961 19.25625
0

0101000
+173 0 -123 0 *
Wi

0101100
-122 0 +72 0 +172 0 -72 0 *
Fa
0  1e-07 24 0

0101000
+71 0 *
Ve
1e-07
400 -20.74375 255.45
0 0

0101101
*
Ed
 1e-07 1 1 0
1  55 0 0 6.28318530717959
2  225 25 0 0 6.28318530717959
2  226 52 0 0 6.28318530717959
2  227 44 0 0 6.28318530717959
0

0101000
+69 0 -69 0 *
Ed
 1e-07 1 1 0
1  56 0 0 3.60555127546399
3  228 229CN 25 0 0 3.60555127546399
0

0101000
-69 0 +170 0 *
Wi

0101100
-68 0 +67 0 +169 0 -67 0 *
Fa
0  1e-07 25 0

0111000
+66 0 *
Ve
1e-07
600 -20.74375 255.45
0 0

0101101
*
Ed
 1e-07 1 1 0
1  57 0 0 6.28318530717959
2  230 27 0 0 6.28318530717959
2  231 53 0 0 6.28318530717959
2  232 45 0 0 6.28318530717959
0

0101000
+64 0 -64 0 *
Ed
 1e-07 1 1 0
1  58 0 0 3.60555127546399
3  233 234CN 27 0 0 3.60555127546399
0

0101000
-64 0 +167 0 *
Wi

0101100
-63 0 +62 0 +166 0 -62 0 *
Fa
0  1e-07 27 0

0111000
+61 0 *
Ve
1.00000007105427e-07
1196.975 -20.74375 57.5
0 0

0101101
*
Ed
 1.00000007105427e-07 1 1 0
1  59 0 0 6.28318530717959
2  235 29 0 0 6.28318530717959
2  236 54 0 0 6.28318530717959
2  237 46 0 0 6.28318530717959
0

0101000
+59 0 -59 0 *
Ed
 1e-07 1 1 0
1  60 0 0 3.60555127546399
3  238 239CN 29 0 0 3.60555127546399
0

0101000
-59 0 +164 0 *
Wi

0101100
-58 0 +57 0 +163 0 -57 0 *
Fa
0  1e-07 29 0

0111000
+56 0 *
Ed
 1e-07 1 1 0
1  61 0 0.999999999999961 19.25625
3  240 241CN 31 0 0.999999999999961 19.25625
0

0101000
+161 0 -111 0 *
Wi

0101100
-110 0 +54 0 +160 0 -54 0 *
Fa
0  1e-07 31 0

0101000
+53 0 *
Ed
 1e-07 1 1 0
1  62 0 0.999999999999961 19.25625
3  242 243CN 32 0 0.999999999999961 19.25625
0

0101000
+158 0 -108 0 *
Wi

0101100
-107 0 +51 0 +157 0 -51 0 *
Fa
0  1e-07 32 0

0101000
+50 0 *
Ve
1e-07
800 -20.74375 255.45
0 0

0101101
*
Ed
 1e-07 1 1 0
1  63 0 0 6.28318530717959
2  244 33 0 0 6.28318530717959
2  245 55 0 0 6.28318530717959
2  246 47 0 0 6.28318530717959
0

0101000
+48 0 -48 0 *
Ed
 1e-07 1 1 0
1  64 0 0 3.60555127546399
3  247 248CN 33 0 0 3.60555127546399
0

0101000
-48 0 +155 0 *
Wi

0101100
-47 0 +46 0 +154 0 -46 0 *
Fa
0  1e-07 33 0

0111000
+45 0 *
Ed
 1e-07 1 1 0
1  65 0 0.999999999999961 19.25625
3  249 250CN 35 0 0.999999999999961 19.25625
0

0101000
+152 0 -102 0 *
Wi

0101100
-101 0 +43 0 +151 0 -43 0 *
Fa
0  1e-07 35 0

0101000
+42 0 *
Ve
1e-07
1000 -20.74375 255.45
0 0

0101101
*
Ed
 1e-07 1 1 0
1  66 0 0 6.28318530717959
2  251 36 0 0 6.28318530717959
2  252 56 0 0 6.28318530717959
2  253 48 0 0 6.28318530717959
0

0101000
+40 0 -40 0 *
Ed
 1e-07 1 1 0
1  67 0 0 3.60555127546399
3  254 255CN 36 0 0 3.60555127546399
0

0101000
-40 0 +149 0 *
Wi

0101100
-39 0 +38 0 +148 0 -38 0 *
Fa
0  1e-07 36 0

0111000
+37 0 *
Ve
1e-07
1196.975 -20.74375 209.5
0 0

0101101
*
Ed
 1e-07 1 1 0
1  68 0 0 6.28318530717959
2  256 49 0 0 6.28318530717959
2  257 38 0 0 6.28318530717959
0

0101000
+35 0 -35 0 *
Ed
 1e-07 1 1 0
1  69 0 0 3.60555127546399
3  258 259CN 38 0 0 3.60555127546399
0

0101000
-35 0 +146 0 *
Wi

0101100
-34 0 +33 0 +145 0 -33 0 *
Fa
0  1e-07 38 0

0111000
+32 0 *
Ed
 1e-07 1 1 0
1  70 0 4 19.25625
3  260 261CN 40 0 4 19.25625
0

0101000
+90 0 -135 0 *
Wi

0101100
+89 0 -30 0 -134 0 +30 0 *
Fa
0  1e-07 40 0

0101000
+29 0 *
Ed
 1e-07 1 1 0
1  71 0 4 19.25625
3  262 263CN 41 0 4 19.25625
0

0101000
+85 0 -132 0 *
Wi

0101100
+84 0 -27 0 -131 0 +27 0 *
Fa
0  1e-07 41 0

0101000
+26 0 *
Ed
 1e-07 1 1 0
1  72 0 4 19.25625
3  264 265CN 43 0 4 19.25625
0

0101000
+77 0 -126 0 *
Wi

0101100
+24 0 +76 0 -24 0 -125 0 *
Fa
0  1e-07 43 0

0101000
+23 0 *
Ed
 1e-07 1 1 0
1  73 0 4 19.25625
3  266 267CN 44 0 4 19.25625
0

0101000
+69 0 -120 0 *
Wi

0101100
+21 0 +68 0 -21 0 -119 0 *
Fa
0  1e-07 44 0

0101000
+20 0 *
Ed
 1e-07 1 1 0
1  74 0 4 19.25625
3  268 269CN 45 0 4 19.25625
0

0101000
+64 0 -117 0 *
Wi

0101100
+18 0 +63 0 -18 0 -116 0 *
Fa
0  1e-07 45 0

0101000
+17 0 *
Ed
 1e-07 1 1 0
1  75 0 4 19.25625
3  270 271CN 46 0 4 19.25625
0

0101000
+59 0 -114 0 *
Wi

0101100
+15 0 +58 0 -15 0 -113 0 *
Fa
0  1e-07 46 0

0101000
+14 0 *
Ed
 1e-07 1 1 0
1  76 0 4 19.25625
3  272 273CN 47 0 4 19.25625
0

0101000
+48 0 -105 0 *
Wi

0101100
+12 0 +47 0 -12 0 -104 0 *
Fa
0  1e-07 47 0

0101000
+11 0 *
Ed
 1e-07 1 1 0
1  77 0 4 19.25625
3  274 275CN 48 0 4 19.25625
0

0101000
+40 0 -99 0 *
Wi

0101100
+9 0 +39 0 -9 0 -98 0 *
Fa
0  1e-07 48 0

0101000
+8 0 *
Ed
 1e-07 1 1 0
1  78 0 4 19.25625
3  276 277CN 49 0 4 19.25625
0

0101000
+35 0 -96 0 *
Wi

0101100
+34 0 -6 0 -95 0 +6 0 *
Fa
0  1e-07 49 0

0101000
+5 0 *
Sh

0101100
-207 0 +200 0 +195 0 -190 0 +143 0 -138 0 -93 0 +91 0 -86 0 -81 0 
-78 0 -73 0 -70 0 -65 0 -60 0 -55 0 -52 0 -49 0 -44 0 -41 0 
-36 0 -31 0 -28 0 -25 0 -22 0 -19 0 -16 0 -13 0 -10 0 -7 0 
-4 0 *
So

0100000
+3 0 *
Co

1100000
+2 0 *

+1 0 