<svg xmlns="http://www.w3.org/2000/svg" width="1400" height="880" viewBox="0 0 1400 880">
<style>text{font:18px sans-serif;fill:#1e3542}.title{font-size:27px;font-weight:bold}.hold{fill:#9c382e;font-weight:bold}.small{font-size:15px}</style>
<rect width="1400" height="880" fill="white"/>
<text x="35" y="42" class="title">Catalog H-40-12 adaptation of the Z180 fixture</text>
<text x="35" y="75" class="hold">Source dimensions only. The generic 1.50-mm error budget is exceeded under its retained conditions.</text>
<text x="35" y="105" class="">Both handed plans and four proposed axes stay in the frozen generic drawing. Current Z200 remains HOLD.</text>
<text x="35" y="145" class="title">SECTION: local gap / guide / head / cap</text>
<rect x="80" y="286.640" width="220" height="91.440" fill="#e4c793" stroke="#455c69"/>
<path d="M300,332.360 L325,335" stroke="#455c69" fill="none"/>
<text x="335" y="340" class="small">Wood top: w 50.8…88.9</text>
<rect x="80" y="271.400" width="220" height="15.240" fill="#cee1d8" stroke="#455c69"/>
<path d="M300,279.020 L325,280" stroke="#455c69" fill="none"/>
<text x="335" y="285" class="small">Guide foot / open outlet: w 88.9…95.25</text>
<rect x="80" y="225.680" width="220" height="45.720" fill="#95bfd7" stroke="#455c69"/>
<path d="M300,248.540 L325,245" stroke="#455c69" fill="none"/>
<text x="335" y="250" class="small">Guide: w 95.25…114.3</text>
<rect x="80" y="212.345" width="220" height="13.335" fill="#b6bdc2" stroke="#455c69"/>
<path d="M300,219.013 L325,210" stroke="#455c69" fill="none"/>
<text x="335" y="215" class="small">H head / matched spacers: w 114.3…119.856</text>
<rect x="80" y="197.105" width="220" height="15.240" fill="#e5a17c" stroke="#455c69"/>
<path d="M300,204.725 L325,175" stroke="#455c69" fill="none"/>
<text x="335" y="180" class="small">Cap: w 119.856…126.206</text>
<text x="35" y="415" class="">Two feet:25.4×25.4×6.35, beneath the existing guide clamp pads.</text>
<text x="35" y="447" class="">Guide u0…139.7, v139.7…241.3; unchanged bore u44.45/95.25,v180.</text>
<text x="35" y="479" class="">Bottom stop now reaches w114.3. Front gap is open at the bore row.</text>
<text x="35" y="530" class="title">Catalog intervals / capture</text>
<text x="35" y="565" class="small">Body L18.669…19.431; flange F19.859625…20.621625; G5.17525…5.93725.</text>
<text x="35" y="597" class="small">Physical exit gap5.769…6.931; general half-D reference5.55625.</text>
<text x="35" y="629" class="small">Cap holes Ø12.7±0.1; conditional minimum radial capture3.3798125.</text>
<text x="35" y="661" class="small">Spacers match actual head top; proposed capture gap0…0.05.</text>
<text x="35" y="693" class="small">Nominal guide-clamp bare opening133.35; actual clamp/plate fit unknown.</text>
<text x="35" y="725" class="small">H is a permanent press fit. The maker&#x27;s metal jig fit does not qualify wood.</text>
<text x="750" y="160" class="title">Reach / unchanged error conditions</text>
<text x="750" y="198" class="">Nominal free projection 121.85625 mm.</text>
<text x="750" y="230" class="">Worst free projection 122.98725 mm.</text>
<text x="750" y="262" class="">Full cap-to-breakout path 120.98725 mm.</text>
<text x="750" y="294" class="">Retain guide normal≤0.08° and diametral play≤0.10.</text>
<text x="750" y="326" class="">Effective contiguous guidance≥18.0 is an unobserved condition.</text>
<text x="750" y="358" class="">Tilt 0.168930 &gt;0.16 allocation.</text>
<text x="750" y="390" class="">Slop 0.553611 &gt;0.50 allocation.</text>
<text x="750" y="422" class="">Relative bound 1.522541 &gt;1.50 target.</text>
<text x="750" y="475" class="title">FISCH 013P1032150 comparison</text>
<text x="750" y="510" class="small">Maker: Ø10.32, NL120, GL150, shank10; wood use documented.</text>
<text x="750" y="542" class="small">NL minus wood exposure: 36.95000 mm.</text>
<text x="750" y="574" class="small">NL minus lower exit path: 30.01900 mm.</text>
<text x="750" y="606" class="small">NL minus full cap path: -0.98725 mm.</text>
<text x="750" y="638" class="small">Full-path deficit alone does not reject a separately justified lower outlet.</text>
<text x="750" y="670" class="small">No actual bit tolerance, guided use, chuck engagement or chip-flow pass.</text>
<text x="750" y="702" class="small">Exact bushing ID suffix and actual guide bearing remain unresolved.</text>
<text x="35" y="780" class="hold">Declared geometry and error conditions only. Do not use paper scaling as a machining template.</text>
<text x="35" y="815" class="hold">No frame change, tool selection, physical observation, drilling, strength or fabrication release is adopted.</text>
<text x="35" y="850" class="small">Use the sibling JSON for exact intervals, source pins, comparison failures, chip-route limits and blank actuals.</text>
</svg>
