<svg xmlns="http://www.w3.org/2000/svg" width="1200" height="1250" viewBox="0 0 1200 1250">
<rect width="100%" height="100%" fill="white"/>
<text x="25.0000" y="35.0000" font-family="Arial,sans-serif" font-size="23" font-weight="bold" fill="#223044">Extended-cleat frame: nominal member projections 2/4</text>
<text x="25.0000" y="61.0000" font-family="Arial,sans-serif" font-size="14" font-weight="normal" fill="#223044">L along grain / V across section; U is out of plane. Exact datums, U and drill direction are in CSV.</text>
<text x="25.0000" y="84.0000" font-family="Arial,sans-serif" font-size="14" font-weight="normal" fill="#9a3140">NOT marking templates. Raw outlines omit recesses, bores and service cuts; targets show entry projections.</text>
<text x="25.0000" y="125.0000" font-family="Arial,sans-serif" font-size="16" font-weight="bold" fill="#223044">base_principal_center_left</text>
<text x="650.0000" y="125.0000" font-family="Arial,sans-serif" font-size="13" font-weight="normal" fill="#223044">Blank L × depth × thickness: 2532.626 × 139.700 × 38.100 mm</text>
<polygon points="40.0000,200.3186 78.0268,155.0000 1090.0000,155.0000 1090.0000,213.5296 55.7443,213.5296" fill="#edf2f7" stroke="#223044" stroke-width="1"/>
<circle cx="1062.7305" cy="194.9066" r="5" fill="white" stroke="#9a3140" stroke-width="1.5"/>
<line x1="1054.7305" y1="194.9066" x2="1070.7305" y2="194.9066" stroke="#9a3140" stroke-width="1.5"/>
<line x1="1062.7305" y1="186.9066" x2="1062.7305" y2="202.9066" stroke="#9a3140" stroke-width="1.5"/>
<text x="1072.7305" y="189.9066" font-family="Arial,sans-serif" font-size="14" font-weight="bold" fill="#9a3140"></text>
<circle cx="1062.7305" cy="173.6231" r="5" fill="white" stroke="#9a3140" stroke-width="1.5"/>
<line x1="1054.7305" y1="173.6231" x2="1070.7305" y2="173.6231" stroke="#9a3140" stroke-width="1.5"/>
<line x1="1062.7305" y1="165.6231" x2="1062.7305" y2="181.6231" stroke="#9a3140" stroke-width="1.5"/>
<text x="1072.7305" y="168.6231" font-family="Arial,sans-serif" font-size="14" font-weight="bold" fill="#9a3140"></text>
<circle cx="178.4599" cy="173.6231" r="5" fill="white" stroke="#9a3140" stroke-width="1.5"/>
<line x1="170.4599" y1="173.6231" x2="186.4599" y2="173.6231" stroke="#9a3140" stroke-width="1.5"/>
<line x1="178.4599" y1="165.6231" x2="178.4599" y2="181.6231" stroke="#9a3140" stroke-width="1.5"/>
<text x="188.4599" y="168.6231" font-family="Arial,sans-serif" font-size="14" font-weight="bold" fill="#9a3140"></text>
<circle cx="178.4599" cy="194.9066" r="5" fill="white" stroke="#9a3140" stroke-width="1.5"/>
<line x1="170.4599" y1="194.9066" x2="186.4599" y2="194.9066" stroke="#9a3140" stroke-width="1.5"/>
<line x1="178.4599" y1="186.9066" x2="178.4599" y2="202.9066" stroke="#9a3140" stroke-width="1.5"/>
<text x="188.4599" y="189.9066" font-family="Arial,sans-serif" font-size="14" font-weight="bold" fill="#9a3140"></text>
<circle cx="524.2958" cy="194.9066" r="5" fill="white" stroke="#9a3140" stroke-width="1.5"/>
<line x1="516.2958" y1="194.9066" x2="532.2958" y2="194.9066" stroke="#9a3140" stroke-width="1.5"/>
<line x1="524.2958" y1="186.9066" x2="524.2958" y2="202.9066" stroke="#9a3140" stroke-width="1.5"/>
<text x="534.2958" y="189.9066" font-family="Arial,sans-serif" font-size="14" font-weight="bold" fill="#9a3140"></text>
<circle cx="524.2958" cy="173.6231" r="5" fill="white" stroke="#9a3140" stroke-width="1.5"/>
<line x1="516.2958" y1="173.6231" x2="532.2958" y2="173.6231" stroke="#9a3140" stroke-width="1.5"/>
<line x1="524.2958" y1="165.6231" x2="524.2958" y2="181.6231" stroke="#9a3140" stroke-width="1.5"/>
<text x="534.2958" y="168.6231" font-family="Arial,sans-serif" font-size="14" font-weight="bold" fill="#9a3140"></text>
<circle cx="655.1495" cy="173.6231" r="5" fill="white" stroke="#9a3140" stroke-width="1.5"/>
<line x1="647.1495" y1="173.6231" x2="663.1495" y2="173.6231" stroke="#9a3140" stroke-width="1.5"/>
<line x1="655.1495" y1="165.6231" x2="655.1495" y2="181.6231" stroke="#9a3140" stroke-width="1.5"/>
<text x="665.1495" y="168.6231" font-family="Arial,sans-serif" font-size="14" font-weight="bold" fill="#9a3140"></text>
<circle cx="655.1495" cy="194.9066" r="5" fill="white" stroke="#9a3140" stroke-width="1.5"/>
<line x1="647.1495" y1="194.9066" x2="663.1495" y2="194.9066" stroke="#9a3140" stroke-width="1.5"/>
<line x1="655.1495" y1="186.9066" x2="655.1495" y2="202.9066" stroke="#9a3140" stroke-width="1.5"/>
<text x="665.1495" y="189.9066" font-family="Arial,sans-serif" font-size="14" font-weight="bold" fill="#9a3140"></text>
<circle cx="74.7455" cy="201.3343" r="5" fill="white" stroke="#9a3140" stroke-width="1.5"/>
<line x1="66.7455" y1="201.3343" x2="82.7455" y2="201.3343" stroke="#9a3140" stroke-width="1.5"/>
<line x1="74.7455" y1="193.3343" x2="74.7455" y2="209.3343" stroke="#9a3140" stroke-width="1.5"/>
<text x="84.7455" y="196.3343" font-family="Arial,sans-serif" font-size="14" font-weight="bold" fill="#9a3140"></text>
<circle cx="88.4262" cy="185.0302" r="5" fill="white" stroke="#9a3140" stroke-width="1.5"/>
<line x1="80.4262" y1="185.0302" x2="96.4262" y2="185.0302" stroke="#9a3140" stroke-width="1.5"/>
<line x1="88.4262" y1="177.0302" x2="88.4262" y2="193.0302" stroke="#9a3140" stroke-width="1.5"/>
<text x="98.4262" y="180.0302" font-family="Arial,sans-serif" font-size="14" font-weight="bold" fill="#9a3140"></text>
<text x="25.0000" y="255.0000" font-family="Arial,sans-serif" font-size="12" font-weight="normal" fill="#223044">Datum XYZ: -50.950, -182.700, 277.000 mm</text>
<text x="25.0000" y="280.0000" font-family="Arial,sans-serif" font-size="16" font-weight="bold" fill="#223044">base_principal_center_right</text>
<text x="650.0000" y="280.0000" font-family="Arial,sans-serif" font-size="13" font-weight="normal" fill="#223044">Blank L × depth × thickness: 2532.626 × 139.700 × 38.100 mm</text>
<polygon points="40.0000,355.3186 78.0268,310.0000 1090.0000,310.0000 1090.0000,368.5296 55.7443,368.5296" fill="#edf2f7" stroke="#223044" stroke-width="1"/>
<circle cx="1062.7305" cy="349.9066" r="5" fill="white" stroke="#9a3140" stroke-width="1.5"/>
<line x1="1054.7305" y1="349.9066" x2="1070.7305" y2="349.9066" stroke="#9a3140" stroke-width="1.5"/>
<line x1="1062.7305" y1="341.9066" x2="1062.7305" y2="357.9066" stroke="#9a3140" stroke-width="1.5"/>
<text x="1072.7305" y="344.9066" font-family="Arial,sans-serif" font-size="14" font-weight="bold" fill="#9a3140"></text>
<circle cx="1062.7305" cy="328.6231" r="5" fill="white" stroke="#9a3140" stroke-width="1.5"/>
<line x1="1054.7305" y1="328.6231" x2="1070.7305" y2="328.6231" stroke="#9a3140" stroke-width="1.5"/>
<line x1="1062.7305" y1="320.6231" x2="1062.7305" y2="336.6231" stroke="#9a3140" stroke-width="1.5"/>
<text x="1072.7305" y="323.6231" font-family="Arial,sans-serif" font-size="14" font-weight="bold" fill="#9a3140"></text>
<circle cx="178.4599" cy="328.6231" r="5" fill="white" stroke="#9a3140" stroke-width="1.5"/>
<line x1="170.4599" y1="328.6231" x2="186.4599" y2="328.6231" stroke="#9a3140" stroke-width="1.5"/>
<line x1="178.4599" y1="320.6231" x2="178.4599" y2="336.6231" stroke="#9a3140" stroke-width="1.5"/>
<text x="188.4599" y="323.6231" font-family="Arial,sans-serif" font-size="14" font-weight="bold" fill="#9a3140"></text>
<circle cx="178.4599" cy="349.9066" r="5" fill="white" stroke="#9a3140" stroke-width="1.5"/>
<line x1="170.4599" y1="349.9066" x2="186.4599" y2="349.9066" stroke="#9a3140" stroke-width="1.5"/>
<line x1="178.4599" y1="341.9066" x2="178.4599" y2="357.9066" stroke="#9a3140" stroke-width="1.5"/>
<text x="188.4599" y="344.9066" font-family="Arial,sans-serif" font-size="14" font-weight="bold" fill="#9a3140"></text>
<circle cx="524.2958" cy="349.9066" r="5" fill="white" stroke="#9a3140" stroke-width="1.5"/>
<line x1="516.2958" y1="349.9066" x2="532.2958" y2="349.9066" stroke="#9a3140" stroke-width="1.5"/>
<line x1="524.2958" y1="341.9066" x2="524.2958" y2="357.9066" stroke="#9a3140" stroke-width="1.5"/>
<text x="534.2958" y="344.9066" font-family="Arial,sans-serif" font-size="14" font-weight="bold" fill="#9a3140"></text>
<circle cx="524.2958" cy="328.6231" r="5" fill="white" stroke="#9a3140" stroke-width="1.5"/>
<line x1="516.2958" y1="328.6231" x2="532.2958" y2="328.6231" stroke="#9a3140" stroke-width="1.5"/>
<line x1="524.2958" y1="320.6231" x2="524.2958" y2="336.6231" stroke="#9a3140" stroke-width="1.5"/>
<text x="534.2958" y="323.6231" font-family="Arial,sans-serif" font-size="14" font-weight="bold" fill="#9a3140"></text>
<circle cx="655.1495" cy="328.6231" r="5" fill="white" stroke="#9a3140" stroke-width="1.5"/>
<line x1="647.1495" y1="328.6231" x2="663.1495" y2="328.6231" stroke="#9a3140" stroke-width="1.5"/>
<line x1="655.1495" y1="320.6231" x2="655.1495" y2="336.6231" stroke="#9a3140" stroke-width="1.5"/>
<text x="665.1495" y="323.6231" font-family="Arial,sans-serif" font-size="14" font-weight="bold" fill="#9a3140"></text>
<circle cx="655.1495" cy="349.9066" r="5" fill="white" stroke="#9a3140" stroke-width="1.5"/>
<line x1="647.1495" y1="349.9066" x2="663.1495" y2="349.9066" stroke="#9a3140" stroke-width="1.5"/>
<line x1="655.1495" y1="341.9066" x2="655.1495" y2="357.9066" stroke="#9a3140" stroke-width="1.5"/>
<text x="665.1495" y="344.9066" font-family="Arial,sans-serif" font-size="14" font-weight="bold" fill="#9a3140"></text>
<circle cx="74.7455" cy="356.3343" r="5" fill="white" stroke="#9a3140" stroke-width="1.5"/>
<line x1="66.7455" y1="356.3343" x2="82.7455" y2="356.3343" stroke="#9a3140" stroke-width="1.5"/>
<line x1="74.7455" y1="348.3343" x2="74.7455" y2="364.3343" stroke="#9a3140" stroke-width="1.5"/>
<text x="84.7455" y="351.3343" font-family="Arial,sans-serif" font-size="14" font-weight="bold" fill="#9a3140"></text>
<circle cx="88.4262" cy="340.0302" r="5" fill="white" stroke="#9a3140" stroke-width="1.5"/>
<line x1="80.4262" y1="340.0302" x2="96.4262" y2="340.0302" stroke="#9a3140" stroke-width="1.5"/>
<line x1="88.4262" y1="332.0302" x2="88.4262" y2="348.0302" stroke="#9a3140" stroke-width="1.5"/>
<text x="98.4262" y="335.0302" font-family="Arial,sans-serif" font-size="14" font-weight="bold" fill="#9a3140"></text>
<text x="25.0000" y="410.0000" font-family="Arial,sans-serif" font-size="12" font-weight="normal" fill="#223044">Datum XYZ: 49.850, -182.700, 277.000 mm</text>
<text x="25.0000" y="435.0000" font-family="Arial,sans-serif" font-size="16" font-weight="bold" fill="#223044">base_rail_bottom_left</text>
<text x="650.0000" y="435.0000" font-family="Arial,sans-serif" font-size="13" font-weight="normal" fill="#223044">Blank L × depth × thickness: 1041.250 × 139.700 × 38.100 mm</text>
<polygon points="40.0000,465.0000 621.3708,465.0000 621.3708,543.0000 40.0000,543.0000" fill="#edf2f7" stroke="#223044" stroke-width="1"/>
<circle cx="76.3409" cy="489.8182" r="5" fill="white" stroke="#9a3140" stroke-width="1.5"/>
<line x1="68.3409" y1="489.8182" x2="84.3409" y2="489.8182" stroke="#9a3140" stroke-width="1.5"/>
<line x1="76.3409" y1="481.8182" x2="76.3409" y2="497.8182" stroke="#9a3140" stroke-width="1.5"/>
<text x="86.3409" y="484.8182" font-family="Arial,sans-serif" font-size="14" font-weight="bold" fill="#9a3140"></text>
<circle cx="585.0299" cy="489.8182" r="5" fill="white" stroke="#9a3140" stroke-width="1.5"/>
<line x1="577.0299" y1="489.8182" x2="593.0299" y2="489.8182" stroke="#9a3140" stroke-width="1.5"/>
<line x1="585.0299" y1="481.8182" x2="585.0299" y2="497.8182" stroke="#9a3140" stroke-width="1.5"/>
<text x="595.0299" y="484.8182" font-family="Arial,sans-serif" font-size="14" font-weight="bold" fill="#9a3140"></text>
<circle cx="76.3409" cy="518.1818" r="5" fill="white" stroke="#9a3140" stroke-width="1.5"/>
<line x1="68.3409" y1="518.1818" x2="84.3409" y2="518.1818" stroke="#9a3140" stroke-width="1.5"/>
<line x1="76.3409" y1="510.1818" x2="76.3409" y2="526.1818" stroke="#9a3140" stroke-width="1.5"/>
<text x="86.3409" y="513.1818" font-family="Arial,sans-serif" font-size="14" font-weight="bold" fill="#9a3140"></text>
<circle cx="585.0299" cy="518.1818" r="5" fill="white" stroke="#9a3140" stroke-width="1.5"/>
<line x1="577.0299" y1="518.1818" x2="593.0299" y2="518.1818" stroke="#9a3140" stroke-width="1.5"/>
<line x1="585.0299" y1="510.1818" x2="585.0299" y2="526.1818" stroke="#9a3140" stroke-width="1.5"/>
<text x="595.0299" y="513.1818" font-family="Arial,sans-serif" font-size="14" font-weight="bold" fill="#9a3140"></text>
<text x="25.0000" y="565.0000" font-family="Arial,sans-serif" font-size="12" font-weight="normal" fill="#223044">Datum XYZ: -1130.300, 46.262, 381.587 mm</text>
<text x="25.0000" y="590.0000" font-family="Arial,sans-serif" font-size="16" font-weight="bold" fill="#223044">base_rail_bottom_right</text>
<text x="650.0000" y="590.0000" font-family="Arial,sans-serif" font-size="13" font-weight="normal" fill="#223044">Blank L × depth × thickness: 1077.275 × 139.700 × 38.100 mm</text>
<polygon points="40.0000,620.0000 641.4850,620.0000 641.4850,698.0000 40.0000,698.0000" fill="#edf2f7" stroke="#223044" stroke-width="1"/>
<circle cx="605.1441" cy="644.8182" r="5" fill="white" stroke="#9a3140" stroke-width="1.5"/>
<line x1="597.1441" y1="644.8182" x2="613.1441" y2="644.8182" stroke="#9a3140" stroke-width="1.5"/>
<line x1="605.1441" y1="636.8182" x2="605.1441" y2="652.8182" stroke="#9a3140" stroke-width="1.5"/>
<text x="615.1441" y="639.8182" font-family="Arial,sans-serif" font-size="14" font-weight="bold" fill="#9a3140"></text>
<circle cx="76.3409" cy="644.8182" r="5" fill="white" stroke="#9a3140" stroke-width="1.5"/>
<line x1="68.3409" y1="644.8182" x2="84.3409" y2="644.8182" stroke="#9a3140" stroke-width="1.5"/>
<line x1="76.3409" y1="636.8182" x2="76.3409" y2="652.8182" stroke="#9a3140" stroke-width="1.5"/>
<text x="86.3409" y="639.8182" font-family="Arial,sans-serif" font-size="14" font-weight="bold" fill="#9a3140"></text>
<circle cx="76.3409" cy="673.1818" r="5" fill="white" stroke="#9a3140" stroke-width="1.5"/>
<line x1="68.3409" y1="673.1818" x2="84.3409" y2="673.1818" stroke="#9a3140" stroke-width="1.5"/>
<line x1="76.3409" y1="665.1818" x2="76.3409" y2="681.1818" stroke="#9a3140" stroke-width="1.5"/>
<text x="86.3409" y="668.1818" font-family="Arial,sans-serif" font-size="14" font-weight="bold" fill="#9a3140"></text>
<circle cx="605.1441" cy="673.1818" r="5" fill="white" stroke="#9a3140" stroke-width="1.5"/>
<line x1="597.1441" y1="673.1818" x2="613.1441" y2="673.1818" stroke="#9a3140" stroke-width="1.5"/>
<line x1="605.1441" y1="665.1818" x2="605.1441" y2="681.1818" stroke="#9a3140" stroke-width="1.5"/>
<text x="615.1441" y="668.1818" font-family="Arial,sans-serif" font-size="14" font-weight="bold" fill="#9a3140"></text>
<text x="25.0000" y="720.0000" font-family="Arial,sans-serif" font-size="12" font-weight="normal" fill="#223044">Datum XYZ: 49.850, 46.262, 381.587 mm</text>
<text x="25.0000" y="745.0000" font-family="Arial,sans-serif" font-size="16" font-weight="bold" fill="#223044">base_rail_service_lower_left</text>
<text x="650.0000" y="745.0000" font-family="Arial,sans-serif" font-size="13" font-weight="normal" fill="#223044">Blank L × depth × thickness: 1041.250 × 139.700 × 38.100 mm</text>
<polygon points="40.0000,775.0000 621.3708,775.0000 621.3708,853.0000 40.0000,853.0000" fill="#edf2f7" stroke="#223044" stroke-width="1"/>
<circle cx="76.3409" cy="799.8182" r="5" fill="white" stroke="#9a3140" stroke-width="1.5"/>
<line x1="68.3409" y1="799.8182" x2="84.3409" y2="799.8182" stroke="#9a3140" stroke-width="1.5"/>
<line x1="76.3409" y1="791.8182" x2="76.3409" y2="807.8182" stroke="#9a3140" stroke-width="1.5"/>
<text x="86.3409" y="794.8182" font-family="Arial,sans-serif" font-size="14" font-weight="bold" fill="#9a3140"></text>
<circle cx="585.0299" cy="799.8182" r="5" fill="white" stroke="#9a3140" stroke-width="1.5"/>
<line x1="577.0299" y1="799.8182" x2="593.0299" y2="799.8182" stroke="#9a3140" stroke-width="1.5"/>
<line x1="585.0299" y1="791.8182" x2="585.0299" y2="807.8182" stroke="#9a3140" stroke-width="1.5"/>
<text x="595.0299" y="794.8182" font-family="Arial,sans-serif" font-size="14" font-weight="bold" fill="#9a3140"></text>
<circle cx="76.3409" cy="828.1818" r="5" fill="white" stroke="#9a3140" stroke-width="1.5"/>
<line x1="68.3409" y1="828.1818" x2="84.3409" y2="828.1818" stroke="#9a3140" stroke-width="1.5"/>
<line x1="76.3409" y1="820.1818" x2="76.3409" y2="836.1818" stroke="#9a3140" stroke-width="1.5"/>
<text x="86.3409" y="823.1818" font-family="Arial,sans-serif" font-size="14" font-weight="bold" fill="#9a3140"></text>
<circle cx="585.0299" cy="828.1818" r="5" fill="white" stroke="#9a3140" stroke-width="1.5"/>
<line x1="577.0299" y1="828.1818" x2="593.0299" y2="828.1818" stroke="#9a3140" stroke-width="1.5"/>
<line x1="585.0299" y1="820.1818" x2="585.0299" y2="836.1818" stroke="#9a3140" stroke-width="1.5"/>
<text x="595.0299" y="823.1818" font-family="Arial,sans-serif" font-size="14" font-weight="bold" fill="#9a3140"></text>
<text x="25.0000" y="875.0000" font-family="Arial,sans-serif" font-size="12" font-weight="normal" fill="#223044">Datum XYZ: -1130.300, 685.016, 1142.825 mm</text>
<text x="25.0000" y="900.0000" font-family="Arial,sans-serif" font-size="16" font-weight="bold" fill="#223044">base_rail_service_lower_right</text>
<text x="650.0000" y="900.0000" font-family="Arial,sans-serif" font-size="13" font-weight="normal" fill="#223044">Blank L × depth × thickness: 1077.275 × 139.700 × 38.100 mm</text>
<polygon points="40.0000,930.0000 641.4850,930.0000 641.4850,1008.0000 40.0000,1008.0000" fill="#edf2f7" stroke="#223044" stroke-width="1"/>
<circle cx="605.1441" cy="954.8182" r="5" fill="white" stroke="#9a3140" stroke-width="1.5"/>
<line x1="597.1441" y1="954.8182" x2="613.1441" y2="954.8182" stroke="#9a3140" stroke-width="1.5"/>
<line x1="605.1441" y1="946.8182" x2="605.1441" y2="962.8182" stroke="#9a3140" stroke-width="1.5"/>
<text x="615.1441" y="949.8182" font-family="Arial,sans-serif" font-size="14" font-weight="bold" fill="#9a3140"></text>
<circle cx="76.3409" cy="954.8182" r="5" fill="white" stroke="#9a3140" stroke-width="1.5"/>
<line x1="68.3409" y1="954.8182" x2="84.3409" y2="954.8182" stroke="#9a3140" stroke-width="1.5"/>
<line x1="76.3409" y1="946.8182" x2="76.3409" y2="962.8182" stroke="#9a3140" stroke-width="1.5"/>
<text x="86.3409" y="949.8182" font-family="Arial,sans-serif" font-size="14" font-weight="bold" fill="#9a3140"></text>
<circle cx="76.3409" cy="983.1818" r="5" fill="white" stroke="#9a3140" stroke-width="1.5"/>
<line x1="68.3409" y1="983.1818" x2="84.3409" y2="983.1818" stroke="#9a3140" stroke-width="1.5"/>
<line x1="76.3409" y1="975.1818" x2="76.3409" y2="991.1818" stroke="#9a3140" stroke-width="1.5"/>
<text x="86.3409" y="978.1818" font-family="Arial,sans-serif" font-size="14" font-weight="bold" fill="#9a3140"></text>
<circle cx="605.1441" cy="983.1818" r="5" fill="white" stroke="#9a3140" stroke-width="1.5"/>
<line x1="597.1441" y1="983.1818" x2="613.1441" y2="983.1818" stroke="#9a3140" stroke-width="1.5"/>
<line x1="605.1441" y1="975.1818" x2="605.1441" y2="991.1818" stroke="#9a3140" stroke-width="1.5"/>
<text x="615.1441" y="978.1818" font-family="Arial,sans-serif" font-size="14" font-weight="bold" fill="#9a3140"></text>
<text x="25.0000" y="1030.0000" font-family="Arial,sans-serif" font-size="12" font-weight="normal" fill="#223044">Datum XYZ: 49.850, 685.016, 1142.825 mm</text>
<text x="25.0000" y="1055.0000" font-family="Arial,sans-serif" font-size="16" font-weight="bold" fill="#223044">base_rail_service_upper_left</text>
<text x="650.0000" y="1055.0000" font-family="Arial,sans-serif" font-size="13" font-weight="normal" fill="#223044">Blank L × depth × thickness: 1041.250 × 139.700 × 38.100 mm</text>
<polygon points="40.0000,1085.0000 621.3708,1085.0000 621.3708,1163.0000 40.0000,1163.0000" fill="#edf2f7" stroke="#223044" stroke-width="1"/>
<circle cx="76.3409" cy="1109.8182" r="5" fill="white" stroke="#9a3140" stroke-width="1.5"/>
<line x1="68.3409" y1="1109.8182" x2="84.3409" y2="1109.8182" stroke="#9a3140" stroke-width="1.5"/>
<line x1="76.3409" y1="1101.8182" x2="76.3409" y2="1117.8182" stroke="#9a3140" stroke-width="1.5"/>
<text x="86.3409" y="1104.8182" font-family="Arial,sans-serif" font-size="14" font-weight="bold" fill="#9a3140"></text>
<circle cx="585.0299" cy="1109.8182" r="5" fill="white" stroke="#9a3140" stroke-width="1.5"/>
<line x1="577.0299" y1="1109.8182" x2="593.0299" y2="1109.8182" stroke="#9a3140" stroke-width="1.5"/>
<line x1="585.0299" y1="1101.8182" x2="585.0299" y2="1117.8182" stroke="#9a3140" stroke-width="1.5"/>
<text x="595.0299" y="1104.8182" font-family="Arial,sans-serif" font-size="14" font-weight="bold" fill="#9a3140"></text>
<circle cx="76.3409" cy="1138.1818" r="5" fill="white" stroke="#9a3140" stroke-width="1.5"/>
<line x1="68.3409" y1="1138.1818" x2="84.3409" y2="1138.1818" stroke="#9a3140" stroke-width="1.5"/>
<line x1="76.3409" y1="1130.1818" x2="76.3409" y2="1146.1818" stroke="#9a3140" stroke-width="1.5"/>
<text x="86.3409" y="1133.1818" font-family="Arial,sans-serif" font-size="14" font-weight="bold" fill="#9a3140"></text>
<circle cx="585.0299" cy="1138.1818" r="5" fill="white" stroke="#9a3140" stroke-width="1.5"/>
<line x1="577.0299" y1="1138.1818" x2="593.0299" y2="1138.1818" stroke="#9a3140" stroke-width="1.5"/>
<line x1="585.0299" y1="1130.1818" x2="585.0299" y2="1146.1818" stroke="#9a3140" stroke-width="1.5"/>
<text x="595.0299" y="1133.1818" font-family="Arial,sans-serif" font-size="14" font-weight="bold" fill="#9a3140"></text>
<text x="25.0000" y="1185.0000" font-family="Arial,sans-serif" font-size="12" font-weight="normal" fill="#223044">Datum XYZ: -1130.300, 670.593, 1342.971 mm</text>
</svg>
