<svg xmlns="http://www.w3.org/2000/svg" width="900" height="950" viewBox="0 0 900 950" data-units="mm">
  <title>Mini MoonBoard metric-template datum drawing</title>
  <defs>
    <marker id="arrow" markerWidth="8" markerHeight="8" refX="4" refY="4" orient="auto-start-reverse">
      <path d="M 0 0 L 8 4 L 0 8 z" fill="#333" />
    </marker>
  </defs>
  <style>
    .panel { fill: #20252b; stroke: #f0b429; stroke-width: 2; }
    .kicker { fill: #444b53; stroke: #f0b429; stroke-width: 2; }
    .seam { stroke: #aaa; stroke-width: 1.5; }
    .tnut { fill: #f0b429; }
    .led { fill: #78b7e5; }
    .kicker-hole { fill: #e07a5f; }
    .dim { stroke: #333; stroke-width: 1.5; marker-start: url(#arrow); marker-end: url(#arrow); }
    text { fill: #222; font: 16px sans-serif; }
    .axis { font-weight: bold; }
    .on-dark { fill: white; }
    .warning { fill: #a3261f; font-weight: bold; }
  </style>
  <rect width="900" height="950" fill="white" />
  <text x="450" y="35" text-anchor="middle" font-size="24">Mini MoonBoard metric-template datum drawing</text>
  <text class="warning" x="450" y="65" text-anchor="middle">CENTER DATUMS ONLY - NOT A DRILL TEMPLATE</text>
  <text x="450" y="90" text-anchor="middle">Verify hole diameters and 100 percent print calibration before fabrication.</text>
  <line class="dim" x1="150.00" y1="110" x2="800.00" y2="110" />
  <text x="450" y="105" text-anchor="middle">2437 mm / 95 15/16 in template width</text>
  <rect class="panel" x="150.00" y="135.00" width="650.00" height="650.80" />
  <rect class="kicker" x="150.00" y="785.80" width="650.00" height="40.01" />
  <line class="seam" x1="475.00" y1="135.00" x2="475.00" y2="825.81" />
  <line class="seam" x1="150.00" y1="460.40" x2="800.00" y2="460.40" />
  <line class="seam" x1="150.00" y1="785.80" x2="800.00" y2="785.80" />
  <circle class="tnut" cx="203.34" cy="764.46" r="2.3" />
  <circle class="tnut" cx="203.34" cy="711.12" r="2.3" />
  <circle class="tnut" cx="203.34" cy="657.77" r="2.3" />
  <circle class="tnut" cx="203.34" cy="604.43" r="2.3" />
  <circle class="tnut" cx="203.34" cy="551.09" r="2.3" />
  <circle class="tnut" cx="203.34" cy="497.74" r="2.3" />
  <circle class="tnut" cx="203.34" cy="444.40" r="2.3" />
  <circle class="tnut" cx="203.34" cy="391.05" r="2.3" />
  <circle class="tnut" cx="203.34" cy="337.71" r="2.3" />
  <circle class="tnut" cx="203.34" cy="284.36" r="2.3" />
  <circle class="tnut" cx="203.34" cy="231.02" r="2.3" />
  <circle class="tnut" cx="203.34" cy="177.68" r="2.3" />
  <circle class="tnut" cx="256.69" cy="764.46" r="2.3" />
  <circle class="tnut" cx="256.69" cy="711.12" r="2.3" />
  <circle class="tnut" cx="256.69" cy="657.77" r="2.3" />
  <circle class="tnut" cx="256.69" cy="604.43" r="2.3" />
  <circle class="tnut" cx="256.69" cy="551.09" r="2.3" />
  <circle class="tnut" cx="256.69" cy="497.74" r="2.3" />
  <circle class="tnut" cx="256.69" cy="444.40" r="2.3" />
  <circle class="tnut" cx="256.69" cy="391.05" r="2.3" />
  <circle class="tnut" cx="256.69" cy="337.71" r="2.3" />
  <circle class="tnut" cx="256.69" cy="284.36" r="2.3" />
  <circle class="tnut" cx="256.69" cy="231.02" r="2.3" />
  <circle class="tnut" cx="256.69" cy="177.68" r="2.3" />
  <circle class="tnut" cx="310.03" cy="764.46" r="2.3" />
  <circle class="tnut" cx="310.03" cy="711.12" r="2.3" />
  <circle class="tnut" cx="310.03" cy="657.77" r="2.3" />
  <circle class="tnut" cx="310.03" cy="604.43" r="2.3" />
  <circle class="tnut" cx="310.03" cy="551.09" r="2.3" />
  <circle class="tnut" cx="310.03" cy="497.74" r="2.3" />
  <circle class="tnut" cx="310.03" cy="444.40" r="2.3" />
  <circle class="tnut" cx="310.03" cy="391.05" r="2.3" />
  <circle class="tnut" cx="310.03" cy="337.71" r="2.3" />
  <circle class="tnut" cx="310.03" cy="284.36" r="2.3" />
  <circle class="tnut" cx="310.03" cy="231.02" r="2.3" />
  <circle class="tnut" cx="310.03" cy="177.68" r="2.3" />
  <circle class="tnut" cx="363.38" cy="764.46" r="2.3" />
  <circle class="tnut" cx="363.38" cy="711.12" r="2.3" />
  <circle class="tnut" cx="363.38" cy="657.77" r="2.3" />
  <circle class="tnut" cx="363.38" cy="604.43" r="2.3" />
  <circle class="tnut" cx="363.38" cy="551.09" r="2.3" />
  <circle class="tnut" cx="363.38" cy="497.74" r="2.3" />
  <circle class="tnut" cx="363.38" cy="444.40" r="2.3" />
  <circle class="tnut" cx="363.38" cy="391.05" r="2.3" />
  <circle class="tnut" cx="363.38" cy="337.71" r="2.3" />
  <circle class="tnut" cx="363.38" cy="284.36" r="2.3" />
  <circle class="tnut" cx="363.38" cy="231.02" r="2.3" />
  <circle class="tnut" cx="363.38" cy="177.68" r="2.3" />
  <circle class="tnut" cx="416.72" cy="764.46" r="2.3" />
  <circle class="tnut" cx="416.72" cy="711.12" r="2.3" />
  <circle class="tnut" cx="416.72" cy="657.77" r="2.3" />
  <circle class="tnut" cx="416.72" cy="604.43" r="2.3" />
  <circle class="tnut" cx="416.72" cy="551.09" r="2.3" />
  <circle class="tnut" cx="416.72" cy="497.74" r="2.3" />
  <circle class="tnut" cx="416.72" cy="444.40" r="2.3" />
  <circle class="tnut" cx="416.72" cy="391.05" r="2.3" />
  <circle class="tnut" cx="416.72" cy="337.71" r="2.3" />
  <circle class="tnut" cx="416.72" cy="284.36" r="2.3" />
  <circle class="tnut" cx="416.72" cy="231.02" r="2.3" />
  <circle class="tnut" cx="416.72" cy="177.68" r="2.3" />
  <circle class="tnut" cx="470.07" cy="764.46" r="2.3" />
  <circle class="tnut" cx="470.07" cy="711.12" r="2.3" />
  <circle class="tnut" cx="470.07" cy="657.77" r="2.3" />
  <circle class="tnut" cx="470.07" cy="604.43" r="2.3" />
  <circle class="tnut" cx="470.07" cy="551.09" r="2.3" />
  <circle class="tnut" cx="470.07" cy="497.74" r="2.3" />
  <circle class="tnut" cx="470.07" cy="444.40" r="2.3" />
  <circle class="tnut" cx="470.07" cy="391.05" r="2.3" />
  <circle class="tnut" cx="470.07" cy="337.71" r="2.3" />
  <circle class="tnut" cx="470.07" cy="284.36" r="2.3" />
  <circle class="tnut" cx="470.07" cy="231.02" r="2.3" />
  <circle class="tnut" cx="470.07" cy="177.68" r="2.3" />
  <circle class="tnut" cx="523.41" cy="764.46" r="2.3" />
  <circle class="tnut" cx="523.41" cy="711.12" r="2.3" />
  <circle class="tnut" cx="523.41" cy="657.77" r="2.3" />
  <circle class="tnut" cx="523.41" cy="604.43" r="2.3" />
  <circle class="tnut" cx="523.41" cy="551.09" r="2.3" />
  <circle class="tnut" cx="523.41" cy="497.74" r="2.3" />
  <circle class="tnut" cx="523.41" cy="444.40" r="2.3" />
  <circle class="tnut" cx="523.41" cy="391.05" r="2.3" />
  <circle class="tnut" cx="523.41" cy="337.71" r="2.3" />
  <circle class="tnut" cx="523.41" cy="284.36" r="2.3" />
  <circle class="tnut" cx="523.41" cy="231.02" r="2.3" />
  <circle class="tnut" cx="523.41" cy="177.68" r="2.3" />
  <circle class="tnut" cx="576.75" cy="764.46" r="2.3" />
  <circle class="tnut" cx="576.75" cy="711.12" r="2.3" />
  <circle class="tnut" cx="576.75" cy="657.77" r="2.3" />
  <circle class="tnut" cx="576.75" cy="604.43" r="2.3" />
  <circle class="tnut" cx="576.75" cy="551.09" r="2.3" />
  <circle class="tnut" cx="576.75" cy="497.74" r="2.3" />
  <circle class="tnut" cx="576.75" cy="444.40" r="2.3" />
  <circle class="tnut" cx="576.75" cy="391.05" r="2.3" />
  <circle class="tnut" cx="576.75" cy="337.71" r="2.3" />
  <circle class="tnut" cx="576.75" cy="284.36" r="2.3" />
  <circle class="tnut" cx="576.75" cy="231.02" r="2.3" />
  <circle class="tnut" cx="576.75" cy="177.68" r="2.3" />
  <circle class="tnut" cx="630.10" cy="764.46" r="2.3" />
  <circle class="tnut" cx="630.10" cy="711.12" r="2.3" />
  <circle class="tnut" cx="630.10" cy="657.77" r="2.3" />
  <circle class="tnut" cx="630.10" cy="604.43" r="2.3" />
  <circle class="tnut" cx="630.10" cy="551.09" r="2.3" />
  <circle class="tnut" cx="630.10" cy="497.74" r="2.3" />
  <circle class="tnut" cx="630.10" cy="444.40" r="2.3" />
  <circle class="tnut" cx="630.10" cy="391.05" r="2.3" />
  <circle class="tnut" cx="630.10" cy="337.71" r="2.3" />
  <circle class="tnut" cx="630.10" cy="284.36" r="2.3" />
  <circle class="tnut" cx="630.10" cy="231.02" r="2.3" />
  <circle class="tnut" cx="630.10" cy="177.68" r="2.3" />
  <circle class="tnut" cx="683.44" cy="764.46" r="2.3" />
  <circle class="tnut" cx="683.44" cy="711.12" r="2.3" />
  <circle class="tnut" cx="683.44" cy="657.77" r="2.3" />
  <circle class="tnut" cx="683.44" cy="604.43" r="2.3" />
  <circle class="tnut" cx="683.44" cy="551.09" r="2.3" />
  <circle class="tnut" cx="683.44" cy="497.74" r="2.3" />
  <circle class="tnut" cx="683.44" cy="444.40" r="2.3" />
  <circle class="tnut" cx="683.44" cy="391.05" r="2.3" />
  <circle class="tnut" cx="683.44" cy="337.71" r="2.3" />
  <circle class="tnut" cx="683.44" cy="284.36" r="2.3" />
  <circle class="tnut" cx="683.44" cy="231.02" r="2.3" />
  <circle class="tnut" cx="683.44" cy="177.68" r="2.3" />
  <circle class="tnut" cx="736.79" cy="764.46" r="2.3" />
  <circle class="tnut" cx="736.79" cy="711.12" r="2.3" />
  <circle class="tnut" cx="736.79" cy="657.77" r="2.3" />
  <circle class="tnut" cx="736.79" cy="604.43" r="2.3" />
  <circle class="tnut" cx="736.79" cy="551.09" r="2.3" />
  <circle class="tnut" cx="736.79" cy="497.74" r="2.3" />
  <circle class="tnut" cx="736.79" cy="444.40" r="2.3" />
  <circle class="tnut" cx="736.79" cy="391.05" r="2.3" />
  <circle class="tnut" cx="736.79" cy="337.71" r="2.3" />
  <circle class="tnut" cx="736.79" cy="284.36" r="2.3" />
  <circle class="tnut" cx="736.79" cy="231.02" r="2.3" />
  <circle class="tnut" cx="736.79" cy="177.68" r="2.3" />
  <circle class="led" cx="203.34" cy="791.13" r="1.2" />
  <circle class="led" cx="203.34" cy="737.79" r="1.2" />
  <circle class="led" cx="203.34" cy="684.45" r="1.2" />
  <circle class="led" cx="203.34" cy="631.10" r="1.2" />
  <circle class="led" cx="203.34" cy="577.76" r="1.2" />
  <circle class="led" cx="203.34" cy="524.41" r="1.2" />
  <circle class="led" cx="203.34" cy="471.07" r="1.2" />
  <circle class="led" cx="203.34" cy="417.72" r="1.2" />
  <circle class="led" cx="203.34" cy="364.38" r="1.2" />
  <circle class="led" cx="203.34" cy="311.04" r="1.2" />
  <circle class="led" cx="203.34" cy="257.69" r="1.2" />
  <circle class="led" cx="203.34" cy="204.35" r="1.2" />
  <circle class="led" cx="256.69" cy="791.13" r="1.2" />
  <circle class="led" cx="256.69" cy="737.79" r="1.2" />
  <circle class="led" cx="256.69" cy="684.45" r="1.2" />
  <circle class="led" cx="256.69" cy="631.10" r="1.2" />
  <circle class="led" cx="256.69" cy="577.76" r="1.2" />
  <circle class="led" cx="256.69" cy="524.41" r="1.2" />
  <circle class="led" cx="256.69" cy="471.07" r="1.2" />
  <circle class="led" cx="256.69" cy="417.72" r="1.2" />
  <circle class="led" cx="256.69" cy="364.38" r="1.2" />
  <circle class="led" cx="256.69" cy="311.04" r="1.2" />
  <circle class="led" cx="256.69" cy="257.69" r="1.2" />
  <circle class="led" cx="256.69" cy="204.35" r="1.2" />
  <circle class="led" cx="310.03" cy="791.13" r="1.2" />
  <circle class="led" cx="310.03" cy="737.79" r="1.2" />
  <circle class="led" cx="310.03" cy="684.45" r="1.2" />
  <circle class="led" cx="310.03" cy="631.10" r="1.2" />
  <circle class="led" cx="310.03" cy="577.76" r="1.2" />
  <circle class="led" cx="310.03" cy="524.41" r="1.2" />
  <circle class="led" cx="310.03" cy="471.07" r="1.2" />
  <circle class="led" cx="310.03" cy="417.72" r="1.2" />
  <circle class="led" cx="310.03" cy="364.38" r="1.2" />
  <circle class="led" cx="310.03" cy="311.04" r="1.2" />
  <circle class="led" cx="310.03" cy="257.69" r="1.2" />
  <circle class="led" cx="310.03" cy="204.35" r="1.2" />
  <circle class="led" cx="363.38" cy="791.13" r="1.2" />
  <circle class="led" cx="363.38" cy="737.79" r="1.2" />
  <circle class="led" cx="363.38" cy="684.45" r="1.2" />
  <circle class="led" cx="363.38" cy="631.10" r="1.2" />
  <circle class="led" cx="363.38" cy="577.76" r="1.2" />
  <circle class="led" cx="363.38" cy="524.41" r="1.2" />
  <circle class="led" cx="363.38" cy="471.07" r="1.2" />
  <circle class="led" cx="363.38" cy="417.72" r="1.2" />
  <circle class="led" cx="363.38" cy="364.38" r="1.2" />
  <circle class="led" cx="363.38" cy="311.04" r="1.2" />
  <circle class="led" cx="363.38" cy="257.69" r="1.2" />
  <circle class="led" cx="363.38" cy="204.35" r="1.2" />
  <circle class="led" cx="416.72" cy="791.13" r="1.2" />
  <circle class="led" cx="416.72" cy="737.79" r="1.2" />
  <circle class="led" cx="416.72" cy="684.45" r="1.2" />
  <circle class="led" cx="416.72" cy="631.10" r="1.2" />
  <circle class="led" cx="416.72" cy="577.76" r="1.2" />
  <circle class="led" cx="416.72" cy="524.41" r="1.2" />
  <circle class="led" cx="416.72" cy="471.07" r="1.2" />
  <circle class="led" cx="416.72" cy="417.72" r="1.2" />
  <circle class="led" cx="416.72" cy="364.38" r="1.2" />
  <circle class="led" cx="416.72" cy="311.04" r="1.2" />
  <circle class="led" cx="416.72" cy="257.69" r="1.2" />
  <circle class="led" cx="416.72" cy="204.35" r="1.2" />
  <circle class="led" cx="470.07" cy="791.13" r="1.2" />
  <circle class="led" cx="470.07" cy="737.79" r="1.2" />
  <circle class="led" cx="470.07" cy="684.45" r="1.2" />
  <circle class="led" cx="470.07" cy="631.10" r="1.2" />
  <circle class="led" cx="470.07" cy="577.76" r="1.2" />
  <circle class="led" cx="470.07" cy="524.41" r="1.2" />
  <circle class="led" cx="470.07" cy="471.07" r="1.2" />
  <circle class="led" cx="470.07" cy="417.72" r="1.2" />
  <circle class="led" cx="470.07" cy="364.38" r="1.2" />
  <circle class="led" cx="470.07" cy="311.04" r="1.2" />
  <circle class="led" cx="470.07" cy="257.69" r="1.2" />
  <circle class="led" cx="470.07" cy="204.35" r="1.2" />
  <circle class="led" cx="523.41" cy="791.13" r="1.2" />
  <circle class="led" cx="523.41" cy="737.79" r="1.2" />
  <circle class="led" cx="523.41" cy="684.45" r="1.2" />
  <circle class="led" cx="523.41" cy="631.10" r="1.2" />
  <circle class="led" cx="523.41" cy="577.76" r="1.2" />
  <circle class="led" cx="523.41" cy="524.41" r="1.2" />
  <circle class="led" cx="523.41" cy="471.07" r="1.2" />
  <circle class="led" cx="523.41" cy="417.72" r="1.2" />
  <circle class="led" cx="523.41" cy="364.38" r="1.2" />
  <circle class="led" cx="523.41" cy="311.04" r="1.2" />
  <circle class="led" cx="523.41" cy="257.69" r="1.2" />
  <circle class="led" cx="523.41" cy="204.35" r="1.2" />
  <circle class="led" cx="576.75" cy="791.13" r="1.2" />
  <circle class="led" cx="576.75" cy="737.79" r="1.2" />
  <circle class="led" cx="576.75" cy="684.45" r="1.2" />
  <circle class="led" cx="576.75" cy="631.10" r="1.2" />
  <circle class="led" cx="576.75" cy="577.76" r="1.2" />
  <circle class="led" cx="576.75" cy="524.41" r="1.2" />
  <circle class="led" cx="576.75" cy="471.07" r="1.2" />
  <circle class="led" cx="576.75" cy="417.72" r="1.2" />
  <circle class="led" cx="576.75" cy="364.38" r="1.2" />
  <circle class="led" cx="576.75" cy="311.04" r="1.2" />
  <circle class="led" cx="576.75" cy="257.69" r="1.2" />
  <circle class="led" cx="576.75" cy="204.35" r="1.2" />
  <circle class="led" cx="630.10" cy="791.13" r="1.2" />
  <circle class="led" cx="630.10" cy="737.79" r="1.2" />
  <circle class="led" cx="630.10" cy="684.45" r="1.2" />
  <circle class="led" cx="630.10" cy="631.10" r="1.2" />
  <circle class="led" cx="630.10" cy="577.76" r="1.2" />
  <circle class="led" cx="630.10" cy="524.41" r="1.2" />
  <circle class="led" cx="630.10" cy="471.07" r="1.2" />
  <circle class="led" cx="630.10" cy="417.72" r="1.2" />
  <circle class="led" cx="630.10" cy="364.38" r="1.2" />
  <circle class="led" cx="630.10" cy="311.04" r="1.2" />
  <circle class="led" cx="630.10" cy="257.69" r="1.2" />
  <circle class="led" cx="630.10" cy="204.35" r="1.2" />
  <circle class="led" cx="683.44" cy="791.13" r="1.2" />
  <circle class="led" cx="683.44" cy="737.79" r="1.2" />
  <circle class="led" cx="683.44" cy="684.45" r="1.2" />
  <circle class="led" cx="683.44" cy="631.10" r="1.2" />
  <circle class="led" cx="683.44" cy="577.76" r="1.2" />
  <circle class="led" cx="683.44" cy="524.41" r="1.2" />
  <circle class="led" cx="683.44" cy="471.07" r="1.2" />
  <circle class="led" cx="683.44" cy="417.72" r="1.2" />
  <circle class="led" cx="683.44" cy="364.38" r="1.2" />
  <circle class="led" cx="683.44" cy="311.04" r="1.2" />
  <circle class="led" cx="683.44" cy="257.69" r="1.2" />
  <circle class="led" cx="683.44" cy="204.35" r="1.2" />
  <circle class="led" cx="736.79" cy="791.13" r="1.2" />
  <circle class="led" cx="736.79" cy="737.79" r="1.2" />
  <circle class="led" cx="736.79" cy="684.45" r="1.2" />
  <circle class="led" cx="736.79" cy="631.10" r="1.2" />
  <circle class="led" cx="736.79" cy="577.76" r="1.2" />
  <circle class="led" cx="736.79" cy="524.41" r="1.2" />
  <circle class="led" cx="736.79" cy="471.07" r="1.2" />
  <circle class="led" cx="736.79" cy="417.72" r="1.2" />
  <circle class="led" cx="736.79" cy="364.38" r="1.2" />
  <circle class="led" cx="736.79" cy="311.04" r="1.2" />
  <circle class="led" cx="736.79" cy="257.69" r="1.2" />
  <circle class="led" cx="736.79" cy="204.35" r="1.2" />
  <circle class="kicker-hole" cx="176.67" cy="805.80" r="2.3" />
  <circle class="kicker-hole" cx="242.97" cy="805.80" r="2.3" />
  <circle class="kicker-hole" cx="309.26" cy="805.80" r="2.3" />
  <circle class="kicker-hole" cx="375.56" cy="805.80" r="2.3" />
  <circle class="kicker-hole" cx="441.86" cy="805.80" r="2.3" />
  <circle class="kicker-hole" cx="508.15" cy="805.80" r="2.3" />
  <circle class="kicker-hole" cx="574.45" cy="805.80" r="2.3" />
  <circle class="kicker-hole" cx="640.75" cy="805.80" r="2.3" />
  <circle class="kicker-hole" cx="707.04" cy="805.80" r="2.3" />
  <circle class="kicker-hole" cx="773.34" cy="805.80" r="2.3" />
  <text class="axis" x="203.34" y="125" text-anchor="middle">A</text>
  <text class="axis" x="256.69" y="125" text-anchor="middle">B</text>
  <text class="axis" x="310.03" y="125" text-anchor="middle">C</text>
  <text class="axis" x="363.38" y="125" text-anchor="middle">D</text>
  <text class="axis" x="416.72" y="125" text-anchor="middle">E</text>
  <text class="axis" x="470.07" y="125" text-anchor="middle">F</text>
  <text class="axis" x="523.41" y="125" text-anchor="middle">G</text>
  <text class="axis" x="576.75" y="125" text-anchor="middle">H</text>
  <text class="axis" x="630.10" y="125" text-anchor="middle">I</text>
  <text class="axis" x="683.44" y="125" text-anchor="middle">J</text>
  <text class="axis" x="736.79" y="125" text-anchor="middle">K</text>
  <text class="axis" x="132" y="768.46" text-anchor="end">1</text>
  <text class="axis" x="132" y="715.12" text-anchor="end">2</text>
  <text class="axis" x="132" y="661.77" text-anchor="end">3</text>
  <text class="axis" x="132" y="608.43" text-anchor="end">4</text>
  <text class="axis" x="132" y="555.09" text-anchor="end">5</text>
  <text class="axis" x="132" y="501.74" text-anchor="end">6</text>
  <text class="axis" x="132" y="448.40" text-anchor="end">7</text>
  <text class="axis" x="132" y="395.05" text-anchor="end">8</text>
  <text class="axis" x="132" y="341.71" text-anchor="end">9</text>
  <text class="axis" x="132" y="288.36" text-anchor="end">10</text>
  <text class="axis" x="132" y="235.02" text-anchor="end">11</text>
  <text class="axis" x="132" y="181.68" text-anchor="end">12</text>
  <text class="on-dark" x="162.00" y="157.00">main surface: T-nut centers in yellow; LED centers in blue</text>
  <text class="on-dark" x="162.00" y="815.81">official kicker foothold centers in orange</text>
  <text x="450" y="870" text-anchor="middle">Origin: lower-left of main surface; x right; y up. Kicker coordinates are negative y.</text>
  <text x="450" y="895" text-anchor="middle">Metric-template source. Imperial values are conversions, not replacement template dimensions.</text>
</svg>
